<svg width="245" height="227" viewBox="0 0 245 227" fill="none" xmlns="http://www.w3.org/2000/svg">
<path d="M283.893 199.584L283.893 199.584C288.668 203.553 289.313 210.635 285.346 215.408C283.115 218.082 279.918 219.458 276.693 219.458C274.156 219.458 271.603 218.601 269.511 216.858C267.129 214.869 259.925 208.746 252.628 201.351C245.312 193.937 237.974 185.315 235.246 178.323L234.804 178.496L235.246 178.323C233.754 174.501 232.82 169.05 232.272 162.955C231.725 156.87 231.565 150.182 231.602 143.906C231.606 143.166 230.991 142.591 230.262 142.625C229.836 142.644 229.418 142.858 229.183 143.261C220.865 157.49 205.613 187.459 205.711 215.579V215.579C205.738 221.794 200.731 226.841 194.518 226.866H194.517H194.517H194.517H194.517H194.517H194.516H194.516H194.516H194.516H194.516H194.515H194.515H194.515H194.515H194.515H194.514H194.514H194.514H194.514H194.514H194.513H194.513H194.513H194.513H194.513H194.512H194.512H194.512H194.512H194.512H194.511H194.511H194.511H194.511H194.511H194.511H194.51H194.51H194.51H194.51H194.51H194.509H194.509H194.509H194.509H194.509H194.508H194.508H194.508H194.508H194.508H194.508H194.507H194.507H194.507H194.507H194.507H194.506H194.506H194.506H194.506H194.506H194.505H194.505H194.505H194.505H194.505H194.505H194.504H194.504H194.504H194.504H194.504H194.503H194.503H194.503H194.503H194.503H194.503H194.502H194.502H194.502H194.502H194.502H194.501H194.501H194.501H194.501H194.501H194.501H194.5H194.5H194.5H194.5H194.5H194.5H194.499H194.499H194.499H194.499H194.499H194.499H194.498H194.498H194.498H194.498H194.498H194.497H194.497H194.497H194.497H194.497H194.497H194.496H194.496H194.496H194.496H194.496H194.496H194.495H194.495H194.495H194.495H194.495H194.495H194.494H194.494H194.494H194.494H194.494H194.494H194.493H194.493H194.493H194.493H194.493H194.493H194.492H194.492H194.492H194.492H194.492H194.492H194.491H194.491H194.491H194.491H194.491H194.491H194.49H194.49H194.49H194.49H194.49H194.49H194.489H194.489H194.489H194.489H194.489H194.489H194.488H194.488H194.488H194.488H194.488H194.488H194.487H194.487H194.487H194.487H194.487H194.487H194.487H194.486H194.486H194.486H194.486H194.486H194.486H194.485H194.485H194.485H194.485H194.485H194.485H194.484H194.484H194.484H194.484H194.484H194.484H194.483H194.483H194.483H194.483H194.483H194.483H194.483H194.482H194.482H194.482H194.482H194.482H194.482H194.481H194.481H194.481H194.481H194.481H194.481H194.481H194.48H194.48H194.48H194.48H194.48H194.48H194.479H194.479H194.479H194.479H194.479H194.479H194.479H194.478H194.478H194.478H194.478H194.478H194.478H194.477H194.477H194.477H194.477H194.477H194.477H194.477H194.476H194.476H194.476H194.476H194.476H194.476H194.476H194.475C188.288 226.866 183.261 221.865 183.24 215.668V215.668C183.11 182.829 199.45 149.69 209.141 132.964C209.414 132.493 209.397 131.937 209.154 131.481C208.242 129.775 207.582 127.887 207.227 125.826C207.227 125.825 207.227 125.824 207.226 125.824L201.098 89.2062C200.907 88.0638 199.571 87.5804 198.668 88.2394C195.536 90.5274 191.677 92.5005 186.634 93.7569C183.717 94.4778 180.841 94.79 178.102 94.79C163.894 94.79 152.677 86.6541 152.142 86.2571L152.141 86.2563C149.689 84.4442 148.553 81.59 148.711 78.723C148.744 78.1363 148.457 77.5443 147.905 77.2484L126.7 65.88C125.701 65.3443 124.491 66.0682 124.491 67.202L124.491 134.973C124.491 135.249 124.267 135.473 123.991 135.473H73.7404C72.9119 135.473 72.2404 136.144 72.2404 136.973V220.741C72.2404 221.569 72.9119 222.241 73.7404 222.241H90.4515C90.7297 222.241 90.9544 222.468 90.9515 222.746L90.9142 226.322C90.9113 226.596 90.6883 226.817 90.4142 226.817H45.4732C45.1951 226.817 44.9704 226.59 44.9733 226.312L45.0106 222.736C45.0134 222.462 45.2364 222.241 45.5106 222.241H62.2321C63.0605 222.241 63.7321 221.569 63.7321 220.741V136.962C63.7321 136.134 63.0605 135.462 62.2321 135.462H13.4278C13.1516 135.462 12.9278 135.239 12.9278 134.962V46.4367C12.9278 45.6082 12.2562 44.9367 11.4278 44.9367H10.3065C4.85395 44.9367 0.5 40.8757 0.5 35.9563C0.5 31.0393 4.85443 26.9783 10.3065 26.9783H127.235C132.69 26.9783 137.052 31.0399 137.052 35.9563C137.052 40.8752 132.694 44.9367 127.235 44.9367H125.971C125.143 44.9367 124.471 45.6082 124.471 46.4367V61.9507C124.471 62.5057 124.778 63.0154 125.268 63.2756L147.841 75.259C148.653 75.6901 149.598 75.287 149.958 74.5097C150.068 74.2732 150.175 74.0772 150.278 73.9341C153.167 70.0158 158.695 69.1798 162.614 72.0745L162.622 72.0802L162.63 72.0855C162.62 72.0787 162.68 72.1207 162.752 72.1693C162.831 72.2228 162.946 72.2992 163.094 72.3944C163.39 72.5848 163.818 72.8507 164.36 73.1605C165.444 73.7799 166.984 74.5765 168.827 75.2963C172.504 76.7318 177.441 77.8827 182.378 76.6475C185.458 75.8817 187.576 74.7605 189.423 73.1542C191.243 71.5714 192.788 69.5262 194.725 66.9615L194.75 66.9274L194.751 66.9272C197.209 63.6672 199.979 60.0105 204.073 56.4466L204.078 56.4423C206.042 54.6868 210.211 51.734 212.974 50.5037L218.641 54.7596C219.317 55.267 220.278 55.1164 220.766 54.4266L224.741 48.8097C224.845 48.6627 225.015 48.5869 225.183 48.6055C229.622 49.0964 233.292 50.5754 234.199 50.9407C234.28 50.9734 234.339 50.9972 234.375 51.0105C239.879 53.2806 245.358 57.6492 250.559 63.1064C255.757 68.5612 260.651 75.0758 264.988 81.5967C273.661 94.6386 280.078 107.666 282.221 112.195C284.304 116.597 282.43 121.857 278.015 123.933L278.013 123.933C276.803 124.507 275.517 124.778 274.249 124.778C270.947 124.778 267.787 122.912 266.279 119.73C262.748 112.278 258.522 104.449 254.117 97.1877C253.255 95.7669 251.144 96.6066 251.411 98.2031L254.56 117.042L254.56 117.043C254.706 117.911 254.753 119.446 254.757 120.86C254.76 122.266 254.721 123.495 254.704 123.727L254.704 123.73C254.114 132.535 253.893 142.613 254.11 151.239C254.219 155.552 254.437 159.507 254.775 162.762C255.112 166.001 255.571 168.594 256.179 170.151L256.179 170.152C256.753 171.614 258.066 173.583 259.853 175.835C261.649 178.099 263.954 180.688 266.548 183.4C271.736 188.823 278.097 194.756 283.893 199.584ZM213.204 50.403C213.195 50.4077 213.185 50.412 213.176 50.4158L213.024 50.0574L212.981 49.9558L213.028 50.0513L213.204 50.403ZM120.512 132.23H120.515C120.569 132.23 120.622 132.221 120.673 132.204C120.878 132.137 121.017 131.945 121.017 131.728L121.008 65.1325C121.008 64.5587 120.681 64.0353 120.165 63.7841L104.861 56.3317C104.635 56.2216 104.526 55.9604 104.607 55.7221L104.864 54.96C104.961 54.6733 105.289 54.5377 105.56 54.6721L118.846 61.2544C119.843 61.7484 121.012 61.023 121.012 59.9103V46.4367C121.012 45.6082 120.341 44.9367 119.512 44.9367H17.9112C17.0828 44.9367 16.4112 45.6082 16.4112 46.4367V130.73C16.4112 131.558 17.0828 132.23 17.9112 132.23H120.512ZM220.499 95.6086L227.17 102.147C227.312 102.286 227.513 102.347 227.709 102.31C227.895 102.275 228.055 102.155 228.14 101.986L232.337 93.634C232.515 93.281 232.546 92.8721 232.423 92.4964L220.465 55.7381C220.379 55.4741 220.115 55.311 219.84 55.3528C219.56 55.3956 219.354 55.6396 219.359 55.9238L220.05 94.5642C220.057 94.9579 220.218 95.333 220.499 95.6086Z" stroke="white"/>
<path d="M238.075 23.9976C238.075 36.9745 227.556 47.4952 214.577 47.4952C201.602 47.4952 191.08 36.9745 191.08 23.9976C191.08 11.0213 201.605 0.5 214.577 0.5C227.556 0.5 238.075 11.0212 238.075 23.9976Z" stroke="white"/>
<path d="M90.1468 76.0108L90.3 75.6815L90.0342 75.434C88.8495 74.3305 88.1061 72.7639 88.1061 71.0207C88.1061 67.687 90.8085 64.9846 94.1422 64.9846C97.4757 64.9846 100.178 67.6881 100.178 71.0219C100.178 74.3555 97.4758 77.0579 94.1422 77.0579C94.1268 77.0579 94.1081 77.057 94.0744 77.0546L94.0638 77.0538C94.0346 77.0517 93.9923 77.0487 93.9495 77.0476L93.6218 77.0393L93.4835 77.3365L86.7973 91.7048L86.6507 92.0199L86.8949 92.2671C88.0107 93.3969 88.6361 94.8946 88.6361 96.4634C88.6361 99.789 85.9342 102.494 82.6152 102.494C79.2908 102.494 76.5855 99.7878 76.5855 96.4634C76.5855 95.3643 76.8914 94.2983 77.4787 93.345L77.6614 93.0484L77.4464 92.7742L65.6704 77.7567L65.4263 77.4453L65.0671 77.6114C63.7602 78.2157 62.2902 78.3207 60.9339 77.9181L60.6382 77.8303L60.4271 78.0551L46.1693 93.2385L45.9305 93.4929L46.0868 93.8048C46.5048 94.6387 46.722 95.5447 46.722 96.4587C46.722 99.7836 44.0162 102.489 40.6918 102.489C37.3675 102.489 34.6621 99.7832 34.6621 96.4587C34.6621 93.137 37.3671 90.4331 40.6918 90.4331C41.4779 90.4331 42.2486 90.5946 42.9917 90.9176L43.3147 91.058L43.5557 90.8011L57.4685 75.9691L57.7352 75.6848L57.5245 75.3568C56.8972 74.3803 56.5601 73.256 56.5601 72.1284C56.5601 68.8038 59.2645 66.0987 62.5875 66.0987C65.9119 66.0987 68.6177 68.8046 68.6177 72.1284C68.6177 72.9776 68.4346 73.8001 68.0707 74.5848L67.9419 74.8627L68.1309 75.1037L80.2408 90.5471L80.4558 90.8212L80.7874 90.7145C81.5278 90.4763 82.3046 90.3836 83.0678 90.4477L83.4157 90.4769L83.563 90.1603L90.1468 76.0108Z" stroke="white"/>
</svg>
