<svg width="322" height="296" viewBox="0 0 322 296" fill="none" xmlns="http://www.w3.org/2000/svg">
<path d="M136.271 159.181L136.27 159.18C135.441 157.908 135.804 156.204 137.08 155.373L222.064 100.169L225.35 100.2L307.186 155.253L307.263 160.074L303.027 163.112L302.819 163.261V163.518V291.562L299.857 294.523H147.599L144.638 291.562V186.306V185.806H144.138H29.2234C28.2414 185.806 27.4459 185.01 27.4459 184.028C27.4459 183.042 28.2408 182.251 29.2234 182.251H144.134H144.634V181.751V162.049L147.595 159.088H299.019H299.18L299.31 158.994L300.462 158.171L301.048 157.752L300.45 157.35L223.941 105.876L223.667 105.692L223.39 105.872L140.08 159.988C140.08 159.989 140.08 159.989 140.079 159.989C138.799 160.813 137.096 160.453 136.271 159.181ZM297.31 175.387V174.887H296.81H167.796C166.817 174.887 166.022 174.095 166.022 173.114C166.022 172.128 166.818 171.337 167.796 171.337H296.81V170.837H297.31V165.1V164.6H296.81H150.642H150.142V165.1V288.515V289.015H150.642H296.81H297.31V288.515V175.387Z" stroke="white"/>
<path d="M100.608 83.7683L100.658 84.2123H101.105H295.889L298.77 86.4426L320.937 172.187L318.09 175.868H311.209C309.685 175.868 308.454 174.634 308.454 173.114C308.454 171.591 309.689 170.36 311.209 170.36H314.139H314.784L314.623 169.735L294.032 90.0955L293.935 89.7206H293.548H101.843H101.283L101.346 90.2765L106.426 135.412L103.491 138.695H46.0583L43.1329 135.344L49.2693 90.2881L49.3466 89.7206H48.7739H34.2859H33.9261L33.8118 90.0618L7.13029 169.701L6.90956 170.36H7.60439H17.2796C17.2919 170.363 17.3155 170.37 17.339 170.375C17.3699 170.382 17.412 170.39 17.4615 170.393L17.6705 170.407L17.7233 170.36H135.054C136.577 170.36 137.808 171.594 137.808 173.114C137.808 174.633 136.573 175.868 135.054 175.868H20.7831H20.2831V176.368V288.515V289.015H20.7831H56.9114H57.4114V288.515V252.139C57.4114 238.097 67.648 226.768 80.117 226.768C92.5859 226.768 102.823 238.097 102.823 252.139V288.515V289.015H103.323H135.774C137.298 289.015 138.529 290.249 138.529 291.769C138.529 293.288 137.294 294.523 135.774 294.523H17.7403L14.779 291.562V176.368V175.868H14.279H3.33994L0.555421 171.994L29.2796 86.2458L32.1015 84.2123H49.1663C49.1823 84.2123 49.2084 84.2154 49.2762 84.234C49.2848 84.2364 49.2954 84.2394 49.3077 84.2429C49.3681 84.2602 49.4685 84.2889 49.566 84.3043L50.0705 84.3839L50.1394 83.8779L58.9595 19.1001L61.9013 16.5319H68.8447H69.3447V16.0319V3.46126L72.306 0.5H83.9146L86.8759 3.46126V16.0319V16.5319H87.3759H90.3877L93.3319 19.1689L100.608 83.7683ZM98.7676 289.015H99.2676V288.515V252.139C99.2676 240.174 90.7366 230.319 80.117 230.319C69.4973 230.319 60.9664 240.174 60.9664 252.139V288.515V289.015H61.4664H98.7676ZM81.3718 6.5083V6.0083H80.8718H75.3573H74.8573V6.5083V16.0319V16.5319H75.3573H78.1167H80.8718H81.3718V16.0319V6.5083ZM49.0544 132.704V133.204H49.5544H100.081H100.641L100.578 132.648L99.9468 127.048L99.8968 126.604H99.4499H86.5741C85.9823 126.604 85.5724 126.38 85.3036 126.067C85.0257 125.743 84.8747 125.294 84.875 124.827C84.8752 124.359 85.0266 123.91 85.3047 123.586C85.5739 123.273 85.9836 123.049 86.5741 123.049H98.9339H99.4933L99.4307 122.493L95.2426 85.2941L95.1552 84.5178L94.4868 84.9223C94.2174 85.0853 93.9439 85.1912 93.5856 85.1912H82.8977C82.3058 85.1912 81.8959 84.9673 81.6271 84.6544C81.3493 84.331 81.1984 83.8829 81.1986 83.4161C81.1988 82.9493 81.3502 82.501 81.6282 82.1775C81.8973 81.8643 82.3071 81.6405 82.8977 81.6405H93.5856C93.7599 81.6405 93.9037 81.6857 94.1326 81.7575L94.1354 81.7584L94.8679 81.9882L94.782 81.2253L92.1547 57.9174L92.1047 57.4734H91.6579H79.5582C78.9663 57.4734 78.5564 57.2495 78.2876 56.9365C78.0098 56.6131 77.8589 56.1651 77.8591 55.6983C77.8594 55.2314 78.0107 54.7832 78.2887 54.4596C78.5578 54.1464 78.9676 53.9227 79.5582 53.9227H91.1461H91.7056L91.643 53.3667L88.167 22.4928L88.117 22.0488H87.6702H78.1124H72.0989H64.5542H64.1176L64.0587 22.4813L61.8111 38.9909L61.7339 39.5583H62.3066H70.5379C71.1298 39.5583 71.5397 39.7823 71.8085 40.0952C72.0863 40.4186 72.2372 40.8667 72.237 41.3335C72.2368 41.8003 72.0854 42.2486 71.8074 42.5721C71.5383 42.8853 71.1285 43.109 70.5379 43.109H61.6839H61.2474L61.1884 43.5416L58.2158 65.3696L58.1385 65.937H58.7112H73.212C73.804 65.937 74.2139 66.1609 74.4827 66.4739C74.7604 66.7972 74.9113 67.2453 74.9111 67.7121C74.9109 68.1789 74.7596 68.6272 74.4815 68.9508C74.2124 69.264 73.8027 69.4877 73.212 69.4877H58.0928H57.6563L57.5974 69.9202L51.3492 115.794L51.2719 116.361H51.8447H64.1959C64.7879 116.361 65.1978 116.585 65.4666 116.898C65.7443 117.222 65.8953 117.67 65.895 118.137C65.8948 118.603 65.7435 119.052 65.4654 119.375C65.1963 119.688 64.7866 119.912 64.1959 119.912H51.2262H50.7897L50.7308 120.345L49.0589 132.623L49.0544 132.657V132.691V132.704Z" stroke="white"/>
<path d="M226.213 198.276H225.713V198.776V260.119V260.619H226.213H249.687H250.187V260.119V198.776V198.276H249.687H226.213ZM198.452 198.276H197.952V198.776V260.123V260.623H198.452H221.662H222.162V260.123V198.776V198.276H221.662H198.452ZM253.742 262.189L251.757 264.17H196.381L194.397 262.189V196.706L196.382 194.721H251.757L253.742 196.706V262.189Z" stroke="white"/>
<path d="M235.899 202.848L235.899 202.848L235.9 202.85L244.178 213.201L244.179 213.202C244.793 213.965 244.67 215.079 243.902 215.697C243.572 215.961 243.184 216.087 242.795 216.087C242.275 216.087 241.756 215.857 241.408 215.418L241.407 215.417L233.128 205.066L233.128 205.066L233.128 205.065C232.514 204.302 232.637 203.188 233.405 202.57C234.178 201.953 235.295 202.086 235.899 202.848Z" stroke="white"/>
<path d="M235.899 215.346L235.9 215.347L244.178 225.698L244.179 225.699C244.793 226.462 244.67 227.576 243.902 228.194C243.572 228.457 243.184 228.583 242.795 228.583C242.275 228.583 241.756 228.353 241.408 227.914L241.407 227.913L233.128 217.562L233.128 217.562L233.128 217.561C232.514 216.798 232.637 215.685 233.404 215.067C234.179 214.453 235.292 214.583 235.899 215.346Z" stroke="white"/>
<path d="M225.845 153.744V153.744C225.848 154.726 225.053 155.525 224.075 155.529C224.075 155.529 224.074 155.529 224.074 155.529L224.067 155.529C223.088 155.529 222.293 154.74 222.29 153.758C222.29 153.758 222.29 153.758 222.29 153.758L222.158 113.241L222.158 113.241C222.154 112.256 222.949 111.461 223.927 111.457H223.935C224.914 111.457 225.709 112.249 225.713 113.227C225.713 113.227 225.713 113.227 225.713 113.227L225.845 153.744Z" stroke="white"/>
<path d="M242.632 124.809V153.751C242.632 154.737 241.837 155.529 240.854 155.529C239.877 155.529 239.081 154.737 239.081 153.751V124.809C239.081 123.823 239.877 123.032 240.854 123.032C241.837 123.032 242.632 123.824 242.632 124.809Z" stroke="white"/>
<path d="M257.324 133.493V153.751C257.324 154.737 256.53 155.529 255.547 155.529C254.569 155.529 253.774 154.737 253.774 153.751V133.493C253.774 132.511 254.569 131.719 255.547 131.719C256.53 131.719 257.324 132.512 257.324 133.493Z" stroke="white"/>
<path d="M272.913 143.622V153.751C272.913 154.737 272.118 155.529 271.135 155.529C270.158 155.529 269.362 154.737 269.362 153.751V143.622C269.362 142.639 270.158 141.844 271.135 141.844C272.117 141.844 272.913 142.64 272.913 143.622Z" stroke="white"/>
<path d="M210.129 124.809V153.751C210.129 154.737 209.334 155.529 208.351 155.529C207.373 155.529 206.578 154.737 206.578 153.751V124.809C206.578 123.823 207.373 123.032 208.351 123.032C209.334 123.032 210.129 123.824 210.129 124.809Z" stroke="white"/>
<path d="M195.436 133.493V153.751C195.436 154.737 194.641 155.529 193.658 155.529C192.68 155.529 191.885 154.737 191.885 153.751V133.493C191.885 132.511 192.68 131.719 193.658 131.719C194.641 131.719 195.436 132.512 195.436 133.493Z" stroke="white"/>
<path d="M179.852 143.622V153.751C179.852 154.737 179.057 155.529 178.074 155.529C177.096 155.529 176.301 154.737 176.301 153.751V143.622C176.301 142.639 177.097 141.844 178.074 141.844C179.056 141.844 179.852 142.64 179.852 143.622Z" stroke="white"/>
<path d="M72.2097 83.8434H68.5376C67.9457 83.8434 67.5361 83.6195 67.2677 83.3068C66.9903 82.9835 66.8397 82.5354 66.8401 82.0685C66.8405 81.6016 66.992 81.1532 67.27 80.8295C67.539 80.5163 67.9483 80.2927 68.5376 80.2927H72.2097C72.8017 80.2927 73.2116 80.5166 73.4804 80.8296C73.7581 81.1529 73.909 81.601 73.9088 82.0678C73.9086 82.5346 73.7573 82.9829 73.4792 83.3065C73.2101 83.6197 72.8004 83.8434 72.2097 83.8434Z" stroke="white"/>
<path d="M80.2272 38.8845H80.2279H83.5674C84.1593 38.8845 84.5692 39.1084 84.838 39.4214C85.1158 39.7447 85.2667 40.1928 85.2665 40.6596C85.2663 41.1264 85.1149 41.5747 84.8369 41.8983C84.5678 42.2115 84.158 42.4352 83.5674 42.4352H80.2279C79.6361 42.4352 79.2263 42.2112 78.9574 41.8979C78.6796 41.5742 78.5286 41.1257 78.5288 40.6585C78.529 40.1913 78.6804 39.743 78.9583 39.4197C79.2272 39.1069 79.6367 38.8837 80.2272 38.8845Z" stroke="white"/>
<path d="M74.5519 31.7428H74.5512H69.8768C69.2849 31.7428 68.875 31.5189 68.6062 31.206C68.3284 30.8826 68.1775 30.4345 68.1777 29.9677C68.178 29.5009 68.3293 29.0526 68.6073 28.729C68.8764 28.4159 69.2862 28.1921 69.8768 28.1921H74.5512C75.143 28.1921 75.5525 28.4162 75.821 28.7293C76.0985 29.0529 76.2492 29.5014 76.2487 29.9686C76.2483 30.4359 76.0968 30.8844 75.8189 31.2077C75.5501 31.5206 75.1411 31.7437 74.5519 31.7428Z" stroke="white"/>
<path d="M62.8617 100.204H62.861H58.8519C58.26 100.204 57.8501 99.9799 57.5813 99.6669C57.3035 99.3436 57.1526 98.8955 57.1528 98.4287C57.1531 97.9619 57.3044 97.5136 57.5824 97.19C57.8515 96.8768 58.2613 96.6531 58.8519 96.6531H62.861C63.4528 96.6531 63.8627 96.8771 64.1315 97.1904C64.4094 97.5141 64.5603 97.9626 64.5601 98.4298C64.5599 98.897 64.4085 99.3453 64.1306 99.6686C63.8617 99.9814 63.4522 100.205 62.8617 100.204Z" stroke="white"/>
<path d="M88.9113 107.552H71.2118C70.6199 107.552 70.21 107.328 69.9412 107.016C69.6634 106.692 69.5125 106.244 69.5127 105.777C69.5129 105.31 69.6643 104.862 69.9423 104.539C70.2114 104.225 70.6212 104.002 71.2118 104.002H88.9113C89.5033 104.002 89.9132 104.226 90.182 104.539C90.4597 104.862 90.6106 105.31 90.6104 105.777C90.6102 106.244 90.4589 106.692 90.1808 107.015C89.9117 107.329 89.502 107.552 88.9113 107.552Z" stroke="white"/>
<path d="M86.5741 97.5341H80.5606C79.9686 97.5341 79.5587 97.3102 79.2899 96.9973C79.0121 96.6739 78.8612 96.2258 78.8615 95.759C78.8617 95.2922 79.013 94.8439 79.2911 94.5203C79.5601 94.2071 79.9699 93.9834 80.5606 93.9834H86.5741C87.1661 93.9834 87.576 94.2073 87.8448 94.5202C88.1225 94.8436 88.2735 95.2917 88.2732 95.7585C88.273 96.2253 88.1217 96.6736 87.8436 96.9972C87.5745 97.3103 87.1648 97.5341 86.5741 97.5341Z" stroke="white"/>
<path d="M66.87 126.375H70.5421C71.1341 126.375 71.544 126.599 71.8128 126.912C72.0905 127.236 72.2415 127.684 72.2412 128.151C72.241 128.617 72.0897 129.066 71.8116 129.389C71.5425 129.702 71.1328 129.926 70.5421 129.926H66.87C66.2781 129.926 65.8682 129.702 65.5994 129.389C65.3216 129.066 65.1707 128.618 65.1709 128.151C65.1711 127.684 65.3225 127.236 65.6005 126.912C65.8696 126.599 66.2794 126.375 66.87 126.375Z" stroke="white"/>
<path d="M69.5406 58.1259H69.5399H66.5331C65.9412 58.1259 65.5312 57.902 65.2625 57.5891C64.9847 57.2657 64.8338 56.8176 64.834 56.3508C64.8342 55.884 64.9855 55.4357 65.2636 55.1121C65.5327 54.7989 65.9424 54.5752 66.5331 54.5752H69.5399C70.1317 54.5752 70.5415 54.7992 70.8104 55.1125C71.0883 55.4362 71.2392 55.8848 71.239 56.3519C71.2388 56.8191 71.0874 57.2674 70.8095 57.5907C70.5406 57.9035 70.1311 58.1267 69.5406 58.1259Z" stroke="white"/>
<path d="M83.8992 67.6047H83.8999H86.574C87.166 67.6047 87.5759 67.8286 87.8447 68.1416C88.1224 68.465 88.2734 68.913 88.2731 69.3799C88.2729 69.8467 88.1216 70.2949 87.8435 70.6185C87.5744 70.9317 87.1647 71.1554 86.574 71.1554H83.8999C83.3081 71.1554 82.8983 70.9314 82.6294 70.6181C82.3515 70.2944 82.2006 69.8459 82.2008 69.3787C82.201 68.9116 82.3524 68.4632 82.6303 68.1399C82.8992 67.8271 83.3087 67.6039 83.8992 67.6047Z" stroke="white"/>
<path d="M88.6336 267.681L88.6334 267.681C87.9927 267.041 87.7805 266.34 87.8297 265.688C87.88 265.023 88.2068 264.37 88.7094 263.868C89.212 263.365 89.8639 263.038 90.5298 262.987C91.182 262.938 91.8833 263.15 92.5241 263.79L92.8605 264.127L93.1937 264.46C93.8345 265.101 94.0465 265.802 93.997 266.454C93.9464 267.12 93.6191 267.772 93.116 268.275C92.613 268.777 91.9606 269.104 91.2941 269.154C90.642 269.204 89.941 268.992 89.3006 268.352C89.0775 268.125 88.8546 267.902 88.6336 267.681Z" stroke="white"/>
</svg>
