<svg width="38" height="37" viewBox="0 0 38 37" fill="none" xmlns="http://www.w3.org/2000/svg">
<path d="M0.625 4.5C0.625 2.29087 2.41586 0.5 4.625 0.5H28.1604C30.3695 0.5 32.1604 2.29086 32.1604 4.5V28.0354C32.1604 30.2445 30.3695 32.0354 28.1604 32.0354H4.625C2.41587 32.0354 0.625 30.2445 0.625 28.0354V4.5Z" fill="white"/>
<rect x="16.3926" y="22.2505" width="9.8548" height="19.7096" rx="2" transform="rotate(-45 16.3926 22.2505)" fill="white"/>
<path fill-rule="evenodd" clip-rule="evenodd" d="M24.2763 14.0756C24.2763 14.0756 24.2763 14.0756 24.2762 14.0756L17.7783 7.95382C17.0093 7.22927 15.8093 7.22797 15.0386 7.95083L8.50903 14.0756C8.50901 14.0756 8.50897 14.0756 8.50893 14.0756C8.50885 14.0756 8.50879 14.0757 8.50879 14.0757V14.0758V22.1576C8.50879 23.2622 9.40422 24.1576 10.5088 24.1576H22.2765C23.381 24.1576 24.2765 23.2622 24.2765 22.1576V14.0758V14.0757C24.2765 14.0757 24.2764 14.0756 24.2763 14.0756Z" fill="black"/>
</svg>
