<svg width="91" height="35" viewBox="0 0 91 35" fill="none" xmlns="http://www.w3.org/2000/svg">
<path d="M59.4932 7.19646C59.4932 9.40774 61.0261 10.8819 63.3254 10.8819C63.4415 10.8819 63.5557 10.8782 63.6678 10.8707C65.1027 10.7757 66.2012 10.0804 66.7564 8.98373C67.0168 8.46939 67.1576 7.8668 67.1576 7.19646C67.1576 7.19646 66.6749 3.57434 63.3254 3.57434C59.9759 3.57434 59.4932 7.19646 59.4932 7.19646Z" fill="rgb(15, 15, 15)"/>
<path d="M63.3254 29.3092H71.7563C71.9828 15.5894 69.5749 10.4083 66.7564 8.98373C66.2012 10.0804 65.1027 10.7757 63.6678 10.8707L63.3254 29.3092Z" fill="rgb(15, 15, 15)"/>
<path d="M66.7564 8.98373C67.0168 8.46939 67.1576 7.8668 67.1576 7.19646C67.1576 7.19646 66.6749 3.57434 63.3254 3.57434C59.9759 3.57434 59.4932 7.19646 59.4932 7.19646C59.4932 9.40774 61.0261 10.8819 63.3254 10.8819C63.4415 10.8819 63.5557 10.8782 63.6678 10.8707M66.7564 8.98373C69.5749 10.4083 71.9828 15.5894 71.7563 29.3092H63.3254L63.6678 10.8707M66.7564 8.98373C66.2012 10.0804 65.1027 10.7757 63.6678 10.8707" stroke="white"/>
<path d="M56.6142 10.2674L63.0446 7.07986L69.4751 3.89227C69.3787 3.83066 69.2597 3.79109 69.1216 3.8077L61.5272 3.15576C61.1698 3.12508 60.9205 3.36991 60.8405 3.49616L56.7609 9.93492C56.6641 10.0348 56.6235 10.1534 56.6142 10.2674Z" fill="rgb(15, 15, 15)"/>
<path d="M63.0446 7.07986L56.6142 10.2674C56.6017 10.42 56.6452 10.5643 56.6846 10.6439L57.1757 11.6345L60.2658 10.1026L67.1329 6.69862L70.2231 5.16687L69.732 4.17625C69.6926 4.09668 69.6041 3.97473 69.4751 3.89227L63.0446 7.07986Z" fill="rgb(15, 15, 15)"/>
<path d="M56.6142 10.2674C59.1618 9.00457 63.0446 7.07986 63.0446 7.07986M56.6142 10.2674C56.6017 10.42 56.6452 10.5643 56.6846 10.6439L57.1757 11.6345M56.6142 10.2674C56.6235 10.1534 56.6641 10.0348 56.7609 9.93492L60.8405 3.49616C60.9205 3.36991 61.1698 3.12508 61.5272 3.15576L69.1216 3.8077C69.2597 3.79109 69.3787 3.83066 69.4751 3.89227M56.6142 10.2674L63.0446 7.07986M69.4751 3.89227L63.0446 7.07986M69.4751 3.89227C69.6041 3.97473 69.6926 4.09668 69.732 4.17625L70.2231 5.16687M57.1757 11.6345L70.2231 5.16687M57.1757 11.6345L60.2658 10.1026L67.1329 6.69862L70.2231 5.16687" stroke="white"/>
<path d="M1 21.1798C1.35743 22.8754 3.28767 28.9517 8.14859 34.3132L10.774 34.3132C7.274 30 4.65579 25.0478 4 23.5L3.51039 22.1527L3.28767 21.554L1 21.1798Z" fill="rgb(15, 15, 15)"/>
<path d="M81.8336 34.3132C84.3578 32.2927 89.5249 26.7475 90 20.7308L88.1069 21.1798L88 22L87.5 23.5C86.5 25.5 83.5 31 79.1672 34.3132L81.8336 34.3132Z" fill="rgb(15, 15, 15)"/>
<path d="M10.774 34.3132L39.1085 34.3132L79.1672 34.3132C83.5 31 86.5 25.5 87.5 23.5C58.0639 31.6569 21.3721 28.6261 4 23.5C4.65579 25.0478 7.274 30 10.774 34.3132Z" fill="rgb(15, 15, 15)"/>
<path d="M10.774 34.3132L39.1085 34.3132L79.1672 34.3132M10.774 34.3132L8.14859 34.3132C3.28767 28.9517 1.35743 22.8754 1 21.1798L3.28767 21.554L3.51039 22.1527M10.774 34.3132C7.274 30 4.65579 25.0478 4 23.5M88 22L88.1069 21.1798L90 20.7308C89.5249 26.7475 84.3578 32.2927 81.8336 34.3132L79.1672 34.3132M88 22L87.5 23.5M88 22C84.2744 22.9777 78.5502 24.2187 71.7711 25.0889M3.51039 22.1527L4 23.5M3.51039 22.1527C25.1965 27.1735 46.6884 27.3806 63.1928 25.9956M4 23.5C21.3721 28.6261 58.0639 31.6569 87.5 23.5M87.5 23.5C86.5 25.5 83.5 31 79.1672 34.3132" stroke="white"/>
</svg>
