<svg width="127" height="48" viewBox="0 0 127 48" fill="none" xmlns="http://www.w3.org/2000/svg">
<path d="M78.1456 7.00483H88.1855H98.2255C98.143 6.86773 98.0184 6.7442 97.835 6.67922L88.7216 1.14383C88.2928 0.88334 87.8282 1.03529 87.6495 1.14383L78.5361 6.67922C78.3527 6.7442 78.2281 6.86773 78.1456 7.00483Z" fill="black"/>
<path d="M88.1855 7.00483H78.1456C78.0351 7.18833 78 7.39614 78 7.52038V9.06704L82.8247 9.06696H93.5464L98.3711 9.06704V7.52038C98.3711 7.39614 98.336 7.18833 98.2255 7.00483H88.1855Z" fill="black"/>
<path d="M82.8247 9.06696C82.8247 12.1603 84.9691 14.2225 88.1855 14.2225C88.348 14.2225 88.5077 14.2172 88.6645 14.2068C90.6717 14.0739 92.2084 13.1012 92.985 11.5671C93.3493 10.8476 93.5464 10.0047 93.5464 9.06696H82.8247Z" fill="black"/>
<path d="M88.1855 40H99.9793C100.296 20.8077 96.9277 13.56 92.985 11.5671C92.2084 13.1012 90.6717 14.0739 88.6645 14.2068L88.1855 40Z" fill="black"/>
<path d="M93.5464 9.06696C93.5464 10.0047 93.3493 10.8476 92.985 11.5671M93.5464 9.06696H82.8247M93.5464 9.06696L98.3711 9.06704M82.8247 9.06696C82.8247 12.1603 84.9691 14.2225 88.1855 14.2225C88.348 14.2225 88.5077 14.2172 88.6645 14.2068M82.8247 9.06696L78 9.06704M92.985 11.5671C96.9277 13.56 100.296 20.8077 99.9793 40H88.1855L88.6645 14.2068M92.985 11.5671C92.2084 13.1012 90.6717 14.0739 88.6645 14.2068M78.1456 7.00483C82.1233 7.00483 88.1855 7.00483 88.1855 7.00483M78.1456 7.00483C78.0351 7.18833 78 7.39614 78 7.52038V9.06704M78.1456 7.00483C78.2281 6.86773 78.3527 6.7442 78.5361 6.67922L87.6495 1.14383C87.8282 1.03529 88.2928 0.88334 88.7216 1.14383L97.835 6.67922C98.0184 6.7442 98.143 6.86773 98.2255 7.00483M78.1456 7.00483H88.1855M98.2255 7.00483H88.1855M98.2255 7.00483C98.336 7.18833 98.3711 7.39614 98.3711 7.52038V9.06704M78 9.06704H98.3711" stroke="white"/>
<path d="M123.89 30.4601C82.7128 41.8705 27.2554 37.6309 2.95394 30.4601L3.78476 32.8154C27.3073 41.0854 87.9573 44.1212 123.163 32.7107L123.89 30.4601Z" fill="black"/>
<path d="M1 28.6281C1.5 31 4.20017 39.5 11 47H12.5C7.76433 41.7052 4.70212 34.9807 3.78476 32.8154L2.95394 30.4601L4.51173 29.989L4.20017 29.1515L1 28.6281Z" fill="black"/>
<path d="M114.076 47C117.607 44.1736 124.835 36.4165 125.5 28L122.852 28.6281L122.384 29.989L123.89 30.4601L123.163 32.7107C121.848 35.8861 117.742 43.1895 111.843 47H114.076Z" fill="black"/>
<path d="M12.5 47H54.309H111.843C117.742 43.1895 121.848 35.8861 123.163 32.7107C87.9573 44.1212 27.3073 41.0854 3.78476 32.8154C4.70212 34.9807 7.76433 41.7052 12.5 47Z" fill="black"/>
<path d="M12.5 47H54.309H111.843M12.5 47H11C4.20017 39.5 1.5 31 1 28.6281L4.20017 29.1515L4.51173 29.989M12.5 47C7.76433 41.7052 4.70212 34.9807 3.78476 32.8154M122.384 29.989L122.852 28.6281L125.5 28C124.835 36.4165 117.607 44.1736 114.076 47H111.843M122.384 29.989L123.89 30.4601M122.384 29.989C117.173 31.3566 109.483 32.8791 100 34.0964M4.51173 29.989L2.95394 30.4601M4.51173 29.989C34.8479 37.0125 64.9124 37.3021 88 35.3647M2.95394 30.4601C27.2554 37.6309 82.7128 41.8705 123.89 30.4601M2.95394 30.4601L3.78476 32.8154M123.89 30.4601L123.163 32.7107M3.78476 32.8154C27.3073 41.0854 87.9573 44.1212 123.163 32.7107M123.163 32.7107C121.848 35.8861 117.742 43.1895 111.843 47" stroke="white"/>
</svg>
