<svg width="12" height="12" viewBox="0 0 12 12" fill="none" xmlns="http://www.w3.org/2000/svg">
<path fill-rule="evenodd" clip-rule="evenodd" d="M11.7754 1.35577C11.9212 1.20489 12.0018 1.00281 12 0.793049C11.9981 0.583291 11.914 0.382641 11.7657 0.234315C11.6174 0.0859883 11.4167 0.00185298 11.207 3.0242e-05C10.9972 -0.00179249 10.7951 0.0788433 10.6442 0.22457L6.00983 4.85897L1.37543 0.22457C1.22455 0.0788433 1.02247 -0.00179249 0.812709 3.0242e-05C0.602952 0.00185298 0.402302 0.0859883 0.253976 0.234315C0.105649 0.382641 0.0215139 0.583291 0.0196912 0.793049C0.0178684 1.00281 0.0985043 1.20489 0.244231 1.35577L4.87863 5.99017L0.244231 10.6246C0.167823 10.6984 0.106877 10.7866 0.0649495 10.8842C0.0230223 10.9818 0.000953259 11.0868 3.02056e-05 11.193C-0.000892847 11.2993 0.0193483 11.4046 0.0595731 11.5029C0.0997978 11.6012 0.1592 11.6906 0.234314 11.7657C0.309429 11.8408 0.39875 11.9002 0.497067 11.9404C0.595384 11.9807 0.700728 12.0009 0.806952 12C0.913175 11.999 1.01815 11.977 1.11575 11.935C1.21336 11.8931 1.30163 11.8322 1.37543 11.7558L6.00983 7.12137L10.6442 11.7558C10.7951 11.9015 10.9972 11.9821 11.207 11.9803C11.4167 11.9785 11.6174 11.8944 11.7657 11.746C11.914 11.5977 11.9981 11.397 12 11.1873C12.0018 10.9775 11.9212 10.7754 11.7754 10.6246L7.14103 5.99017L11.7754 1.35577Z" fill="white"/>
</svg>
