<svg width="21" height="22" viewBox="0 0 21 22" fill="none" xmlns="http://www.w3.org/2000/svg">
<mask id="path-1-inside-1_1802_26" fill="rgb(235, 235, 235)">
<path fill-rule="evenodd" clip-rule="evenodd" d="M12.4178 3.39622C12.3484 3.40521 12.2858 3.42873 12.2287 3.46587C12.2153 3.47478 12.142 3.52168 12.0437 3.58454C11.8967 3.67921 11.6884 3.81296 11.517 3.92278C11.4445 3.9695 11.3798 4.01126 11.328 4.04439C11.3159 4.0343 11.3034 4.02452 11.29 4.01346C11.1558 3.90489 10.9539 3.74204 10.7842 3.60498C10.6993 3.53666 10.6223 3.47436 10.5658 3.42889C10.5376 3.40615 10.5146 3.38742 10.498 3.3741C10.49 3.36756 10.4837 3.36218 10.4791 3.35843L10.4748 3.35529L10.4728 3.35353C10.432 3.31996 10.3878 3.29463 10.3396 3.27624C10.2772 3.25246 10.2066 3.24 10.131 3.24663C10.0559 3.25289 9.97628 3.2805 9.91202 3.32686C9.88232 3.34848 9.85788 3.36861 9.83082 3.39223C9.78093 3.4366 9.72465 3.49151 9.6591 3.55988C9.43159 3.79756 9.09302 4.19959 8.72527 4.73721C8.39458 5.22157 8.04226 5.81553 7.7345 6.4923C6.77043 6.48612 5.90018 6.5941 5.22543 6.72266C4.85838 6.79236 4.54885 6.86852 4.31183 6.9369C4.19311 6.97097 4.09266 7.00307 4.01019 7.03204C3.96852 7.04659 3.93201 7.06065 3.89839 7.07473C3.86448 7.08877 3.83468 7.10184 3.80206 7.11938C3.75614 7.14379 3.71433 7.17726 3.68156 7.2152C3.64855 7.25304 3.62443 7.29575 3.60832 7.33801C3.57292 7.43286 3.57302 7.52669 3.60229 7.61876C3.60387 7.62287 3.61088 7.64697 3.62182 7.68208C3.66053 7.80565 3.74542 8.07862 3.82078 8.32096C3.85856 8.44221 3.89409 8.55556 3.91988 8.63829L3.92093 8.64169C3.90772 8.6496 3.89439 8.65759 3.87982 8.66644C3.73571 8.75275 3.51889 8.88274 3.33634 8.99232C3.24495 9.04732 3.16232 9.0967 3.10163 9.13294C3.0711 9.15124 3.04652 9.16634 3.02874 9.17651C3.02003 9.1822 3.01286 9.18595 3.00824 9.18916L3.0042 9.19149L3.00166 9.19266C2.91876 9.24189 2.85669 9.31209 2.8197 9.40633C2.80335 9.4485 2.79332 9.49611 2.7926 9.54674C2.79155 9.59659 2.80087 9.65064 2.81909 9.69959C2.83163 9.73335 2.84483 9.76381 2.86088 9.7959C2.8902 9.85698 2.92862 9.92704 2.97785 10.0107C3.14889 10.302 3.45138 10.7518 3.87985 11.2745C4.26564 11.7445 4.75352 12.2715 5.33508 12.7842C5.06033 13.6667 4.92292 14.4994 4.86079 15.16C4.82687 15.5194 4.815 15.8278 4.81589 16.0678C4.81599 16.1876 4.81959 16.2908 4.82543 16.3763C4.82792 16.4192 4.83139 16.4575 4.83585 16.4931C4.84008 16.5287 4.84475 16.5604 4.85291 16.596C4.86983 16.6738 4.91092 16.7479 4.9632 16.8023C5.01532 16.8571 5.07591 16.8951 5.13807 16.9188C5.18629 16.9372 5.23681 16.9475 5.28914 16.9495C5.28914 16.9495 5.29882 16.9502 5.3074 16.9504C5.3836 16.9539 5.65436 16.9674 5.92135 16.9807L5.97982 16.9837C6.12241 16.9906 6.25957 16.9975 6.36134 17.0024C6.37059 17.0029 6.37885 17.0031 6.38677 17.0036C6.39088 17.0181 6.39508 17.0332 6.39951 17.0498C6.44494 17.2114 6.51254 17.4548 6.56941 17.6592C6.59802 17.762 6.62368 17.8546 6.64271 17.9227C6.65223 17.9568 6.6599 17.9847 6.6653 18.0042C6.66803 18.0142 6.67026 18.022 6.67155 18.0275L6.67305 18.0326L6.67377 18.0349C6.69187 18.1007 6.72314 18.16 6.76871 18.2128C6.81494 18.2659 6.87758 18.3137 6.95593 18.3436C7.00649 18.3634 7.06451 18.3745 7.12125 18.3747C7.15851 18.3745 7.19096 18.3723 7.22785 18.369C7.296 18.3625 7.37584 18.3515 7.47204 18.3353C7.80701 18.2783 8.33589 18.1555 8.97145 17.9416C9.54368 17.749 10.1999 17.4816 10.8678 17.1213C11.9081 17.8438 12.9275 18.3159 13.62 18.5799C13.8261 18.6585 14.0031 18.7185 14.1453 18.7622C14.217 18.7836 14.2797 18.801 14.335 18.8146C14.3911 18.828 14.4364 18.8383 14.4889 18.8448C14.5443 18.8519 14.6008 18.8485 14.6529 18.8359C14.7314 18.8175 14.7964 18.7794 14.8458 18.7343C14.8897 18.6941 14.9219 18.6474 14.9455 18.5951C14.9496 18.5862 14.9523 18.5807 14.9548 18.5741L14.9561 18.5706L14.9594 18.5619C14.9594 18.5619 14.9618 18.5549 14.9644 18.5474C14.9912 18.4737 15.0914 18.1979 15.1848 17.9406C15.2315 17.8126 15.2764 17.6885 15.3098 17.5969C15.3128 17.589 15.3152 17.5815 15.318 17.5741C15.3334 17.5755 15.3497 17.5767 15.3671 17.5778C15.539 17.5915 15.7979 17.6113 16.0155 17.6289C16.1242 17.6374 16.2231 17.6451 16.2955 17.6508C16.3316 17.6536 16.3611 17.6558 16.3824 17.6575C16.3928 17.6584 16.4009 17.659 16.4071 17.6594L16.4137 17.6599C16.504 17.6679 16.5883 17.6521 16.67 17.6094C16.7108 17.5875 16.7501 17.5586 16.7845 17.5213C16.8185 17.4843 16.8467 17.4391 16.8655 17.3899C16.8688 17.3812 16.8709 17.3745 16.8723 17.37L16.8742 17.3643C16.8846 17.3303 16.8916 17.3001 16.8986 17.2653C16.9114 17.2008 16.9228 17.1243 16.9337 17.0306C16.9714 16.7051 16.9987 16.1804 16.9663 15.5262C16.9364 14.9367 16.8559 14.2447 16.687 13.5084C17.4522 12.9661 18.071 12.3824 18.5214 11.8928C18.7666 11.6259 18.9623 11.387 19.1064 11.1959C19.1783 11.1 19.2372 11.0162 19.2841 10.9452C19.3076 10.9097 19.3277 10.8775 19.3457 10.8469C19.3635 10.8168 19.3785 10.789 19.3932 10.7572C19.3986 10.7458 19.402 10.7371 19.404 10.7319C19.4226 10.683 19.4315 10.63 19.4308 10.5799C19.4293 10.5039 19.408 10.4349 19.3761 10.3773C19.3438 10.3191 19.3014 10.2705 19.2473 10.2304L19.2454 10.2287C19.231 10.2177 19.1615 10.1652 19.0675 10.094C18.9246 9.98507 18.7221 9.83103 18.5555 9.70457C18.4851 9.65079 18.4223 9.6029 18.3717 9.56463C18.3775 9.55087 18.383 9.53648 18.3894 9.52097C18.4505 9.36757 18.5428 9.13667 18.6202 8.94258C18.6592 8.84517 18.6941 8.75763 18.72 8.69311C18.7331 8.6607 18.7437 8.63428 18.7509 8.61554C18.7548 8.60607 18.7578 8.59873 18.7596 8.59395L18.7619 8.58879L18.7665 8.57661C18.7975 8.49405 18.8035 8.40753 18.7791 8.31584C18.7669 8.27027 18.746 8.22336 18.7155 8.17979C18.685 8.13623 18.645 8.09552 18.5992 8.06409C18.5556 8.03446 18.5149 8.01199 18.4643 7.9847C18.3889 7.945 18.2948 7.89958 18.1799 7.8488C18.0646 7.79838 17.929 7.74217 17.7748 7.68337C17.0818 7.41968 16.0067 7.09315 14.749 6.94004C14.4278 6.05289 14.0245 5.28468 13.6666 4.70248C13.4717 4.3851 13.2904 4.12333 13.1418 3.9249C13.0672 3.82611 13.0014 3.7426 12.9443 3.67541C12.9155 3.64195 12.8892 3.61198 12.8644 3.58506C12.839 3.5584 12.8163 3.53479 12.7888 3.5103C12.7464 3.47266 12.6958 3.44242 12.6446 3.4229C12.5661 3.39289 12.4873 3.38679 12.4178 3.39622Z"/>
</mask>
<path fill-rule="evenodd" clip-rule="evenodd" d="M12.4178 3.39622C12.3484 3.40521 12.2858 3.42873 12.2287 3.46587C12.2153 3.47478 12.142 3.52168 12.0437 3.58454C11.8967 3.67921 11.6884 3.81296 11.517 3.92278C11.4445 3.9695 11.3798 4.01126 11.328 4.04439C11.3159 4.0343 11.3034 4.02452 11.29 4.01346C11.1558 3.90489 10.9539 3.74204 10.7842 3.60498C10.6993 3.53666 10.6223 3.47436 10.5658 3.42889C10.5376 3.40615 10.5146 3.38742 10.498 3.3741C10.49 3.36756 10.4837 3.36218 10.4791 3.35843L10.4748 3.35529L10.4728 3.35353C10.432 3.31996 10.3878 3.29463 10.3396 3.27624C10.2772 3.25246 10.2066 3.24 10.131 3.24663C10.0559 3.25289 9.97628 3.2805 9.91202 3.32686C9.88232 3.34848 9.85788 3.36861 9.83082 3.39223C9.78093 3.4366 9.72465 3.49151 9.6591 3.55988C9.43159 3.79756 9.09302 4.19959 8.72527 4.73721C8.39458 5.22157 8.04226 5.81553 7.7345 6.4923C6.77043 6.48612 5.90018 6.5941 5.22543 6.72266C4.85838 6.79236 4.54885 6.86852 4.31183 6.9369C4.19311 6.97097 4.09266 7.00307 4.01019 7.03204C3.96852 7.04659 3.93201 7.06065 3.89839 7.07473C3.86448 7.08877 3.83468 7.10184 3.80206 7.11938C3.75614 7.14379 3.71433 7.17726 3.68156 7.2152C3.64855 7.25304 3.62443 7.29575 3.60832 7.33801C3.57292 7.43286 3.57302 7.52669 3.60229 7.61876C3.60387 7.62287 3.61088 7.64697 3.62182 7.68208C3.66053 7.80565 3.74542 8.07862 3.82078 8.32096C3.85856 8.44221 3.89409 8.55556 3.91988 8.63829L3.92093 8.64169C3.90772 8.6496 3.89439 8.65759 3.87982 8.66644C3.73571 8.75275 3.51889 8.88274 3.33634 8.99232C3.24495 9.04732 3.16232 9.0967 3.10163 9.13294C3.0711 9.15124 3.04652 9.16634 3.02874 9.17651C3.02003 9.1822 3.01286 9.18595 3.00824 9.18916L3.0042 9.19149L3.00166 9.19266C2.91876 9.24189 2.85669 9.31209 2.8197 9.40633C2.80335 9.4485 2.79332 9.49611 2.7926 9.54674C2.79155 9.59659 2.80087 9.65064 2.81909 9.69959C2.83163 9.73335 2.84483 9.76381 2.86088 9.7959C2.8902 9.85698 2.92862 9.92704 2.97785 10.0107C3.14889 10.302 3.45138 10.7518 3.87985 11.2745C4.26564 11.7445 4.75352 12.2715 5.33508 12.7842C5.06033 13.6667 4.92292 14.4994 4.86079 15.16C4.82687 15.5194 4.815 15.8278 4.81589 16.0678C4.81599 16.1876 4.81959 16.2908 4.82543 16.3763C4.82792 16.4192 4.83139 16.4575 4.83585 16.4931C4.84008 16.5287 4.84475 16.5604 4.85291 16.596C4.86983 16.6738 4.91092 16.7479 4.9632 16.8023C5.01532 16.8571 5.07591 16.8951 5.13807 16.9188C5.18629 16.9372 5.23681 16.9475 5.28914 16.9495C5.28914 16.9495 5.29882 16.9502 5.3074 16.9504C5.3836 16.9539 5.65436 16.9674 5.92135 16.9807L5.97982 16.9837C6.12241 16.9906 6.25957 16.9975 6.36134 17.0024C6.37059 17.0029 6.37885 17.0031 6.38677 17.0036C6.39088 17.0181 6.39508 17.0332 6.39951 17.0498C6.44494 17.2114 6.51254 17.4548 6.56941 17.6592C6.59802 17.762 6.62368 17.8546 6.64271 17.9227C6.65223 17.9568 6.6599 17.9847 6.6653 18.0042C6.66803 18.0142 6.67026 18.022 6.67155 18.0275L6.67305 18.0326L6.67377 18.0349C6.69187 18.1007 6.72314 18.16 6.76871 18.2128C6.81494 18.2659 6.87758 18.3137 6.95593 18.3436C7.00649 18.3634 7.06451 18.3745 7.12125 18.3747C7.15851 18.3745 7.19096 18.3723 7.22785 18.369C7.296 18.3625 7.37584 18.3515 7.47204 18.3353C7.80701 18.2783 8.33589 18.1555 8.97145 17.9416C9.54368 17.749 10.1999 17.4816 10.8678 17.1213C11.9081 17.8438 12.9275 18.3159 13.62 18.5799C13.8261 18.6585 14.0031 18.7185 14.1453 18.7622C14.217 18.7836 14.2797 18.801 14.335 18.8146C14.3911 18.828 14.4364 18.8383 14.4889 18.8448C14.5443 18.8519 14.6008 18.8485 14.6529 18.8359C14.7314 18.8175 14.7964 18.7794 14.8458 18.7343C14.8897 18.6941 14.9219 18.6474 14.9455 18.5951C14.9496 18.5862 14.9523 18.5807 14.9548 18.5741L14.9561 18.5706L14.9594 18.5619C14.9594 18.5619 14.9618 18.5549 14.9644 18.5474C14.9912 18.4737 15.0914 18.1979 15.1848 17.9406C15.2315 17.8126 15.2764 17.6885 15.3098 17.5969C15.3128 17.589 15.3152 17.5815 15.318 17.5741C15.3334 17.5755 15.3497 17.5767 15.3671 17.5778C15.539 17.5915 15.7979 17.6113 16.0155 17.6289C16.1242 17.6374 16.2231 17.6451 16.2955 17.6508C16.3316 17.6536 16.3611 17.6558 16.3824 17.6575C16.3928 17.6584 16.4009 17.659 16.4071 17.6594L16.4137 17.6599C16.504 17.6679 16.5883 17.6521 16.67 17.6094C16.7108 17.5875 16.7501 17.5586 16.7845 17.5213C16.8185 17.4843 16.8467 17.4391 16.8655 17.3899C16.8688 17.3812 16.8709 17.3745 16.8723 17.37L16.8742 17.3643C16.8846 17.3303 16.8916 17.3001 16.8986 17.2653C16.9114 17.2008 16.9228 17.1243 16.9337 17.0306C16.9714 16.7051 16.9987 16.1804 16.9663 15.5262C16.9364 14.9367 16.8559 14.2447 16.687 13.5084C17.4522 12.9661 18.071 12.3824 18.5214 11.8928C18.7666 11.6259 18.9623 11.387 19.1064 11.1959C19.1783 11.1 19.2372 11.0162 19.2841 10.9452C19.3076 10.9097 19.3277 10.8775 19.3457 10.8469C19.3635 10.8168 19.3785 10.789 19.3932 10.7572C19.3986 10.7458 19.402 10.7371 19.404 10.7319C19.4226 10.683 19.4315 10.63 19.4308 10.5799C19.4293 10.5039 19.408 10.4349 19.3761 10.3773C19.3438 10.3191 19.3014 10.2705 19.2473 10.2304L19.2454 10.2287C19.231 10.2177 19.1615 10.1652 19.0675 10.094C18.9246 9.98507 18.7221 9.83103 18.5555 9.70457C18.4851 9.65079 18.4223 9.6029 18.3717 9.56463C18.3775 9.55087 18.383 9.53648 18.3894 9.52097C18.4505 9.36757 18.5428 9.13667 18.6202 8.94258C18.6592 8.84517 18.6941 8.75763 18.72 8.69311C18.7331 8.6607 18.7437 8.63428 18.7509 8.61554C18.7548 8.60607 18.7578 8.59873 18.7596 8.59395L18.7619 8.58879L18.7665 8.57661C18.7975 8.49405 18.8035 8.40753 18.7791 8.31584C18.7669 8.27027 18.746 8.22336 18.7155 8.17979C18.685 8.13623 18.645 8.09552 18.5992 8.06409C18.5556 8.03446 18.5149 8.01199 18.4643 7.9847C18.3889 7.945 18.2948 7.89958 18.1799 7.8488C18.0646 7.79838 17.929 7.74217 17.7748 7.68337C17.0818 7.41968 16.0067 7.09315 14.749 6.94004C14.4278 6.05289 14.0245 5.28468 13.6666 4.70248C13.4717 4.3851 13.2904 4.12333 13.1418 3.9249C13.0672 3.82611 13.0014 3.7426 12.9443 3.67541C12.9155 3.64195 12.8892 3.61198 12.8644 3.58506C12.839 3.5584 12.8163 3.53479 12.7888 3.5103C12.7464 3.47266 12.6958 3.44242 12.6446 3.4229C12.5661 3.39289 12.4873 3.38679 12.4178 3.39622Z" fill="rgb(15, 15, 15)"/>
<path d="M19.2291 8.76692C19.2291 8.7669 19.2291 8.76689 19.2291 8.76687C19.2291 8.76686 19.2291 8.76684 19.2291 8.76683C19.2291 8.76681 19.2291 8.7668 19.2291 8.76678C19.2291 8.76677 19.2291 8.76675 19.2291 8.76674C19.2291 8.76672 19.2291 8.76671 19.2291 8.76669C19.2292 8.76668 19.2292 8.76666 19.2292 8.76665C19.2292 8.76663 19.2292 8.76662 19.2292 8.7666C19.2292 8.76659 19.2292 8.76657 19.2292 8.76656C19.2292 8.76654 19.2292 8.76653 19.2292 8.76651C19.2292 8.7665 19.2292 8.76648 19.2292 8.76647C19.2292 8.76645 19.2292 8.76644 19.2293 8.76642C19.2293 8.76641 19.2293 8.7664 19.2293 8.76638C19.2293 8.76637 19.2293 8.76635 19.2293 8.76634C19.2293 8.76632 19.2293 8.76631 19.2293 8.76629C19.2293 8.76628 19.2293 8.76626 19.2293 8.76625C19.2293 8.76623 19.2293 8.76622 19.2293 8.7662C19.2293 8.76619 19.2293 8.76617 19.2294 8.76616C19.2294 8.76615 19.2294 8.76613 19.2294 8.76612C19.2294 8.7661 19.2294 8.76609 19.2294 8.76607C19.2294 8.76606 19.2294 8.76604 19.2294 8.76603C19.2294 8.76601 19.2294 8.766 19.2294 8.76598C19.2294 8.76597 19.2294 8.76596 19.2294 8.76594C19.2294 8.76593 19.2294 8.76591 19.2295 8.7659C19.2295 8.76588 19.2295 8.76587 19.2295 8.76585C19.2295 8.76584 19.2295 8.76582 19.2295 8.76581C19.2295 8.7658 19.2295 8.76578 19.2295 8.76577C19.2295 8.76575 19.2295 8.76574 19.2295 8.76572C19.2295 8.76571 19.2295 8.76569 19.2295 8.76568C19.2295 8.76567 19.2295 8.76565 19.2296 8.76564C19.2296 8.76562 19.2296 8.76561 19.2296 8.76559C19.2296 8.76558 19.2296 8.76557 19.2296 8.76555C19.2296 8.76554 19.2296 8.76552 19.2296 8.76551C19.2296 8.76549 19.2296 8.76548 19.2296 8.76547C19.2296 8.76545 19.2296 8.76544 19.2296 8.76542C19.2296 8.76541 19.2296 8.76539 19.2296 8.76538C19.2297 8.76537 19.2297 8.76535 19.2297 8.76534C19.2297 8.76532 19.2297 8.76531 19.2297 8.7653C19.2297 8.76528 19.2297 8.76527 19.2297 8.76525C19.2297 8.76524 19.2297 8.76522 19.2297 8.76521C19.2297 8.7652 19.2297 8.76518 19.2297 8.76517C19.2297 8.76515 19.2297 8.76514 19.2297 8.76513C19.2298 8.76511 19.2298 8.7651 19.2298 8.76508C19.2298 8.76507 19.2298 8.76506 19.2298 8.76504C19.2298 8.76503 19.2298 8.76501 19.2298 8.765C19.2298 8.76499 19.2298 8.76497 19.2298 8.76496C19.2298 8.76494 19.2298 8.76493 19.2298 8.76492C19.2298 8.7649 19.2298 8.76489 19.2298 8.76487C19.2298 8.76486 19.2299 8.76485 19.2299 8.76483C19.2299 8.76482 19.2299 8.76481 19.2299 8.76479C19.2299 8.76478 19.2299 8.76476 19.2299 8.76475C19.2299 8.76474 19.2299 8.76472 19.2299 8.76471C19.2299 8.76469 19.2299 8.76468 19.2299 8.76467C19.2299 8.76465 19.2299 8.76464 19.2299 8.76463C19.2299 8.76461 19.2299 8.7646 19.23 8.76458C19.23 8.76457 19.23 8.76456 19.23 8.76454C19.23 8.76453 19.23 8.76452 19.23 8.7645C19.23 8.76449 19.23 8.76448 19.23 8.76446C19.23 8.76445 19.23 8.76443 19.23 8.76442C19.23 8.76441 19.23 8.76439 19.23 8.76438C19.23 8.76437 19.23 8.76435 19.23 8.76434C19.2301 8.76433 19.2301 8.76431 19.2301 8.7643C19.2301 8.76429 19.2301 8.76427 19.2301 8.76426C19.2301 8.76424 19.2301 8.76423 19.2301 8.76422C19.2301 8.7642 19.2301 8.76419 19.2301 8.76418C19.2301 8.76416 19.2301 8.76415 19.2301 8.76414C19.2301 8.76412 19.2301 8.76411 19.2301 8.7641C19.2301 8.76408 19.2301 8.76407 19.2302 8.76406C19.2302 8.76404 19.2302 8.76403 19.2302 8.76402C19.2302 8.764 19.2302 8.76399 19.2302 8.76398C19.2302 8.76396 19.2302 8.76395 19.2302 8.76394C19.2302 8.76392 19.2302 8.76391 19.2302 8.7639C19.2302 8.76388 19.2302 8.76387 19.2302 8.76386C19.2302 8.76384 19.2302 8.76383 19.2302 8.76382C19.2302 8.7638 19.2303 8.76379 19.2303 8.76378C19.2303 8.76376 19.2303 8.76375 19.2303 8.76374C19.2303 8.76373 19.2303 8.76371 19.2303 8.7637C19.2303 8.76369 19.2303 8.76367 19.2303 8.76366C19.2303 8.76365 19.2303 8.76363 19.2303 8.76362C19.2303 8.76361 19.2303 8.76359 19.2303 8.76358C19.2303 8.76357 19.2303 8.76355 19.2303 8.76354C19.2304 8.76353 19.2304 8.76352 19.2304 8.7635C19.2304 8.76349 19.2304 8.76348 19.2304 8.76346C19.2304 8.76345 19.2304 8.76344 19.2304 8.76342C19.2304 8.76341 19.2304 8.7634 19.2304 8.76339C19.2304 8.76337 19.2304 8.76336 19.2304 8.76335C19.2304 8.76333 19.2304 8.76332 19.2304 8.76331C19.2304 8.7633 19.2304 8.76328 19.2305 8.76327C19.2305 8.76326 19.2305 8.76324 19.2305 8.76323C19.2305 8.76322 19.2305 8.76321 19.2305 8.76319C19.2305 8.76318 19.2305 8.76317 19.2305 8.76315C19.2305 8.76314 19.2305 8.76313 19.2305 8.76312C19.2305 8.7631 19.2305 8.76309 19.2305 8.76308C19.2305 8.76307 19.2305 8.76305 19.2305 8.76304C19.2305 8.76303 19.2306 8.76301 19.2306 8.763C19.2306 8.76299 19.2306 8.76298 19.2306 8.76296C19.2306 8.76295 19.2306 8.76294 19.2306 8.76293C19.2306 8.76291 19.2306 8.7629 19.2306 8.76289C19.2306 8.76288 19.2306 8.76286 19.2306 8.76285C19.2306 8.76284 19.2306 8.76283 19.2306 8.76281C19.2306 8.7628 19.2306 8.76279 19.2306 8.76278C19.2306 8.76276 19.2307 8.76275 19.2307 8.76274C19.2307 8.76273 19.2307 8.76271 19.2307 8.7627C19.2307 8.76269 19.2307 8.76268 19.2307 8.76266C19.2307 8.76265 19.2307 8.76264 19.2307 8.76263C19.2307 8.76261 19.2307 8.7626 19.2307 8.76259C19.2307 8.76258 19.2307 8.76256 19.2307 8.76255C19.2307 8.76254 19.2307 8.76253 19.2307 8.76251C19.2307 8.7625 19.2308 8.76249 19.2308 8.76248C19.2308 8.76247 19.2308 8.76245 19.2308 8.76244C19.2308 8.76243 19.2308 8.76242 19.2308 8.7624C19.2308 8.76239 19.2308 8.76238 19.2308 8.76237C19.2308 8.76236 19.2308 8.76234 19.2308 8.76233C19.2308 8.76232 19.2308 8.76231 19.2308 8.76229C19.2308 8.76228 19.2308 8.76227 19.2308 8.76226C19.2308 8.76225 19.2308 8.76223 19.2309 8.76222C19.2309 8.76221 19.2309 8.7622 19.2309 8.76219C19.2309 8.76217 19.2309 8.76216 19.2309 8.76215C19.2309 8.76214 19.2309 8.76213 19.2309 8.76211C19.2309 8.7621 19.2309 8.76209 19.2309 8.76208C19.2309 8.76207 19.2309 8.76205 19.2309 8.76204C19.2309 8.76203 19.2309 8.76202 19.2309 8.76201C19.2309 8.76199 19.2309 8.76198 19.2309 8.76197C19.231 8.76196 19.231 8.76195 19.231 8.76193C19.231 8.76192 19.231 8.76191 19.231 8.7619C19.231 8.76189 19.231 8.76187 19.231 8.76186C19.231 8.76185 19.231 8.76184 19.231 8.76183C19.231 8.76182 19.231 8.7618 19.231 8.76179C19.231 8.76178 19.231 8.76177 19.231 8.76176C19.231 8.76174 19.231 8.76173 19.231 8.76172C19.231 8.76171 19.2311 8.7617 19.2311 8.76169C19.2311 8.76167 19.2311 8.76166 19.2311 8.76165C19.2311 8.76164 19.2311 8.76163 19.2311 8.76162C19.2311 8.7616 19.2311 8.76159 19.2311 8.76158C19.2311 8.76157 19.2311 8.76156 19.2311 8.76155C19.2311 8.76154 19.2311 8.76152 19.2311 8.76151C19.2311 8.7615 19.2311 8.76149 19.2311 8.76148C19.2311 8.76147 19.2311 8.76145 19.2312 8.76144C19.2312 8.76143 19.2312 8.76142 19.2312 8.76141C19.2312 8.7614 19.2312 8.76139 19.2312 8.76137C19.2312 8.76136 19.2312 8.76135 19.2312 8.76134C19.2312 8.76133 19.2312 8.76132 19.2312 8.76131C19.2312 8.76129 19.2312 8.76128 19.2312 8.76127C19.2312 8.76126 19.2312 8.76125 19.2312 8.76124C19.2312 8.76123 19.2312 8.76121 19.2312 8.7612C19.2312 8.76119 19.2313 8.76118 19.2313 8.76117C19.2313 8.76116 19.2313 8.76115 19.2313 8.76114C19.2313 8.76112 19.2313 8.76111 19.2313 8.7611C19.2313 8.76109 19.2313 8.76108 19.2313 8.76107C19.2313 8.76106 19.2313 8.76105 19.2313 8.76103C19.2313 8.76102 19.2313 8.76101 19.2313 8.761C19.2313 8.76099 19.2313 8.76098 19.2313 8.76097C19.2313 8.76096 19.2313 8.76095 19.2313 8.76093C19.2313 8.76092 19.2314 8.76091 19.2314 8.7609C19.2314 8.76089 19.2314 8.76088 19.2314 8.76087C19.2314 8.76086 19.2314 8.76085 19.2314 8.76083C19.2314 8.76082 19.2314 8.76081 19.2314 8.7608C19.2314 8.76079 19.2314 8.76078 19.2314 8.76077C19.2314 8.76076 19.2314 8.76075 19.2314 8.76074C19.2314 8.76073 19.2314 8.76071 19.2314 8.7607C19.2314 8.76069 19.2314 8.76068 19.2314 8.76067C19.2314 8.76066 19.2315 8.76065 19.2315 8.76064C19.2315 8.76063 19.2315 8.76062 19.2315 8.76061C19.2315 8.76059 19.2315 8.76058 19.2315 8.76057C19.2315 8.76056 19.2315 8.76055 19.2315 8.76054C19.2315 8.76053 19.2315 8.76052 19.2315 8.76051C19.2315 8.7605 19.2315 8.76049 19.2315 8.76048C19.2315 8.76047 19.2315 8.76046 19.2315 8.76044C19.2315 8.76043 19.2315 8.76042 19.2315 8.76041C19.2315 8.7604 19.2316 8.76039 19.2316 8.76038C19.2316 8.76037 19.2316 8.76036 19.2316 8.76035C19.2316 8.76034 19.2316 8.76033 19.2316 8.76032C19.2316 8.76031 19.2316 8.7603 19.2316 8.76029C19.2316 8.76027 19.2316 8.76026 19.2316 8.76025C19.2316 8.76024 19.2316 8.76023 19.2316 8.76022C19.2316 8.76021 19.2316 8.7602 19.2316 8.76019C19.2316 8.76018 19.2316 8.76017 19.2316 8.76016C19.2316 8.76015 19.2316 8.76014 19.2317 8.76013C19.2317 8.76012 19.2317 8.76011 19.2317 8.7601C19.2317 8.76009 19.2317 8.76008 19.2317 8.76007C19.2317 8.76006 19.2317 8.76005 19.2317 8.76004C19.2317 8.76002 19.2317 8.76001 19.2317 8.76C19.2317 8.75999 19.2317 8.75998 19.2317 8.75997C19.2317 8.75996 19.2317 8.75995 19.2317 8.75994C19.2317 8.75993 19.2317 8.75992 19.2317 8.75991C19.2317 8.7599 19.2317 8.75989 19.2317 8.75988C19.2317 8.75987 19.2318 8.75986 19.2318 8.75985C19.2318 8.75984 19.2318 8.75983 19.2318 8.75982C19.2318 8.75981 19.2318 8.7598 19.2318 8.75979C19.2318 8.75978 19.2318 8.75977 19.2318 8.75976C19.2318 8.75975 19.2318 8.75974 19.2318 8.75973C19.2318 8.75972 19.2318 8.75971 19.2318 8.7597C19.2318 8.75969 19.2318 8.75968 19.2318 8.75967C19.2318 8.75966 19.2318 8.75965 19.2318 8.75964C19.2318 8.75963 19.2318 8.75962 19.2318 8.75961C19.2319 8.7596 19.2319 8.75959 19.2319 8.75958C19.2319 8.75957 19.2319 8.75956 19.2319 8.75955C19.2319 8.75954 19.2319 8.75953 19.2319 8.75952C19.2319 8.75951 19.2319 8.7595 19.2319 8.75949C19.2319 8.75948 19.2319 8.75947 19.2319 8.75946C19.2319 8.75945 19.2319 8.75944 19.2319 8.75943C19.2319 8.75942 19.2319 8.75941 19.2319 8.7594C19.2319 8.75939 19.2319 8.75938 19.2319 8.75937C19.2319 8.75937 19.2319 8.75936 19.2319 8.75935C19.232 8.75934 19.232 8.75933 19.232 8.75932C19.232 8.75931 19.232 8.7593 19.232 8.75929C19.232 8.75928 19.232 8.75927 19.232 8.75926C19.232 8.75925 19.232 8.75924 19.232 8.75923C19.232 8.75922 19.232 8.75921 19.232 8.7592C19.232 8.75919 19.232 8.75918 19.232 8.75917C19.232 8.75916 19.232 8.75915 19.232 8.75915C19.232 8.75914 19.232 8.75913 19.232 8.75912C19.232 8.75911 19.232 8.7591 19.232 8.75909C19.2321 8.75908 19.2321 8.75907 19.2321 8.75906C19.2321 8.75905 19.2321 8.75904 19.2321 8.75903C19.2321 8.75902 19.2321 8.75901 19.2321 8.759C19.2321 8.75899 19.2321 8.75899 19.2321 8.75898C19.2321 8.75897 19.2321 8.75896 19.2321 8.75895C19.2321 8.75894 19.2321 8.75893 19.2321 8.75892C19.2321 8.75891 19.2321 8.7589 19.2321 8.75889C19.2321 8.75888 19.2321 8.75887 19.2321 8.75887C19.2321 8.75886 19.2321 8.75885 19.2321 8.75884C19.2321 8.75883 19.2322 8.75882 19.2322 8.75881C19.2322 8.7588 19.2322 8.75879 19.2322 8.75878C19.2322 8.75877 19.2322 8.75877 19.2322 8.75876C19.2322 8.75875 19.2322 8.75874 19.2322 8.75873C19.2322 8.75872 19.2322 8.75871 19.2322 8.7587C19.2322 8.75869 19.2322 8.75868 19.2322 8.75867C19.2322 8.75867 19.2322 8.75866 19.2322 8.75865C19.2322 8.75864 19.2322 8.75863 19.2322 8.75862C19.2322 8.75861 19.2322 8.7586 19.2322 8.75859C19.2322 8.75859 19.2322 8.75858 19.2322 8.75857C19.2322 8.75856 19.2323 8.75855 19.2323 8.75854C19.2323 8.75853 19.2323 8.75852 19.2323 8.75852C19.2323 8.75851 19.2323 8.7585 19.2323 8.75849C19.2323 8.75848 19.2323 8.75847 19.2323 8.75846C19.2323 8.75845 19.2323 8.75844 19.2323 8.75844C19.2323 8.75843 19.2323 8.75842 19.2323 8.75841C19.2323 8.7584 19.2323 8.75839 19.2323 8.75838C19.2323 8.75838 19.2323 8.75837 19.2323 8.75836C19.2323 8.75835 19.2323 8.75834 19.2323 8.75833C19.2323 8.75832 19.2323 8.75832 19.2323 8.75831C19.2323 8.7583 19.2324 8.75829 19.2324 8.75828C19.2324 8.75827 19.2324 8.75826 19.2324 8.75826C19.2324 8.75825 19.2324 8.75824 19.2324 8.75823C19.2324 8.75822 19.2324 8.75821 19.2324 8.7582C19.2324 8.7582 19.2324 8.75819 19.2324 8.75818C19.2324 8.75817 19.2324 8.75816 19.2324 8.75815C19.2324 8.75815 19.2324 8.75814 19.2324 8.75813C19.2324 8.75812 19.2324 8.75811 19.2324 8.7581C19.2324 8.7581 19.2324 8.75809 19.2324 8.75808C19.2324 8.75807 19.2324 8.75806 19.2324 8.75805C19.2324 8.75805 19.2324 8.75804 19.2325 8.75803C19.2325 8.75802 19.2325 8.75801 19.2325 8.758C19.2325 8.758 19.2325 8.75799 19.2325 8.75798C19.2325 8.75797 19.2325 8.75796 19.2325 8.75796C19.2325 8.75795 19.2325 8.75794 19.2325 8.75793C19.2325 8.75792 19.2325 8.75791 19.2325 8.75791C19.2325 8.7579 19.2325 8.75789 19.2325 8.75788C19.2325 8.75787 19.2325 8.75787 19.2325 8.75786C19.2325 8.75785 19.2325 8.75784 19.2325 8.75783C19.2325 8.75783 19.2325 8.75782 19.2325 8.75781C19.2325 8.7578 19.2325 8.75779 19.2325 8.75779C19.2325 8.75778 19.2326 8.75777 19.2326 8.75776C19.2326 8.75775 19.2326 8.75775 19.2326 8.75774C19.2326 8.75773 19.2326 8.75772 19.2326 8.75772C19.2326 8.75771 19.2326 8.7577 19.2326 8.75769C19.2326 8.75768 19.2326 8.75768 19.2326 8.75767C19.2326 8.75766 19.2326 8.75765 19.2326 8.75764C19.2326 8.75764 19.2326 8.75763 19.2326 8.75762C19.2326 8.75761 19.2326 8.75761 19.2326 8.7576C19.2326 8.75759 19.2326 8.75758 19.2326 8.75758C19.2326 8.75757 19.2326 8.75756 19.2326 8.75755C19.2326 8.75754 19.2326 8.75754 19.2326 8.75753C19.2326 8.75752 19.2326 8.75751 19.2327 8.75751C19.2327 8.7575 19.2327 8.75749 19.2327 8.75748C19.2327 8.75748 19.2327 8.75747 19.2327 8.75746C19.2327 8.75745 19.2327 8.75745 19.2327 8.75744C19.2327 8.75743 19.2327 8.75742 19.2327 8.75742C19.2327 8.75741 19.2327 8.7574 19.2327 8.75739C19.2327 8.75739 19.2327 8.75738 19.2327 8.75737C19.2327 8.75736 19.2327 8.75736 19.2327 8.75735C19.2327 8.75734 19.2327 8.75733 19.2327 8.75733C19.2327 8.75732 19.2327 8.75731 19.2327 8.75731C19.2327 8.7573 19.2327 8.75729 19.2327 8.75728C19.2327 8.75728 19.2327 8.75727 19.2327 8.75726C19.2327 8.75725 19.2327 8.75725 19.2328 8.75724C19.2328 8.75723 19.2328 8.75723 19.2328 8.75722C19.2328 8.75721 19.2328 8.7572 19.2328 8.7572C19.2328 8.75719 19.2328 8.75718 19.2328 8.75718C19.2328 8.75717 19.2328 8.75716 19.2328 8.75715C19.2328 8.75715 19.2328 8.75714 19.2328 8.75713C19.2328 8.75713 19.2328 8.75712 19.2328 8.75711C19.2328 8.7571 19.2328 8.7571 19.2328 8.75709C19.2328 8.75708 19.2328 8.75708 19.2328 8.75707C19.2328 8.75706 19.2328 8.75706 19.2328 8.75705C19.2328 8.75704 19.2328 8.75703 19.2328 8.75703C19.2328 8.75702 19.2328 8.75701 19.2328 8.75701C19.2328 8.757 19.2328 8.75699 19.2328 8.75699C19.2329 8.75698 19.2329 8.75697 19.2329 8.75697C19.2329 8.75696 19.2329 8.75695 19.2329 8.75694C19.2329 8.75694 19.2329 8.75693 19.2329 8.75692C19.2329 8.75692 19.2329 8.75691 19.2329 8.7569C19.2329 8.7569 19.2329 8.75689 19.2329 8.75688C19.2329 8.75688 19.2329 8.75687 19.2329 8.75686C19.2329 8.75686 19.2329 8.75685 19.2329 8.75684C19.2329 8.75684 19.2329 8.75683 19.2329 8.75682C19.2329 8.75682 19.2329 8.75681 19.2329 8.7568C19.2329 8.7568 19.2329 8.75679 19.2329 8.75678C19.2329 8.75678 19.2329 8.75677 19.2329 8.75676C19.2329 8.75676 19.2329 8.75675 19.2329 8.75674C19.2329 8.75674 19.2329 8.75673 19.2329 8.75673C19.233 8.75672 19.233 8.75671 19.233 8.75671C19.233 8.7567 19.233 8.75669 19.233 8.75669C19.233 8.75668 19.233 8.75667 19.233 8.75667C19.233 8.75666 19.233 8.75665 19.233 8.75665C19.233 8.75664 19.233 8.75664 19.233 8.75663C19.233 8.75662 19.233 8.75662 19.233 8.75661C19.233 8.7566 19.233 8.7566 19.233 8.75659C19.233 8.75659 19.233 8.75658 19.233 8.75657C19.233 8.75657 19.233 8.75656 19.233 8.75655C19.233 8.75655 19.233 8.75654 19.233 8.75654C19.233 8.75653 19.233 8.75652 19.233 8.75652C19.233 8.75651 19.233 8.7565 19.233 8.7565C19.233 8.75649 19.233 8.75649 19.233 8.75648C19.233 8.75647 19.233 8.75647 19.233 8.75646C19.2331 8.75646 19.2331 8.75645 19.2331 8.75644C19.2331 8.75644 19.2331 8.75643 19.2331 8.75643C19.2331 8.75642 19.2331 8.75641 19.2331 8.75641C19.2331 8.7564 19.2331 8.7564 19.2331 8.75639C19.2331 8.75638 19.2331 8.75638 19.2331 8.75637C19.2331 8.75637 19.2331 8.75636 19.2331 8.75636C19.2331 8.75635 19.2331 8.75634 19.2331 8.75634C19.2331 8.75633 19.2331 8.75633 19.2331 8.75632C19.2331 8.75631 19.2331 8.75631 19.2331 8.7563C19.2331 8.7563 19.2331 8.75629 19.2331 8.75629C19.2331 8.75628 19.2331 8.75627 19.2331 8.75627C19.2331 8.75626 19.2331 8.75626 19.2331 8.75625C19.2331 8.75625 19.2331 8.75624 19.2331 8.75623C19.2331 8.75623 19.2331 8.75622 19.2331 8.75622C19.2331 8.75621 19.2331 8.75621 19.2331 8.7562C19.2332 8.75619 19.2332 8.75619 19.2332 8.75618C19.2332 8.75618 19.2332 8.75617 19.2332 8.75617C19.2332 8.75616 19.2332 8.75616 19.2332 8.75615C19.2332 8.75615 19.2332 8.75614 19.2332 8.75613C19.2332 8.75613 19.2332 8.75612 19.2332 8.75612C19.2332 8.75611 19.2332 8.75611 19.2332 8.7561C19.2332 8.7561 19.2332 8.75609 19.2332 8.75609C19.2332 8.75608 19.2332 8.75607 19.2332 8.75607C19.2332 8.75606 19.2332 8.75606 19.2332 8.75605C19.2332 8.75605 19.2332 8.75604 19.2332 8.75604C19.2332 8.75603 19.2332 8.75603 19.2332 8.75602C19.2332 8.75602 19.2332 8.75601 19.2332 8.75601C19.2332 8.756 19.2332 8.756 19.2332 8.75599C19.2332 8.75599 19.2332 8.75598 19.2332 8.75597C19.2332 8.75597 19.2332 8.75596 19.2332 8.75596C19.2332 8.75595 19.2332 8.75595 19.2332 8.75594C19.2332 8.75594 19.2333 8.75593 19.2333 8.75593C19.2333 8.75592 19.2333 8.75592 19.2333 8.75591C19.2333 8.75591 19.2333 8.7559 19.2333 8.7559C19.2333 8.75589 19.2333 8.75589 19.2333 8.75588C19.2333 8.75588 19.2333 8.75587 19.2333 8.75587C19.2333 8.75586 19.2333 8.75586 19.2333 8.75585C19.2333 8.75585 19.2333 8.75584 19.2333 8.75584C19.2333 8.75583 19.2333 8.75583 19.2333 8.75582C19.2333 8.75582 19.2333 8.75582 19.2333 8.75581C19.2333 8.75581 19.2333 8.7558 19.2333 8.7558C19.2333 8.75579 19.2333 8.75579 19.2333 8.75578C19.2333 8.75578 19.2333 8.75577 19.2333 8.75577C19.2333 8.75576 19.2333 8.75576 19.2333 8.75575C19.2333 8.75575 19.2333 8.75574 19.2333 8.75574C19.2333 8.75573 19.2333 8.75573 19.2333 8.75573C19.2333 8.75572 19.2333 8.75572 19.2333 8.75571C19.2333 8.75571 19.2333 8.7557 19.2333 8.7557C19.2333 8.75569 19.2333 8.75569 19.2333 8.75568C19.2333 8.75568 19.2333 8.75568 19.2334 8.75567C19.2334 8.75567 19.2334 8.75566 19.2334 8.75566C19.2334 8.75565 19.2334 8.75565 19.2334 8.75564C19.2334 8.75564 19.2334 8.75564 19.2334 8.75563C19.2334 8.75563 19.2334 8.75562 19.2334 8.75562C19.2334 8.75561 19.2334 8.75561 19.2334 8.7556C19.2334 8.7556 19.2334 8.7556 19.2334 8.75559C19.2334 8.75559 19.2334 8.75558 19.2334 8.75558C19.2334 8.75557 19.2334 8.75557 19.2334 8.75557C19.2334 8.75556 19.2334 8.75556 19.2334 8.75555C19.2334 8.75555 19.2334 8.75554 19.2334 8.75554C19.2334 8.75554 19.2334 8.75553 19.2334 8.75553C19.2334 8.75552 19.2334 8.75552 19.2334 8.75552C19.2334 8.75551 19.2334 8.75551 19.2334 8.7555C19.2334 8.7555 19.2334 8.7555 19.2334 8.75549C19.2334 8.75549 19.2334 8.75548 19.2334 8.75548C19.2334 8.75548 19.2334 8.75547 19.2334 8.75547C19.2334 8.75546 19.2334 8.75546 19.2334 8.75546C19.2334 8.75545 19.2334 8.75545 19.2334 8.75544C19.2334 8.75544 19.2334 8.75544 19.2334 8.75543C19.2334 8.75543 19.2334 8.75542 19.2334 8.75542C19.2334 8.75542 19.2334 8.75541 19.2335 8.75541C19.2335 8.7554 19.2335 8.7554 19.2335 8.7554C19.2335 8.75539 19.2335 8.75539 19.2335 8.75539C19.2335 8.75538 19.2335 8.75538 19.2335 8.75537C19.2335 8.75537 19.2335 8.75537 19.2335 8.75536C19.2335 8.75536 19.2335 8.75536 19.2335 8.75535C19.2335 8.75535 19.2335 8.75535 19.2335 8.75534C19.2335 8.75534 19.2335 8.75533 19.2335 8.75533C19.2335 8.75533 19.2335 8.75532 19.2335 8.75532C19.2335 8.75532 19.2335 8.75531 19.2335 8.75531C19.2335 8.75531 19.2335 8.7553 19.2335 8.7553C19.2335 8.7553 19.2335 8.75529 19.2335 8.75529C19.2335 8.75528 19.2335 8.75528 19.2335 8.75528C19.2335 8.75527 19.2335 8.75527 19.2335 8.75527C19.2335 8.75526 19.2335 8.75526 19.2335 8.75526C19.2335 8.75525 19.2335 8.75525 19.2335 8.75525C19.2335 8.75524 19.2335 8.75524 19.2335 8.75524C19.2335 8.75523 19.2335 8.75523 19.2335 8.75523C19.2335 8.75522 19.2335 8.75522 19.2335 8.75522C19.2335 8.75521 19.2335 8.75521 19.2335 8.75521C19.2335 8.7552 19.2335 8.7552 19.2335 8.7552C19.2335 8.7552 19.2335 8.75519 19.2335 8.75519C19.2335 8.75519 19.2335 8.75518 19.2335 8.75518C19.2335 8.75518 19.2335 8.75517 19.2335 8.75517C19.2335 8.75517 19.2335 8.75516 19.2335 8.75516C19.2335 8.75516 19.2335 8.75515 19.2335 8.75515C19.2335 8.75515 19.2336 8.75515 19.2336 8.75514C19.2336 8.75514 19.2336 8.75514 19.2336 8.75513C19.2336 8.75513 19.2336 8.75513 19.2336 8.75513C19.2336 8.75512 19.2336 8.75512 19.2336 8.75512C19.2336 8.75511 19.2336 8.75511 19.2336 8.75511C19.2336 8.7551 19.2336 8.7551 19.2336 8.7551C19.2336 8.7551 19.2336 8.75509 19.2336 8.75509C19.2336 8.75509 19.2336 8.75509 19.2336 8.75508C19.2336 8.75508 19.2336 8.75508 19.2336 8.75507C19.2336 8.75507 19.2336 8.75507 19.2336 8.75507C19.2336 8.75506 19.2336 8.75506 19.2336 8.75506C19.2336 8.75506 19.2336 8.75505 19.2336 8.75505C19.2336 8.75505 19.2336 8.75504 19.2336 8.75504C19.2336 8.75504 19.2336 8.75504 19.2336 8.75503C19.2336 8.75503 19.2336 8.75503 19.2336 8.75503C19.2336 8.75502 19.2336 8.75502 19.2336 8.75502C19.2336 8.75502 19.2336 8.75501 19.2336 8.75501C19.2336 8.75501 19.2336 8.75501 19.2336 8.755C19.2336 8.755 19.2336 8.755 19.2336 8.755C19.2336 8.75499 19.2336 8.75499 19.2336 8.75499C19.2336 8.75499 19.2336 8.75499 19.2336 8.75498C19.2336 8.75498 19.2336 8.75498 19.2336 8.75498C19.2336 8.75497 19.2336 8.75497 19.2336 8.75497C19.2336 8.75497 19.2336 8.75496 19.2336 8.75496C19.2336 8.75496 19.2336 8.75496 19.2336 8.75496C19.2336 8.75495 19.2336 8.75495 19.2336 8.75495C19.2336 8.75495 19.2336 8.75494 19.2336 8.75494C19.2336 8.75494 19.2336 8.75494 19.2336 8.75494C19.2336 8.75493 19.2336 8.75493 19.2336 8.75493C19.2336 8.75493 19.2336 8.75493 19.2336 8.75492C19.2336 8.75492 19.2336 8.75492 19.2336 8.75492C19.2336 8.75492 19.2336 8.75491 19.2336 8.75491C19.2336 8.75491 19.2336 8.75491 19.2336 8.75491C19.2336 8.7549 19.2336 8.7549 19.2336 8.7549C19.2336 8.7549 19.2336 8.7549 19.2336 8.75489C19.2336 8.75489 19.2336 8.75489 19.2336 8.75489C19.2336 8.75489 19.2337 8.75489 19.2337 8.75488C19.2337 8.75488 19.2337 8.75488 19.2337 8.75488C19.2337 8.75488 19.2337 8.75487 19.2337 8.75487C19.2337 8.75487 19.2337 8.75487 19.2337 8.75487C19.2337 8.75487 19.2337 8.75486 19.2337 8.75486C19.2337 8.75486 19.2337 8.75486 19.2337 8.75486C19.2337 8.75486 19.2337 8.75485 19.2337 8.75485C19.2337 8.75485 19.2337 8.75485 19.2337 8.75485C19.2337 8.75485 19.2337 8.75484 19.2337 8.75484C19.2337 8.75484 19.2337 8.75484 19.2337 8.75484C19.2337 8.75484 19.2337 8.75484 19.2337 8.75483C19.2337 8.75483 19.2337 8.75483 19.2337 8.75483C19.2337 8.75483 19.2337 8.75483 19.2337 8.75483C19.2337 8.75482 19.2337 8.75482 19.2337 8.75482C19.2337 8.75482 19.2337 8.75482 19.2337 8.75482C19.2337 8.75482 19.2337 8.75481 19.2337 8.75481C19.2337 8.75481 19.2337 8.75481 19.2337 8.75481C19.2337 8.75481 19.2337 8.75481 19.2337 8.75481C19.2337 8.7548 19.2337 8.7548 19.2337 8.7548C19.2337 8.7548 19.2337 8.7548 19.2337 8.7548C19.2337 8.7548 19.2337 8.7548 19.2337 8.75479C19.2337 8.75479 19.2337 8.75479 19.2337 8.75479C19.2337 8.75479 19.2337 8.75479 19.2337 8.75479C19.2337 8.75479 19.2337 8.75479 19.2337 8.75478C19.2337 8.75478 19.2337 8.75478 19.2337 8.75478C19.2337 8.75478 19.2337 8.75478 19.2337 8.75478C19.2337 8.75478 19.2337 8.75478 19.2337 8.75478C19.2337 8.75477 19.2337 8.75477 19.2337 8.75477C19.2337 8.75477 19.2337 8.75477 19.2337 8.75477C19.2337 8.75477 19.2337 8.75477 19.2337 8.75477C19.2337 8.75477 19.2337 8.75477 19.2337 8.75477C19.2337 8.75476 19.2337 8.75476 19.2337 8.75476C19.2337 8.75476 19.2337 8.75476 19.2337 8.75476C19.2337 8.75476 19.2337 8.75476 19.2337 8.75476C19.2337 8.75476 19.2337 8.75476 19.2337 8.75476C19.2337 8.75476 19.2337 8.75475 19.2337 8.75475C19.2337 8.75475 19.2337 8.75475 19.2337 8.75475C19.2337 8.75475 19.2337 8.75475 19.2337 8.75475C19.2337 8.75475 19.2337 8.75475 19.2337 8.75475C19.2337 8.75475 19.2337 8.75475 19.2337 8.75475C19.2337 8.75475 19.2337 8.75475 19.2337 8.75475C19.2337 8.75475 19.2337 8.75474 19.2337 8.75474C19.2337 8.75474 19.2337 8.75474 19.2337 8.75474C19.2337 8.75474 19.2337 8.75474 19.2337 8.75474C19.2337 8.75474 19.2337 8.75474 19.2337 8.75474C19.2337 8.75474 19.2337 8.75474 19.2337 8.75474C19.2337 8.75474 19.2337 8.75474 19.2337 8.75474C19.2337 8.75474 19.2337 8.75474 19.2337 8.75474C19.2337 8.75474 19.2337 8.75474 19.2337 8.75474C19.2337 8.75474 19.2337 8.75474 19.2337 8.75474C19.2337 8.75474 19.2337 8.75474 19.2337 8.75474C19.2337 8.75474 19.2337 8.75474 19.2337 8.75474C19.2337 8.75474 19.2337 8.75474 19.2337 8.75474C19.2337 8.75474 19.2337 8.75474 19.2337 8.75474C19.2337 8.75474 19.2337 8.75474 18.7665 8.57661C18.2993 8.39849 18.2993 8.39849 18.2993 8.39849C18.2993 8.39849 18.2993 8.39849 18.2993 8.39849C18.2993 8.39849 18.2993 8.39849 18.2993 8.39849C18.2993 8.39849 18.2993 8.39849 18.2993 8.39849C18.2993 8.39849 18.2993 8.39849 18.2993 8.39849C18.2993 8.39849 18.2993 8.39849 18.2993 8.39849C18.2993 8.39849 18.2993 8.39849 18.2993 8.39849C18.2993 8.39849 18.2993 8.39849 18.2993 8.39849C18.2993 8.39849 18.2993 8.39849 18.2993 8.39849C18.2993 8.39849 18.2993 8.39849 18.2993 8.39849C18.2993 8.39849 18.2993 8.39849 18.2993 8.39849C18.2993 8.39849 18.2993 8.39849 18.2993 8.39849C18.2993 8.39849 18.2993 8.3985 18.2993 8.3985C18.2993 8.3985 18.2993 8.3985 18.2993 8.3985C18.2993 8.3985 18.2993 8.3985 18.2993 8.3985C18.2993 8.3985 18.2993 8.3985 18.2993 8.3985C18.2993 8.3985 18.2993 8.3985 18.2993 8.3985C18.2993 8.3985 18.2993 8.3985 18.2993 8.3985C18.2993 8.3985 18.2993 8.3985 18.2993 8.39851C18.2993 8.39851 18.2993 8.39851 18.2993 8.39851C18.2993 8.39851 18.2993 8.39851 18.2993 8.39851C18.2993 8.39851 18.2993 8.39851 18.2993 8.39851C18.2993 8.39851 18.2993 8.39851 18.2993 8.39851C18.2993 8.39851 18.2993 8.39852 18.2993 8.39852C18.2993 8.39852 18.2993 8.39852 18.2993 8.39852C18.2993 8.39852 18.2993 8.39852 18.2993 8.39852C18.2993 8.39852 18.2993 8.39852 18.2993 8.39852C18.2993 8.39852 18.2993 8.39853 18.2993 8.39853C18.2993 8.39853 18.2993 8.39853 18.2993 8.39853C18.2993 8.39853 18.2993 8.39853 18.2993 8.39853C18.2993 8.39853 18.2993 8.39853 18.2993 8.39854C18.2993 8.39854 18.2993 8.39854 18.2993 8.39854C18.2993 8.39854 18.2993 8.39854 18.2993 8.39854C18.2993 8.39854 18.2993 8.39854 18.2993 8.39855C18.2993 8.39855 18.2993 8.39855 18.2993 8.39855C18.2993 8.39855 18.2993 8.39855 18.2993 8.39855C18.2993 8.39855 18.2993 8.39856 18.2993 8.39856C18.2993 8.39856 18.2993 8.39856 18.2993 8.39856C18.2993 8.39856 18.2993 8.39856 18.2993 8.39856C18.2993 8.39857 18.2993 8.39857 18.2993 8.39857C18.2993 8.39857 18.2993 8.39857 18.2993 8.39857C18.2993 8.39857 18.2993 8.39857 18.2993 8.39858C18.2993 8.39858 18.2993 8.39858 18.2993 8.39858C18.2993 8.39858 18.2993 8.39858 18.2993 8.39859C18.2993 8.39859 18.2993 8.39859 18.2993 8.39859C18.2993 8.39859 18.2993 8.39859 18.2993 8.39859C18.2993 8.3986 18.2993 8.3986 18.2993 8.3986C18.2993 8.3986 18.2993 8.3986 18.2993 8.3986C18.2993 8.39861 18.2993 8.39861 18.2993 8.39861C18.2993 8.39861 18.2993 8.39861 18.2993 8.39861C18.2993 8.39862 18.2993 8.39862 18.2993 8.39862C18.2993 8.39862 18.2993 8.39862 18.2993 8.39862C18.2993 8.39863 18.2993 8.39863 18.2993 8.39863C18.2993 8.39863 18.2993 8.39863 18.2993 8.39863C18.2993 8.39864 18.2993 8.39864 18.2993 8.39864C18.2993 8.39864 18.2993 8.39864 18.2993 8.39865C18.2993 8.39865 18.2993 8.39865 18.2993 8.39865C18.2993 8.39865 18.2993 8.39865 18.2993 8.39866C18.2993 8.39866 18.2992 8.39866 18.2992 8.39866C18.2992 8.39866 18.2992 8.39867 18.2992 8.39867C18.2992 8.39867 18.2992 8.39867 18.2992 8.39867C18.2992 8.39868 18.2992 8.39868 18.2992 8.39868C18.2992 8.39868 18.2992 8.39869 18.2992 8.39869C18.2992 8.39869 18.2992 8.39869 18.2992 8.39869C18.2992 8.3987 18.2992 8.3987 18.2992 8.3987C18.2992 8.3987 18.2992 8.3987 18.2992 8.39871C18.2992 8.39871 18.2992 8.39871 18.2992 8.39871C18.2992 8.39872 18.2992 8.39872 18.2992 8.39872C18.2992 8.39872 18.2992 8.39872 18.2992 8.39873C18.2992 8.39873 18.2992 8.39873 18.2992 8.39873C18.2992 8.39874 18.2992 8.39874 18.2992 8.39874C18.2992 8.39874 18.2992 8.39875 18.2992 8.39875C18.2992 8.39875 18.2992 8.39875 18.2992 8.39876C18.2992 8.39876 18.2992 8.39876 18.2992 8.39876C18.2992 8.39877 18.2992 8.39877 18.2992 8.39877C18.2992 8.39877 18.2992 8.39878 18.2992 8.39878C18.2992 8.39878 18.2992 8.39878 18.2992 8.39879C18.2992 8.39879 18.2992 8.39879 18.2992 8.39879C18.2992 8.3988 18.2992 8.3988 18.2992 8.3988C18.2992 8.3988 18.2992 8.39881 18.2992 8.39881C18.2992 8.39881 18.2992 8.39881 18.2992 8.39882C18.2992 8.39882 18.2992 8.39882 18.2992 8.39883C18.2992 8.39883 18.2992 8.39883 18.2992 8.39883C18.2992 8.39884 18.2992 8.39884 18.2992 8.39884C18.2992 8.39884 18.2992 8.39885 18.2992 8.39885C18.2992 8.39885 18.2992 8.39886 18.2992 8.39886C18.2992 8.39886 18.2992 8.39886 18.2992 8.39887C18.2992 8.39887 18.2992 8.39887 18.2992 8.39888C18.2992 8.39888 18.2992 8.39888 18.2992 8.39888C18.2992 8.39889 18.2992 8.39889 18.2992 8.39889C18.2992 8.3989 18.2992 8.3989 18.2992 8.3989C18.2992 8.39891 18.2992 8.39891 18.2992 8.39891C18.2992 8.39892 18.2992 8.39892 18.2992 8.39892C18.2991 8.39892 18.2991 8.39893 18.2991 8.39893C18.2991 8.39893 18.2991 8.39894 18.2991 8.39894C18.2991 8.39894 18.2991 8.39895 18.2991 8.39895C18.2991 8.39895 18.2991 8.39896 18.2991 8.39896C18.2991 8.39896 18.2991 8.39897 18.2991 8.39897C18.2991 8.39897 18.2991 8.39898 18.2991 8.39898C18.2991 8.39898 18.2991 8.39899 18.2991 8.39899C18.2991 8.39899 18.2991 8.399 18.2991 8.399C18.2991 8.399 18.2991 8.39901 18.2991 8.39901C18.2991 8.39901 18.2991 8.39902 18.2991 8.39902C18.2991 8.39902 18.2991 8.39903 18.2991 8.39903C18.2991 8.39903 18.2991 8.39904 18.2991 8.39904C18.2991 8.39904 18.2991 8.39905 18.2991 8.39905C18.2991 8.39905 18.2991 8.39906 18.2991 8.39906C18.2991 8.39906 18.2991 8.39907 18.2991 8.39907C18.2991 8.39907 18.2991 8.39908 18.2991 8.39908C18.2991 8.39909 18.2991 8.39909 18.2991 8.39909C18.2991 8.3991 18.2991 8.3991 18.2991 8.3991C18.2991 8.39911 18.2991 8.39911 18.2991 8.39911C18.2991 8.39912 18.2991 8.39912 18.2991 8.39913C18.2991 8.39913 18.2991 8.39913 18.2991 8.39914C18.2991 8.39914 18.2991 8.39914 18.2991 8.39915C18.2991 8.39915 18.2991 8.39916 18.2991 8.39916C18.2991 8.39916 18.2991 8.39917 18.2991 8.39917C18.2991 8.39918 18.2991 8.39918 18.2991 8.39918C18.299 8.39919 18.299 8.39919 18.299 8.39919C18.299 8.3992 18.299 8.3992 18.299 8.39921C18.299 8.39921 18.299 8.39921 18.299 8.39922C18.299 8.39922 18.299 8.39923 18.299 8.39923C18.299 8.39923 18.299 8.39924 18.299 8.39924C18.299 8.39925 18.299 8.39925 18.299 8.39925C18.299 8.39926 18.299 8.39926 18.299 8.39927C18.299 8.39927 18.299 8.39928 18.299 8.39928C18.299 8.39928 18.299 8.39929 18.299 8.39929C18.299 8.3993 18.299 8.3993 18.299 8.3993C18.299 8.39931 18.299 8.39931 18.299 8.39932C18.299 8.39932 18.299 8.39933 18.299 8.39933C18.299 8.39933 18.299 8.39934 18.299 8.39934C18.299 8.39935 18.299 8.39935 18.299 8.39936C18.299 8.39936 18.299 8.39936 18.299 8.39937C18.299 8.39937 18.299 8.39938 18.299 8.39938C18.299 8.39939 18.299 8.39939 18.299 8.3994C18.299 8.3994 18.299 8.3994 18.299 8.39941C18.299 8.39941 18.299 8.39942 18.299 8.39942C18.299 8.39943 18.299 8.39943 18.299 8.39944C18.299 8.39944 18.299 8.39944 18.2989 8.39945C18.2989 8.39945 18.2989 8.39946 18.2989 8.39946C18.2989 8.39947 18.2989 8.39947 18.2989 8.39948C18.2989 8.39948 18.2989 8.39949 18.2989 8.39949C18.2989 8.3995 18.2989 8.3995 18.2989 8.3995C18.2989 8.39951 18.2989 8.39951 18.2989 8.39952C18.2989 8.39952 18.2989 8.39953 18.2989 8.39953C18.2989 8.39954 18.2989 8.39954 18.2989 8.39955C18.2989 8.39955 18.2989 8.39956 18.2989 8.39956C18.2989 8.39957 18.2989 8.39957 18.2989 8.39958C18.2989 8.39958 18.2989 8.39959 18.2989 8.39959C18.2989 8.3996 18.2989 8.3996 18.2989 8.39961C18.2989 8.39961 18.2989 8.39962 18.2989 8.39962C18.2989 8.39962 18.2989 8.39963 18.2989 8.39963C18.2989 8.39964 18.2989 8.39964 18.2989 8.39965C18.2989 8.39965 18.2989 8.39966 18.2989 8.39966C18.2989 8.39967 18.2989 8.39967 18.2989 8.39968C18.2989 8.39969 18.2989 8.39969 18.2989 8.3997C18.2989 8.3997 18.2989 8.39971 18.2988 8.39971C18.2988 8.39972 18.2988 8.39972 18.2988 8.39973C18.2988 8.39973 18.2988 8.39974 18.2988 8.39974C18.2988 8.39975 18.2988 8.39975 18.2988 8.39976C18.2988 8.39976 18.2988 8.39977 18.2988 8.39977C18.2988 8.39978 18.2988 8.39978 18.2988 8.39979C18.2988 8.39979 18.2988 8.3998 18.2988 8.3998C18.2988 8.39981 18.2988 8.39982 18.2988 8.39982C18.2988 8.39983 18.2988 8.39983 18.2988 8.39984C18.2988 8.39984 18.2988 8.39985 18.2988 8.39985C18.2988 8.39986 18.2988 8.39986 18.2988 8.39987C18.2988 8.39987 18.2988 8.39988 18.2988 8.39989C18.2988 8.39989 18.2988 8.3999 18.2988 8.3999C18.2988 8.39991 18.2988 8.39991 18.2988 8.39992C18.2988 8.39992 18.2988 8.39993 18.2988 8.39993C18.2988 8.39994 18.2988 8.39995 18.2988 8.39995C18.2988 8.39996 18.2988 8.39996 18.2988 8.39997C18.2987 8.39997 18.2987 8.39998 18.2987 8.39999C18.2987 8.39999 18.2987 8.4 18.2987 8.4C18.2987 8.40001 18.2987 8.40001 18.2987 8.40002C18.2987 8.40003 18.2987 8.40003 18.2987 8.40004C18.2987 8.40004 18.2987 8.40005 18.2987 8.40005C18.2987 8.40006 18.2987 8.40007 18.2987 8.40007C18.2987 8.40008 18.2987 8.40008 18.2987 8.40009C18.2987 8.40009 18.2987 8.4001 18.2987 8.40011C18.2987 8.40011 18.2987 8.40012 18.2987 8.40012C18.2987 8.40013 18.2987 8.40014 18.2987 8.40014C18.2987 8.40015 18.2987 8.40015 18.2987 8.40016C18.2987 8.40017 18.2987 8.40017 18.2987 8.40018C18.2987 8.40018 18.2987 8.40019 18.2987 8.4002C18.2987 8.4002 18.2987 8.40021 18.2987 8.40021C18.2987 8.40022 18.2987 8.40023 18.2987 8.40023C18.2986 8.40024 18.2986 8.40024 18.2986 8.40025C18.2986 8.40026 18.2986 8.40026 18.2986 8.40027C18.2986 8.40027 18.2986 8.40028 18.2986 8.40029C18.2986 8.40029 18.2986 8.4003 18.2986 8.40031C18.2986 8.40031 18.2986 8.40032 18.2986 8.40032C18.2986 8.40033 18.2986 8.40034 18.2986 8.40034C18.2986 8.40035 18.2986 8.40036 18.2986 8.40036C18.2986 8.40037 18.2986 8.40037 18.2986 8.40038C18.2986 8.40039 18.2986 8.40039 18.2986 8.4004C18.2986 8.40041 18.2986 8.40041 18.2986 8.40042C18.2986 8.40043 18.2986 8.40043 18.2986 8.40044C18.2986 8.40044 18.2986 8.40045 18.2986 8.40046C18.2986 8.40046 18.2986 8.40047 18.2986 8.40048C18.2986 8.40048 18.2986 8.40049 18.2986 8.4005C18.2985 8.4005 18.2985 8.40051 18.2985 8.40052C18.2985 8.40052 18.2985 8.40053 18.2985 8.40054C18.2985 8.40054 18.2985 8.40055 18.2985 8.40056C18.2985 8.40056 18.2985 8.40057 18.2985 8.40057C18.2985 8.40058 18.2985 8.40059 18.2985 8.40059C18.2985 8.4006 18.2985 8.40061 18.2985 8.40061C18.2985 8.40062 18.2985 8.40063 18.2985 8.40063C18.2985 8.40064 18.2985 8.40065 18.2985 8.40066C18.2985 8.40066 18.2985 8.40067 18.2985 8.40068C18.2985 8.40068 18.2985 8.40069 18.2985 8.4007C18.2985 8.4007 18.2985 8.40071 18.2985 8.40072C18.2985 8.40072 18.2985 8.40073 18.2985 8.40074C18.2985 8.40074 18.2985 8.40075 18.2985 8.40076C18.2984 8.40076 18.2984 8.40077 18.2984 8.40078C18.2984 8.40079 18.2984 8.40079 18.2984 8.4008C18.2984 8.40081 18.2984 8.40081 18.2984 8.40082C18.2984 8.40083 18.2984 8.40083 18.2984 8.40084C18.2984 8.40085 18.2984 8.40086 18.2984 8.40086C18.2984 8.40087 18.2984 8.40088 18.2984 8.40088C18.2984 8.40089 18.2984 8.4009 18.2984 8.4009C18.2984 8.40091 18.2984 8.40092 18.2984 8.40093C18.2984 8.40093 18.2984 8.40094 18.2984 8.40095C18.2984 8.40095 18.2984 8.40096 18.2984 8.40097C18.2984 8.40098 18.2984 8.40098 18.2984 8.40099C18.2984 8.401 18.2984 8.40101 18.2984 8.40101C18.2984 8.40102 18.2983 8.40103 18.2983 8.40103C18.2983 8.40104 18.2983 8.40105 18.2983 8.40106C18.2983 8.40106 18.2983 8.40107 18.2983 8.40108C18.2983 8.40109 18.2983 8.40109 18.2983 8.4011C18.2983 8.40111 18.2983 8.40112 18.2983 8.40112C18.2983 8.40113 18.2983 8.40114 18.2983 8.40114C18.2983 8.40115 18.2983 8.40116 18.2983 8.40117C18.2983 8.40117 18.2983 8.40118 18.2983 8.40119C18.2983 8.4012 18.2983 8.4012 18.2983 8.40121C18.2983 8.40122 18.2983 8.40123 18.2983 8.40123C18.2983 8.40124 18.2983 8.40125 18.2983 8.40126C18.2983 8.40127 18.2983 8.40127 18.2983 8.40128C18.2982 8.40129 18.2982 8.4013 18.2982 8.4013C18.2982 8.40131 18.2982 8.40132 18.2982 8.40133C18.2982 8.40133 18.2982 8.40134 18.2982 8.40135C18.2982 8.40136 18.2982 8.40136 18.2982 8.40137C18.2982 8.40138 18.2982 8.40139 18.2982 8.4014C18.2982 8.4014 18.2982 8.40141 18.2982 8.40142C18.2982 8.40143 18.2982 8.40143 18.2982 8.40144C18.2982 8.40145 18.2982 8.40146 18.2982 8.40147C18.2982 8.40147 18.2982 8.40148 18.2982 8.40149C18.2982 8.4015 18.2982 8.40151 18.2982 8.40151C18.2982 8.40152 18.2982 8.40153 18.2982 8.40154C18.2982 8.40155 18.2981 8.40155 18.2981 8.40156C18.2981 8.40157 18.2981 8.40158 18.2981 8.40159C18.2981 8.40159 18.2981 8.4016 18.2981 8.40161C18.2981 8.40162 18.2981 8.40163 18.2981 8.40163C18.2981 8.40164 18.2981 8.40165 18.2981 8.40166C18.2981 8.40167 18.2981 8.40167 18.2981 8.40168C18.2981 8.40169 18.2981 8.4017 18.2981 8.40171C18.2981 8.40171 18.2981 8.40172 18.2981 8.40173C18.2981 8.40174 18.2981 8.40175 18.2981 8.40176C18.2981 8.40176 18.2981 8.40177 18.2981 8.40178C18.2981 8.40179 18.2981 8.4018 18.2981 8.40181C18.298 8.40181 18.298 8.40182 18.298 8.40183C18.298 8.40184 18.298 8.40185 18.298 8.40185C18.298 8.40186 18.298 8.40187 18.298 8.40188C18.298 8.40189 18.298 8.4019 18.298 8.40191C18.298 8.40191 18.298 8.40192 18.298 8.40193C18.298 8.40194 18.298 8.40195 18.298 8.40196C18.298 8.40196 18.298 8.40197 18.298 8.40198C18.298 8.40199 18.298 8.402 18.298 8.40201C18.298 8.40202 18.298 8.40202 18.298 8.40203C18.298 8.40204 18.298 8.40205 18.298 8.40206C18.298 8.40207 18.2979 8.40207 18.2979 8.40208C18.2979 8.40209 18.2979 8.4021 18.2979 8.40211C18.2979 8.40212 18.2979 8.40213 18.2979 8.40214C18.2979 8.40214 18.2979 8.40215 18.2979 8.40216C18.2979 8.40217 18.2979 8.40218 18.2979 8.40219C18.2979 8.4022 18.2979 8.4022 18.2979 8.40221C18.2979 8.40222 18.2979 8.40223 18.2979 8.40224C18.2979 8.40225 18.2979 8.40226 18.2979 8.40227C18.2979 8.40227 18.2979 8.40228 18.2979 8.40229C18.2979 8.4023 18.2979 8.40231 18.2979 8.40232C18.2979 8.40233 18.2978 8.40234 18.2978 8.40235C18.2978 8.40235 18.2978 8.40236 18.2978 8.40237C18.2978 8.40238 18.2978 8.40239 18.2978 8.4024C18.2978 8.40241 18.2978 8.40242 18.2978 8.40243C18.2978 8.40244 18.2978 8.40244 18.2978 8.40245C18.2978 8.40246 18.2978 8.40247 18.2978 8.40248C18.2978 8.40249 18.2978 8.4025 18.2978 8.40251C18.2978 8.40252 18.2978 8.40253 18.2978 8.40253C18.2978 8.40254 18.2978 8.40255 18.2978 8.40256C18.2978 8.40257 18.2978 8.40258 18.2978 8.40259C18.2977 8.4026 18.2977 8.40261 18.2977 8.40262C18.2977 8.40263 18.2977 8.40263 18.2977 8.40264C18.2977 8.40265 18.2977 8.40266 18.2977 8.40267C18.2977 8.40268 18.2977 8.40269 18.2977 8.4027C18.2977 8.40271 18.2977 8.40272 18.2977 8.40273C18.2977 8.40274 18.2977 8.40275 18.2977 8.40276C18.2977 8.40276 18.2977 8.40277 18.2977 8.40278C18.2977 8.40279 18.2977 8.4028 18.2977 8.40281C18.2977 8.40282 18.2977 8.40283 18.2977 8.40284C18.2977 8.40285 18.2976 8.40286 18.2976 8.40287C18.2976 8.40288 18.2976 8.40289 18.2976 8.4029C18.2976 8.40291 18.2976 8.40292 18.2976 8.40292C18.2976 8.40293 18.2976 8.40294 18.2976 8.40295C18.2976 8.40296 18.2976 8.40297 18.2976 8.40298C18.2976 8.40299 18.2976 8.403 18.2976 8.40301C18.2976 8.40302 18.2976 8.40303 18.2976 8.40304C18.2976 8.40305 18.2976 8.40306 18.2976 8.40307C18.2976 8.40308 18.2976 8.40309 18.2976 8.4031C18.2976 8.40311 18.2976 8.40312 18.2975 8.40313C18.2975 8.40314 18.2975 8.40315 18.2975 8.40316C18.2975 8.40316 18.2975 8.40317 18.2975 8.40318C18.2975 8.40319 18.2975 8.4032 18.2975 8.40321C18.2975 8.40322 18.2975 8.40323 18.2975 8.40324C18.2975 8.40325 18.2975 8.40326 18.2975 8.40327C18.2975 8.40328 18.2975 8.40329 18.2975 8.4033C18.2975 8.40331 18.2975 8.40332 18.2975 8.40333C18.2975 8.40334 18.2975 8.40335 18.2975 8.40336C18.2975 8.40337 18.2975 8.40338 18.2974 8.40339C18.2974 8.4034 18.2974 8.40341 18.2974 8.40342C18.2974 8.40343 18.2974 8.40344 18.2974 8.40345C18.2974 8.40346 18.2974 8.40347 18.2974 8.40348C18.2974 8.40349 18.2974 8.4035 18.2974 8.40351C18.2974 8.40352 18.2974 8.40353 18.2974 8.40354C18.2974 8.40355 18.2974 8.40356 18.2974 8.40357C18.2974 8.40358 18.2974 8.40359 18.2974 8.4036C18.2974 8.40361 18.2974 8.40362 18.2974 8.40363C18.2974 8.40364 18.2973 8.40365 18.2973 8.40366C18.2973 8.40367 18.2973 8.40368 18.2973 8.40369C18.2973 8.4037 18.2973 8.40371 18.2973 8.40372C18.2973 8.40373 18.2973 8.40375 18.2973 8.40376C18.2973 8.40377 18.2973 8.40378 18.2973 8.40379C18.2973 8.4038 18.2973 8.40381 18.2973 8.40382C18.2973 8.40383 18.2973 8.40384 18.2973 8.40385C18.2973 8.40386 18.2973 8.40387 18.2973 8.40388C18.2973 8.40389 18.2973 8.4039 18.2972 8.40391C18.2972 8.40392 18.2972 8.40393 18.2972 8.40394C18.2972 8.40395 18.2972 8.40396 18.2972 8.40397C18.2972 8.40398 18.2972 8.40399 18.2972 8.404C18.2972 8.40402 18.2972 8.40403 18.2972 8.40404C18.2972 8.40405 18.2972 8.40406 18.2972 8.40407C18.2972 8.40408 18.2972 8.40409 18.2972 8.4041C18.2972 8.40411 18.2972 8.40412 18.2972 8.40413C18.2972 8.40414 18.2972 8.40415 18.2972 8.40416C18.2971 8.40417 18.2971 8.40418 18.2971 8.4042C18.2971 8.40421 18.2971 8.40422 18.2971 8.40423C18.2971 8.40424 18.2971 8.40425 18.2971 8.40426C18.2971 8.40427 18.2971 8.40428 18.2971 8.40429C18.2971 8.4043 18.2971 8.40431 18.2971 8.40432C18.2971 8.40434 18.2971 8.40435 18.2971 8.40436C18.2971 8.40437 18.2971 8.40438 18.2971 8.40439C18.2971 8.4044 18.2971 8.40441 18.2971 8.40442C18.297 8.40443 18.297 8.40444 18.297 8.40445C18.297 8.40447 18.297 8.40448 18.297 8.40449C18.297 8.4045 18.297 8.40451 18.297 8.40452C18.297 8.40453 18.297 8.40454 18.297 8.40455C18.297 8.40456 18.297 8.40457 18.297 8.40459C18.297 8.4046 18.297 8.40461 18.297 8.40462C18.297 8.40463 18.297 8.40464 18.297 8.40465C18.297 8.40466 18.297 8.40467 18.297 8.40469C18.2969 8.4047 18.2969 8.40471 18.2969 8.40472C18.2969 8.40473 18.2969 8.40474 18.2969 8.40475C18.2969 8.40476 18.2969 8.40477 18.2969 8.40479C18.2969 8.4048 18.2969 8.40481 18.2969 8.40482C18.2969 8.40483 18.2969 8.40484 18.2969 8.40485C18.2969 8.40486 18.2969 8.40488 18.2969 8.40489C18.2969 8.4049 18.2969 8.40491 18.2969 8.40492C18.2969 8.40493 18.2969 8.40494 18.2969 8.40495C18.2968 8.40497 18.2968 8.40498 18.2968 8.40499C18.2968 8.405 18.2968 8.40501 18.2968 8.40502C18.2968 8.40503 18.2968 8.40505 18.2968 8.40506C18.2968 8.40507 18.2968 8.40508 18.2968 8.40509C18.2968 8.4051 18.2968 8.40511 18.2968 8.40512C18.2968 8.40514 18.2968 8.40515 18.2968 8.40516C18.2968 8.40517 18.2968 8.40518 18.2968 8.40519C18.2968 8.40521 18.2968 8.40522 18.2967 8.40523C18.2967 8.40524 18.2967 8.40525 18.2967 8.40526C18.2967 8.40527 18.2967 8.40529 18.2967 8.4053C18.2967 8.40531 18.2967 8.40532 18.2967 8.40533C18.2967 8.40534 18.2967 8.40536 18.2967 8.40537C18.2967 8.40538 18.2967 8.40539 18.2967 8.4054C18.2967 8.40541 18.2967 8.40543 18.2967 8.40544C18.2967 8.40545 18.2967 8.40546 18.2967 8.40547C18.2966 8.40548 18.2966 8.4055 18.2966 8.40551C18.2966 8.40552 18.2966 8.40553 18.2966 8.40554C18.2966 8.40555 18.2966 8.40557 18.2966 8.40558C18.2966 8.40559 18.2966 8.4056 18.2966 8.40561C18.2966 8.40563 18.2966 8.40564 18.2966 8.40565C18.2966 8.40566 18.2966 8.40567 18.2966 8.40569C18.2966 8.4057 18.2966 8.40571 18.2966 8.40572C18.2966 8.40573 18.2965 8.40574 18.2965 8.40576C18.2965 8.40577 18.2965 8.40578 18.2965 8.40579C18.2965 8.4058 18.2965 8.40582 18.2965 8.40583C18.2965 8.40584 18.2965 8.40585 18.2965 8.40586C18.2965 8.40588 18.2965 8.40589 18.2965 8.4059C18.2965 8.40591 18.2965 8.40592 18.2965 8.40594C18.2965 8.40595 18.2965 8.40596 18.2965 8.40597C18.2965 8.40599 18.2965 8.406 18.2964 8.40601C18.2964 8.40602 18.2964 8.40603 18.2964 8.40605C18.2964 8.40606 18.2964 8.40607 18.2964 8.40608C18.2964 8.40609 18.2964 8.40611 18.2964 8.40612C18.2964 8.40613 18.2964 8.40614 18.2964 8.40616C18.2964 8.40617 18.2964 8.40618 18.2964 8.40619C18.2964 8.4062 18.2964 8.40622 18.2964 8.40623C18.2964 8.40624 18.2964 8.40625 18.2964 8.40627C18.2963 8.40628 18.2963 8.40629 18.2963 8.4063C18.2963 8.40632 18.2963 8.40633 18.2963 8.40634C18.2963 8.40635 18.2963 8.40636 18.2963 8.40638C18.2963 8.40639 18.2963 8.4064 18.2963 8.40641C18.2963 8.40643 18.2963 8.40644 18.2963 8.40645C18.2963 8.40646 18.2963 8.40648 18.2963 8.40649C18.2963 8.4065 18.2963 8.40651 18.2963 8.40653C18.2962 8.40654 18.2962 8.40655 18.2962 8.40656C18.2962 8.40658 18.2962 8.40659 18.2962 8.4066C18.2962 8.40661 18.2962 8.40663 18.2962 8.40664C18.2962 8.40665 18.2962 8.40666 18.2962 8.40668C18.2962 8.40669 18.2962 8.4067 18.2962 8.40672C18.2962 8.40673 18.2962 8.40674 18.2962 8.40675C18.2962 8.40677 18.2962 8.40678 18.2962 8.40679C18.2961 8.4068 18.2961 8.40682 18.2961 8.40683C18.2961 8.40684 18.2961 8.40685 18.2961 8.40687C18.2961 8.40688 18.2961 8.40689 18.2961 8.40691C18.2961 8.40692 18.2961 8.40693 18.2961 8.40694C18.2961 8.40696 18.2961 8.40697 18.2961 8.40698C18.2961 8.407 18.2961 8.40701 18.2961 8.40702C18.2961 8.40703 18.2961 8.40705 18.296 8.40706C18.296 8.40707 18.296 8.40709 18.296 8.4071C18.296 8.40711 18.296 8.40712 18.296 8.40714C18.296 8.40715 18.296 8.40716 18.296 8.40718C18.296 8.40719 18.296 8.4072 18.296 8.40721C18.296 8.40723 18.296 8.40724 18.296 8.40725C18.296 8.40727 18.296 8.40728 18.296 8.40729C18.296 8.40731 18.2959 8.40732 18.2959 8.40733C18.2959 8.40735 18.2959 8.40736 18.2959 8.40737C18.2959 8.40738 18.2959 8.4074 18.2959 8.40741C18.2959 8.40742 18.2959 8.40744 18.2959 8.40745C18.2959 8.40746 18.2959 8.40748 18.2959 8.40749C18.2959 8.4075 18.2959 8.40752 18.2959 8.40753C18.2959 8.40754 18.2959 8.40756 18.2959 8.40757C18.2958 8.40758 18.2958 8.40759 18.2958 8.40761C18.2958 8.40762 18.2958 8.40763 18.2958 8.40765C18.2958 8.40766 18.2958 8.40767 18.2958 8.40769C18.2958 8.4077 18.2958 8.40771 18.2958 8.40773C18.2958 8.40774 18.2958 8.40775 18.2958 8.40777C18.2958 8.40778 18.2958 8.40779 18.2958 8.40781C18.2958 8.40782 18.2958 8.40783 18.2957 8.40785C18.2957 8.40786 18.2957 8.40787 18.2957 8.40789C18.2957 8.4079 18.2957 8.40792 18.2957 8.40793C18.2957 8.40794 18.2957 8.40796 18.2957 8.40797C18.2957 8.40798 18.2957 8.408 18.2957 8.40801C18.2957 8.40802 18.2957 8.40804 18.2957 8.40805C18.2957 8.40806 18.2957 8.40808 18.2957 8.40809C18.2956 8.4081 18.2956 8.40812 18.2956 8.40813C18.2956 8.40814 18.2956 8.40816 18.2956 8.40817C18.2956 8.40819 18.2956 8.4082 18.2956 8.40821C18.2956 8.40823 18.2956 8.40824 18.2956 8.40825C18.2956 8.40827 18.2956 8.40828 18.2956 8.40829C18.2956 8.40831 18.2956 8.40832 18.2956 8.40834C18.2956 8.40835 18.2956 8.40836 18.2955 8.40838C18.2955 8.40839 18.2955 8.4084 18.2955 8.40842C18.2955 8.40843 18.2955 8.40845 18.2955 8.40846C18.2955 8.40847 18.2955 8.40849 18.2955 8.4085C18.2955 8.40852 18.2955 8.40853 18.2955 8.40854C18.2955 8.40856 18.2955 8.40857 18.2955 8.40858C18.2955 8.4086 18.2955 8.40861 18.2955 8.40863C18.2954 8.40864 18.2954 8.40865 18.2954 8.40867C18.2954 8.40868 18.2954 8.4087 18.2954 8.40871C18.2954 8.40872 18.2954 8.40874 18.2954 8.40875C18.2954 8.40877 18.2954 8.40878 18.2954 8.40879C18.2954 8.40881 18.2954 8.40882 18.2954 8.40884C18.2954 8.40885 18.2954 8.40886 18.2954 8.40888C18.2953 8.40889 18.2953 8.40891 18.2953 8.40892C18.2953 8.40893 18.2953 8.40895 18.2953 8.40896C18.2953 8.40898 18.2953 8.40899 18.2953 8.409C18.2953 8.40902 18.2953 8.40903 18.2953 8.40905C18.2953 8.40906 18.2953 8.40907 18.2953 8.40909C18.2953 8.4091 18.2953 8.40912 18.2953 8.40913C18.2953 8.40915 18.2952 8.40916 18.2952 8.40917C18.2952 8.40919 18.2952 8.4092 18.2952 8.40922C18.2952 8.40923 18.2952 8.40925 18.2952 8.40926C18.2952 8.40927 18.2952 8.40929 18.2952 8.4093C18.2952 8.40932 18.2952 8.40933 18.2952 8.40935C18.2952 8.40936 18.2952 8.40937 18.2952 8.40939C18.2952 8.4094 18.2951 8.40942 18.2951 8.40943C18.2951 8.40945 18.2951 8.40946 18.2951 8.40947C18.2951 8.40949 18.2951 8.4095 18.2951 8.40952C18.2951 8.40953 18.2951 8.40955 18.2951 8.40956C18.2951 8.40958 18.2951 8.40959 18.2951 8.4096C18.2951 8.40962 18.2951 8.40963 18.2951 8.40965C18.2951 8.40966 18.295 8.40968 18.295 8.40969C18.295 8.40971 18.295 8.40972 18.295 8.40974C18.295 8.40975 18.295 8.40976 18.295 8.40978C18.295 8.40979 18.295 8.40981 18.295 8.40982C18.295 8.40984 18.295 8.40985 18.295 8.40987C18.295 8.40988 18.295 8.4099 18.295 8.40991C18.295 8.40993 18.2949 8.40994 18.2949 8.40995C18.2949 8.40997 18.2949 8.40998 18.2949 8.41C18.2949 8.41001 18.2949 8.41003 18.2949 8.41004C18.2949 8.41006 18.2949 8.41007 18.2949 8.41009C18.2949 8.4101 18.2949 8.41012 18.2949 8.41013C18.2949 8.41015 18.2949 8.41016 18.2949 8.41018C18.2949 8.41019 18.2948 8.41021 18.2948 8.41022C18.2948 8.41024 18.2948 8.41025 18.2948 8.41027C18.2948 8.41028 18.2948 8.41029 18.2948 8.41031C18.2948 8.41032 18.2948 8.41034 18.2948 8.41035C18.2948 8.41037 18.2948 8.41038 18.2948 8.4104C18.2948 8.41041 18.2948 8.41043 18.2948 8.41044C18.2948 8.41046 18.2947 8.41047 18.2947 8.41049C18.2947 8.4105 18.2947 8.41052 18.2947 8.41053C18.2947 8.41055 18.2947 8.41056 18.2947 8.41058C18.2947 8.41059 18.2947 8.41061 18.2947 8.41062C18.2947 8.41064 18.2947 8.41065 18.2947 8.41067L19.2291 8.76692ZM5.89641 17.4801C5.91592 17.4811 5.9355 17.4821 5.95488 17.483L6.00476 16.4843C5.98531 16.4833 5.96585 16.4823 5.9463 16.4814L5.89641 17.4801ZM12.4178 3.39622L12.5464 4.38792L12.552 4.38716L12.4178 3.39622ZM12.2287 3.46587L11.6834 2.62751L11.6734 2.63418L12.2287 3.46587ZM12.0437 3.58454L11.5048 2.74215L11.5024 2.74373L12.0437 3.58454ZM11.517 3.92278L10.9775 3.08076L10.9754 3.08212L11.517 3.92278ZM11.328 4.04439L10.6879 4.81266L11.2498 5.28089L11.8663 4.88714L11.328 4.04439ZM11.29 4.01346L11.9287 3.24384L11.919 3.23604L11.29 4.01346ZM10.7842 3.60498L11.4126 2.82705L11.4111 2.82589L10.7842 3.60498ZM10.5658 3.42889L9.93833 4.20752L9.93875 4.20787L10.5658 3.42889ZM10.498 3.3741L9.86343 4.14706L9.87289 4.15463L10.498 3.3741ZM10.4791 3.35843L11.1121 2.58426L11.0912 2.56715L11.0693 2.55118L10.4791 3.35843ZM10.4748 3.35529L9.81301 4.10495L9.84749 4.13539L9.88462 4.16253L10.4748 3.35529ZM10.4728 3.35353L11.1347 2.60387L11.1214 2.59213L11.1077 2.58087L10.4728 3.35353ZM10.131 3.24663L10.214 4.24319L10.2184 4.2428L10.131 3.24663ZM9.91202 3.32686L9.32694 2.51587L9.32346 2.51841L9.91202 3.32686ZM9.83082 3.39223L9.17321 2.63881L9.16626 2.64499L9.83082 3.39223ZM9.6591 3.55988L8.93726 2.86782L8.93669 2.86841L9.6591 3.55988ZM8.72527 4.73721L7.8999 4.17261L7.89939 4.17335L8.72527 4.73721ZM7.7345 6.4923L7.72808 7.49228L8.37641 7.49644L8.64479 6.90626L7.7345 6.4923ZM5.22543 6.72266L5.41198 7.7051L5.41259 7.70499L5.22543 6.72266ZM4.31183 6.9369L4.58768 7.8981L4.58902 7.89771L4.31183 6.9369ZM4.01019 7.03204L4.33992 7.97612L4.34155 7.97554L4.01019 7.03204ZM3.89839 7.07473L4.2809 7.9987L4.28486 7.99703L3.89839 7.07473ZM3.80206 7.11938L4.27153 8.00234L4.27555 8.00018L3.80206 7.11938ZM3.68156 7.2152L4.43514 7.87257L4.43835 7.86886L3.68156 7.2152ZM3.60832 7.33801L2.6739 6.98175L2.67142 6.98841L3.60832 7.33801ZM3.60229 7.61876L2.64927 7.92169L2.65839 7.95036L2.6692 7.97842L3.60229 7.61876ZM3.62182 7.68208L2.66708 7.97952L2.66755 7.98101L3.62182 7.68208ZM3.82078 8.32096L2.86588 8.61789L2.86605 8.61842L3.82078 8.32096ZM3.91988 8.63829L4.8756 8.344L4.87457 8.34069L3.91988 8.63829ZM3.92093 8.64169L4.43481 9.49955L5.10736 9.09667L4.87664 8.3474L3.92093 8.64169ZM3.87982 8.66644L4.39367 9.52434L4.39888 9.52118L3.87982 8.66644ZM3.33634 8.99232L2.82169 8.13491L2.82066 8.13554L3.33634 8.99232ZM3.10163 9.13294L2.58888 8.2744L2.58755 8.2752L3.10163 9.13294ZM3.02874 9.17651L2.53183 8.30871L2.50649 8.32322L2.48205 8.33918L3.02874 9.17651ZM3.00824 9.18916L3.50811 10.0553L3.54455 10.0342L3.5791 10.0102L3.00824 9.18916ZM3.0042 9.19149L3.42054 10.1007L3.46332 10.0811L3.50407 10.0576L3.0042 9.19149ZM3.00166 9.19266L2.58532 8.28344L2.53683 8.30565L2.49097 8.33289L3.00166 9.19266ZM2.8197 9.40633L1.8888 9.04104L1.88739 9.04469L2.8197 9.40633ZM2.7926 9.54674L3.7924 9.56774L3.7925 9.5609L2.7926 9.54674ZM2.81909 9.69959L3.75648 9.3513L3.7563 9.35082L2.81909 9.69959ZM2.86088 9.7959L3.76239 9.36315L3.75888 9.35584L3.75526 9.3486L2.86088 9.7959ZM2.97785 10.0107L3.8402 9.50438L3.83968 9.50349L2.97785 10.0107ZM3.87985 11.2745L3.10645 11.9084L3.10686 11.9089L3.87985 11.2745ZM5.33508 12.7842L6.28988 13.0814L6.48251 12.4626L5.99639 12.0341L5.33508 12.7842ZM4.86079 15.16L5.85637 15.2539L5.8564 15.2536L4.86079 15.16ZM4.81589 16.0678L5.8159 16.067L5.81589 16.064L4.81589 16.0678ZM4.82543 16.3763L5.82381 16.3185L5.82311 16.3083L4.82543 16.3763ZM4.83585 16.4931L5.82889 16.3752L5.82809 16.3688L4.83585 16.4931ZM4.85291 16.596L5.83015 16.3835L5.82759 16.3724L4.85291 16.596ZM4.9632 16.8023L5.68771 16.113L5.68409 16.1092L4.9632 16.8023ZM5.28914 16.9495L5.35986 15.952L5.34357 15.9508L5.32725 15.9502L5.28914 16.9495ZM5.3074 16.9504L5.35272 15.9515L5.3456 15.9511L5.33847 15.9509L5.3074 16.9504ZM5.97982 16.9837L5.92994 17.9824L5.931 17.9825L5.97982 16.9837ZM6.36134 17.0024L6.41778 16.0039L6.40933 16.0035L6.36134 17.0024ZM6.38677 17.0036L7.34909 16.7316L7.15696 16.0517L6.45193 16.0057L6.38677 17.0036ZM6.39951 17.0498L5.43294 17.3063L5.43484 17.3134L5.43683 17.3205L6.39951 17.0498ZM6.56941 17.6592L5.60602 17.9273L5.60606 17.9274L6.56941 17.6592ZM6.6653 18.0042L7.63023 17.7417L7.62904 17.7374L6.6653 18.0042ZM6.67155 18.0275L5.69826 18.2571L5.70457 18.2839L5.71234 18.3102L6.67155 18.0275ZM6.67305 18.0326L5.71384 18.3153L5.71717 18.3266L5.72076 18.3378L6.67305 18.0326ZM6.67377 18.0349L7.63797 17.7697L7.63243 17.7496L7.62605 17.7297L6.67377 18.0349ZM6.76871 18.2128L6.01174 18.8663L6.01467 18.8696L6.76871 18.2128ZM6.95593 18.3436L7.32023 17.4123L7.31218 17.4092L6.95593 18.3436ZM7.12125 18.3747L7.11823 19.3747L7.12783 19.3747L7.12125 18.3747ZM7.22785 18.369L7.31942 19.3648L7.32216 19.3645L7.22785 18.369ZM7.47204 18.3353L7.63805 19.3214L7.63969 19.3211L7.47204 18.3353ZM8.97145 17.9416L9.2904 18.8894L9.2905 18.8894L8.97145 17.9416ZM10.8678 17.1213L11.4382 16.2999L10.9336 15.9495L10.3929 16.2412L10.8678 17.1213ZM14.1453 18.7622L13.8514 19.7181L13.8602 19.7207L14.1453 18.7622ZM14.335 18.8146L14.0967 19.7858L14.1024 19.7871L14.335 18.8146ZM14.4889 18.8448L14.6166 17.853L14.6123 17.8524L14.4889 18.8448ZM14.6529 18.8359L14.4238 17.8625L14.4179 17.8639L14.6529 18.8359ZM14.8458 18.7343L15.52 19.4728L15.5211 19.4718L14.8458 18.7343ZM14.9455 18.5951L14.0396 18.1713L14.0338 18.1841L14.9455 18.5951ZM14.9594 18.5619L15.8938 18.9182L15.9 18.9018L15.9057 18.8853L14.9594 18.5619ZM14.9644 18.5474L14.0246 18.2056L14.0201 18.2183L14.9644 18.5474ZM15.1848 17.9406L14.2454 17.5978L14.2448 17.5993L15.1848 17.9406ZM15.3098 17.5969L14.3754 17.2407L14.3727 17.2477L14.3701 17.2548L15.3098 17.5969ZM15.318 17.5741L15.4089 16.5782L14.6537 16.5093L14.3836 17.2178L15.318 17.5741ZM15.3671 17.5778L15.4463 16.5809L15.4326 16.58L15.3671 17.5778ZM16.0155 17.6289L15.935 18.6256L15.9374 18.6258L16.0155 17.6289ZM16.2955 17.6508L16.2177 18.6478L16.2189 18.6478L16.2955 17.6508ZM16.3824 17.6575L16.4731 16.6615L16.4606 16.6606L16.3824 17.6575ZM16.4071 17.6594L16.4844 16.6624L16.4764 16.6618L16.4683 16.6613L16.4071 17.6594ZM16.4137 17.6599L16.5021 16.6638L16.491 16.6629L16.4137 17.6599ZM16.67 17.6094L17.1336 18.4955L17.143 18.4905L16.67 17.6094ZM16.7845 17.5213L17.5199 18.1989L17.5209 18.1979L16.7845 17.5213ZM16.8723 17.37L15.9234 17.0543L15.9195 17.0665L16.8723 17.37ZM16.8742 17.3643L17.823 17.68L17.827 17.6681L17.8307 17.656L16.8742 17.3643ZM16.8986 17.2653L17.8792 17.4616L17.8794 17.4604L16.8986 17.2653ZM16.9337 17.0306L15.9403 16.9155L15.9403 16.9157L16.9337 17.0306ZM16.9663 15.5262L17.9651 15.4766L17.965 15.4755L16.9663 15.5262ZM16.687 13.5084L16.1088 12.6925L15.5626 13.0796L15.7123 13.732L16.687 13.5084ZM18.5214 11.8928L19.2573 12.5699L19.2578 12.5693L18.5214 11.8928ZM19.1064 11.1959L19.905 11.7978L19.9064 11.7959L19.1064 11.1959ZM19.2841 10.9452L18.4502 10.3934L18.45 10.3936L19.2841 10.9452ZM19.3457 10.8469L18.4846 10.3385L18.4834 10.3406L19.3457 10.8469ZM19.3932 10.7572L18.4893 10.3295L18.4857 10.3373L19.3932 10.7572ZM19.4308 10.5799L20.4307 10.565L20.4306 10.5609L19.4308 10.5799ZM19.3761 10.3773L18.5012 10.8617L18.5016 10.8625L19.3761 10.3773ZM19.2473 10.2304L18.5784 10.9737L18.6137 11.0055L18.6519 11.0338L19.2473 10.2304ZM19.2454 10.2287L19.9144 9.48537L19.8838 9.45789L19.8511 9.43301L19.2454 10.2287ZM19.0675 10.094L18.4615 10.8894L18.4633 10.8907L19.0675 10.094ZM18.5555 9.70457L17.948 10.4989L17.951 10.5012L18.5555 9.70457ZM18.3717 9.56463L17.4496 9.17784L17.1493 9.89363L17.7683 10.362L18.3717 9.56463ZM18.3894 9.52097L19.313 9.90438L19.3158 9.89774L19.3184 9.89106L18.3894 9.52097ZM18.6202 8.94258L17.6918 8.57094L17.6913 8.57219L18.6202 8.94258ZM18.72 8.69311L17.7931 8.31771L17.7919 8.32065L18.72 8.69311ZM18.7509 8.61554L17.8259 8.23552L17.821 8.24734L17.8165 8.25929L18.7509 8.61554ZM18.7596 8.59395L17.8428 8.19477L17.8335 8.21603L17.8252 8.2377L18.7596 8.59395ZM18.7619 8.58879L19.6787 8.98797L19.688 8.96671L19.6963 8.94504L18.7619 8.58879ZM18.7665 8.57661L19.7009 8.93287L19.7029 8.92766L18.7665 8.57661ZM18.7791 8.31584L19.7453 8.05832L19.745 8.05724L18.7791 8.31584ZM18.7155 8.17979L17.8961 8.75296L17.8963 8.75324L18.7155 8.17979ZM18.5992 8.06409L19.1647 7.23932L19.1608 7.23666L18.5992 8.06409ZM18.4643 7.9847L18.9393 7.10463L18.9302 7.09983L18.4643 7.9847ZM18.1799 7.8488L18.5841 6.93415L18.5806 6.93262L18.1799 7.8488ZM17.7748 7.68337L18.131 6.74897L18.1304 6.74875L17.7748 7.68337ZM14.749 6.94004L13.8087 7.28051L14.018 7.85844L14.6282 7.93271L14.749 6.94004ZM13.6666 4.70248L12.8144 5.22572L12.8147 5.22624L13.6666 4.70248ZM13.1418 3.9249L13.9422 3.32538L13.9399 3.32241L13.1418 3.9249ZM12.9443 3.67541L13.7064 3.02792L13.7017 3.02238L12.9443 3.67541ZM12.8644 3.58506L13.5994 2.90702L13.5937 2.9008L13.5879 2.89469L12.8644 3.58506ZM12.7888 3.5103L13.4531 2.76287L13.4524 2.76225L12.7888 3.5103ZM12.6446 3.4229L12.2877 4.35703L12.2884 4.35729L12.6446 3.4229ZM5.92135 16.9807L5.87146 17.9795L5.87147 17.9795L5.92135 16.9807ZM12.2891 2.40452C12.0688 2.4331 11.8642 2.51002 11.6835 2.62757L12.7739 4.30418C12.7073 4.34745 12.6279 4.37733 12.5464 4.38791L12.2891 2.40452ZM11.6734 2.63418C11.6781 2.63106 11.6782 2.63105 11.6662 2.63881C11.657 2.64474 11.6443 2.65286 11.6284 2.66307C11.5966 2.68345 11.5542 2.71057 11.5048 2.74216L12.5826 4.42693C12.6718 4.36983 12.7598 4.31368 12.7839 4.29757L11.6734 2.63418ZM11.5024 2.74373C11.356 2.83795 11.1484 2.9713 10.9775 3.08077L12.0564 4.76479C12.2284 4.65463 12.4373 4.52048 12.585 4.42535L11.5024 2.74373ZM10.9754 3.08212C10.9007 3.13023 10.8394 3.1699 10.7897 3.20163L11.8663 4.88714C11.9203 4.85262 11.9882 4.80876 12.0585 4.76343L10.9754 3.08212ZM11.9681 3.27611C11.955 3.26517 11.9427 3.25528 11.9373 3.25096C11.9339 3.2482 11.9321 3.24675 11.9305 3.24542C11.929 3.24425 11.9285 3.24384 11.9286 3.2439L10.6515 4.78303C10.6643 4.79369 10.6761 4.80318 10.6816 4.80761C10.6889 4.81347 10.6889 4.81352 10.6879 4.81266L11.9681 3.27611ZM11.919 3.23604C11.7845 3.12723 11.5811 2.96315 11.4126 2.82705L10.1559 4.38291C10.3267 4.52092 10.5272 4.68255 10.6611 4.79089L11.919 3.23604ZM11.4111 2.82589C11.3181 2.75101 11.2603 2.70418 11.1929 2.64992L9.93875 4.20787C9.98431 4.24454 10.0805 4.32232 10.1573 4.38408L11.4111 2.82589ZM11.1933 2.65026C11.174 2.63475 11.1392 2.60641 11.1231 2.59358L9.87289 4.15463C9.89011 4.16843 9.90113 4.17755 9.93833 4.20752L11.1933 2.65026ZM11.1325 2.60121C11.1322 2.60091 11.1315 2.60031 11.1286 2.59795C11.1276 2.59708 11.1251 2.595 11.1228 2.59313C11.1205 2.59117 11.1166 2.58796 11.1121 2.58426L9.84615 4.1326C9.84393 4.13078 9.84257 4.12964 9.84295 4.12996C9.84341 4.13035 9.84387 4.13073 9.84598 4.13249C9.84945 4.13539 9.85587 4.14076 9.86348 4.147L11.1325 2.60121ZM11.0693 2.55118L11.0651 2.54804L9.88462 4.16253L9.88892 4.16567L11.0693 2.55118ZM11.1367 2.60563L11.1347 2.60387L9.81102 4.10319L9.81301 4.10495L11.1367 2.60563ZM11.1077 2.58087C10.9815 2.47718 10.8428 2.39788 10.6958 2.34185L9.98331 4.21063C9.9328 4.19138 9.88252 4.16275 9.83803 4.1262L11.1077 2.58087ZM10.6958 2.34185C10.5069 2.26981 10.2848 2.22929 10.0436 2.25046L10.2184 4.2428C10.1284 4.25071 10.0475 4.23512 9.98331 4.21063L10.6958 2.34185ZM10.048 2.25008C9.80216 2.27056 9.54684 2.35724 9.32695 2.51588L10.4971 4.13784C10.4479 4.17332 10.4001 4.19674 10.3571 4.21225C10.3142 4.22773 10.2667 4.23879 10.214 4.24318L10.048 2.25008ZM9.32346 2.51841C9.26304 2.56239 9.21494 2.60245 9.17324 2.63884L10.4884 4.14562C10.4956 4.13931 10.4987 4.13682 10.4995 4.13612C10.5 4.13572 10.5001 4.1357 10.5006 4.13531L9.32346 2.51841ZM9.16626 2.64499C9.0905 2.71237 9.01452 2.78723 8.93726 2.86782L10.3809 4.25193C10.4348 4.19579 10.4714 4.16082 10.4954 4.13947L9.16626 2.64499ZM8.93669 2.86841C8.66824 3.14887 8.29571 3.59398 7.8999 4.17261L9.55063 5.3018C9.89033 4.8052 10.1949 4.44626 10.3815 4.25134L8.93669 2.86841ZM7.89939 4.17335C7.54137 4.69774 7.1592 5.34168 6.8242 6.07835L8.64479 6.90626C8.92532 6.28937 9.24778 5.74539 9.55114 5.30106L7.89939 4.17335ZM7.74091 5.49232C6.70057 5.48565 5.76463 5.60194 5.03827 5.74033L5.41259 7.70499C6.03573 7.58627 6.84029 7.48659 7.72808 7.49228L7.74091 5.49232ZM5.03888 5.74021C4.64282 5.81542 4.30298 5.89867 4.03464 5.97608L4.58902 7.89771C4.79472 7.83837 5.07393 7.76929 5.41198 7.7051L5.03888 5.74021ZM4.03598 5.97569C3.90139 6.01432 3.7822 6.05223 3.67883 6.08853L4.34155 7.97554C4.40313 7.95391 4.48482 7.92762 4.58768 7.8981L4.03598 5.97569ZM3.68045 6.08796C3.62087 6.10877 3.56538 6.13003 3.51192 6.15243L4.28486 7.99703C4.29864 7.99126 4.31616 7.98441 4.33992 7.97611L3.68045 6.08796ZM3.51589 6.15078C3.47015 6.16971 3.4047 6.19765 3.32857 6.23858L4.27555 8.00018C4.27068 8.0028 4.26691 8.00457 4.26586 8.00506C4.26576 8.0051 4.26907 8.00358 4.28089 7.99869L3.51589 6.15078ZM3.33259 6.23643C3.17866 6.31828 3.03914 6.42913 2.92478 6.56153L4.43835 7.86886C4.38952 7.92539 4.33362 7.96931 4.27153 8.00233L3.33259 6.23643ZM2.92799 6.55783C2.80958 6.69358 2.7276 6.84096 2.67392 6.98176L4.54271 7.69426C4.52125 7.75054 4.48752 7.81251 4.43514 7.87256L2.92799 6.55783ZM2.67142 6.98841C2.55351 7.3044 2.55608 7.62849 2.64927 7.92169L4.5553 7.31582C4.57065 7.36413 4.58204 7.42524 4.58093 7.49526C4.57981 7.56591 4.56617 7.63146 4.54521 7.68761L2.67142 6.98841ZM2.6692 7.97842C2.6658 7.96959 2.66312 7.96226 2.66133 7.95727C2.65947 7.95209 2.65795 7.94772 2.65684 7.94448C2.65468 7.93821 2.65307 7.93329 2.65221 7.93065C2.65128 7.92778 2.65058 7.92558 2.6502 7.92439C2.6498 7.92312 2.64953 7.92226 2.64944 7.92194C2.64927 7.92143 2.64935 7.92166 2.64983 7.92324C2.65029 7.92474 2.65087 7.92664 2.6517 7.92939C2.65492 7.94 2.6604 7.95807 2.66708 7.97952L4.57656 7.38464C4.57231 7.37099 4.56881 7.35944 4.56539 7.3482C4.56399 7.34357 4.56165 7.33588 4.5595 7.32895C4.55843 7.32551 4.55646 7.31917 4.55405 7.31178C4.55283 7.30802 4.55089 7.30213 4.54845 7.29503C4.54645 7.28918 4.5418 7.27579 4.53537 7.25909L2.6692 7.97842ZM2.66755 7.98101C2.70586 8.1033 2.79034 8.37494 2.86588 8.61789L4.77568 8.02404C4.70051 7.78229 4.61521 7.508 4.5761 7.38315L2.66755 7.98101ZM2.86605 8.61842C2.90222 8.73451 2.94169 8.86052 2.96519 8.93589L4.87457 8.34069C4.84649 8.2506 4.8149 8.1499 4.77552 8.02351L2.86605 8.61842ZM2.96416 8.93258L2.96521 8.93598L4.87664 8.3474L4.8756 8.344L2.96416 8.93258ZM3.36598 7.80855C3.22161 7.89502 3.00452 8.02518 2.82169 8.13492L3.85099 9.84972C4.03326 9.74031 4.24981 9.61048 4.39366 9.52432L3.36598 7.80855ZM2.82066 8.13554C2.73081 8.18961 2.6494 8.23826 2.58888 8.27441L3.61439 9.99148C3.67523 9.95514 3.75909 9.90503 3.85202 9.8491L2.82066 8.13554ZM2.58755 8.2752C2.57182 8.28463 2.55309 8.29596 2.54475 8.30098C2.53272 8.30821 2.53037 8.30955 2.53183 8.30871L3.52565 10.0443C3.55474 10.0277 3.60095 9.99953 3.61571 9.99068L2.58755 8.2752ZM2.48205 8.33918C2.49779 8.3289 2.51056 8.32146 2.5073 8.32338C2.50702 8.32355 2.50468 8.32494 2.50234 8.32633C2.49981 8.32784 2.49554 8.3304 2.4904 8.33354C2.48526 8.33669 2.47805 8.34115 2.46957 8.3466C2.46113 8.35202 2.45008 8.35928 2.43738 8.36811L3.5791 10.0102C3.56755 10.0182 3.55774 10.0247 3.55061 10.0293C3.54344 10.0339 3.53762 10.0375 3.53394 10.0397C3.53025 10.042 3.52751 10.0436 3.52658 10.0442C3.52584 10.0446 3.52516 10.045 3.52661 10.0441C3.52832 10.0431 3.53516 10.0391 3.54322 10.0342C3.55173 10.029 3.56276 10.0221 3.57543 10.0138L2.48205 8.33918ZM2.50837 8.32306L2.50433 8.32539L3.50407 10.0576L3.50811 10.0553L2.50837 8.32306ZM2.58786 8.28228L2.58532 8.28344L3.41799 10.1019L3.42054 10.1007L2.58786 8.28228ZM2.49097 8.33289C2.22389 8.49153 2.0099 8.73245 1.88881 9.04105L3.7506 9.77162C3.72968 9.82492 3.69732 9.88153 3.65178 9.9345C3.60651 9.98716 3.55726 10.0257 3.51234 10.0524L2.49097 8.33289ZM1.88739 9.04469C1.82946 9.19402 1.79516 9.3591 1.7927 9.53257L3.7925 9.5609C3.79148 9.63312 3.77724 9.70297 3.75202 9.76798L1.88739 9.04469ZM1.8817 10.0479C1.90656 10.1148 1.93405 10.1783 1.9665 10.2432L3.75526 9.3486C3.75495 9.34798 3.75537 9.3488 3.75609 9.35045C3.75679 9.35207 3.75697 9.35263 3.75647 9.3513L1.8817 10.0479ZM1.95936 10.2286C2.0058 10.3254 2.05982 10.4224 2.11603 10.5179L3.83968 9.50349C3.79742 9.43169 3.77459 9.38856 3.76239 9.36315L1.95936 10.2286ZM2.1155 10.517C2.31542 10.8575 2.64847 11.3497 3.10645 11.9084L4.65324 10.6406C4.25429 10.1539 3.98236 9.7465 3.8402 9.50439L2.1155 10.517ZM3.10686 11.9089C3.52158 12.4142 4.04629 12.9811 4.67376 13.5343L5.99639 12.0341C5.46074 11.5618 5.0097 11.0749 4.65283 10.6401L3.10686 11.9089ZM4.38027 12.4869C4.08132 13.4472 3.93258 14.3497 3.86519 15.0663L5.8564 15.2536C5.91326 14.649 6.03934 13.8862 6.28988 13.0814L4.38027 12.4869ZM3.86522 15.066C3.82841 15.456 3.81488 15.797 3.8159 16.0715L5.81589 16.064C5.81512 15.8586 5.82532 15.5828 5.85637 15.2539L3.86522 15.066ZM3.81589 16.0686C3.816 16.2073 3.82016 16.3332 3.82775 16.4444L5.82311 16.3083C5.81902 16.2484 5.81597 16.1679 5.81589 16.067L3.81589 16.0686ZM3.82711 16.4342C3.83073 16.4966 3.83606 16.5572 3.84362 16.6175L5.82809 16.3688C5.82671 16.3577 5.82511 16.3418 5.82376 16.3185L3.82711 16.4342ZM3.84284 16.6111C3.84922 16.6648 3.85894 16.7355 3.87824 16.8196L5.82759 16.3724C5.82885 16.3779 5.8297 16.3826 5.83012 16.3852C5.83041 16.3869 5.83004 16.385 5.82887 16.3752L3.84284 16.6111ZM3.87575 16.8085C3.9335 17.0741 4.06683 17.3128 4.24232 17.4953L5.68409 16.1092C5.72313 16.1498 5.75251 16.1917 5.77472 16.2328C5.79699 16.274 5.81715 16.3241 5.83008 16.3835L3.87575 16.8085ZM4.23871 17.4916C4.39942 17.6605 4.58806 17.7794 4.78182 17.8532L5.49432 15.9845C5.56377 16.0109 5.63123 16.0536 5.6877 16.113L4.23871 17.4916ZM4.78182 17.8532C4.93325 17.911 5.09134 17.9427 5.25103 17.9487L5.32725 15.9502C5.38227 15.9523 5.43933 15.9635 5.49432 15.9845L4.78182 17.8532ZM5.28914 16.9495C5.21843 17.947 5.21844 17.947 5.21846 17.947C5.21847 17.947 5.21848 17.947 5.2185 17.947C5.21852 17.947 5.21854 17.947 5.21857 17.947C5.21861 17.947 5.21866 17.947 5.21871 17.947C5.21881 17.947 5.21891 17.947 5.21901 17.947C5.21922 17.947 5.21944 17.947 5.21967 17.9471C5.22014 17.9471 5.22065 17.9471 5.22121 17.9472C5.22233 17.9472 5.22366 17.9473 5.22516 17.9474C5.22812 17.9476 5.23199 17.9479 5.23649 17.9481C5.24422 17.9486 5.259 17.9494 5.27633 17.9499L5.33847 15.9509C5.34722 15.9512 5.35287 15.9515 5.35362 15.9516C5.35462 15.9516 5.35554 15.9517 5.35641 15.9517C5.35688 15.9518 5.35738 15.9518 5.35794 15.9518C5.35822 15.9519 5.35852 15.9519 5.35883 15.9519C5.35899 15.9519 5.35916 15.9519 5.35933 15.9519C5.35941 15.9519 5.3595 15.952 5.35959 15.952C5.35963 15.952 5.35968 15.952 5.35972 15.952C5.35974 15.952 5.35977 15.952 5.35979 15.952C5.3598 15.952 5.35982 15.952 5.35982 15.952C5.35984 15.952 5.35986 15.952 5.28914 16.9495ZM5.931 17.9825C6.07203 17.9894 6.21119 17.9963 6.31334 18.0012L6.40933 16.0035C6.30794 15.9986 6.1728 15.9919 6.02864 15.9849L5.931 17.9825ZM6.30489 18.0008C6.31232 18.0012 6.31871 18.0015 6.32343 18.0017C6.3277 18.0019 6.33202 18.0021 6.33313 18.0021C6.33512 18.0022 6.33432 18.0022 6.33279 18.0021C6.33105 18.002 6.32703 18.0018 6.32161 18.0014L6.45193 16.0057C6.44255 16.0051 6.43453 16.0047 6.42872 16.0044C6.42313 16.0041 6.4182 16.0039 6.41597 16.0038C6.40948 16.0036 6.41333 16.0037 6.41778 16.0039L6.30489 18.0008ZM5.42446 17.2755C5.42795 17.2879 5.43051 17.2971 5.43294 17.3063L7.36607 16.7934C7.35966 16.7693 7.35381 16.7484 7.34909 16.7316L5.42446 17.2755ZM5.43683 17.3205C5.48179 17.4804 5.54882 17.7217 5.60602 17.9273L7.5328 17.3911C7.47626 17.1879 7.40808 16.9425 7.36218 16.7792L5.43683 17.3205ZM5.60606 17.9274C5.63398 18.0277 5.66054 18.1236 5.67958 18.1917L7.60584 17.6537C7.58681 17.5856 7.56207 17.4962 7.53276 17.3909L5.60606 17.9274ZM5.67958 18.1917C5.68869 18.2244 5.69562 18.2496 5.70156 18.2711L7.62904 17.7374C7.62418 17.7198 7.61576 17.6892 7.60584 17.6537L5.67958 18.1917ZM5.70038 18.2667C5.70144 18.2706 5.7024 18.2741 5.70302 18.2764C5.70377 18.2791 5.70394 18.2797 5.70406 18.2802C5.70415 18.2805 5.70362 18.2786 5.70281 18.2755C5.70204 18.2725 5.70034 18.2659 5.69826 18.2571L7.64485 17.798C7.64212 17.7864 7.63966 17.7768 7.63802 17.7705C7.63634 17.7641 7.63484 17.7585 7.63387 17.755C7.63292 17.7515 7.63195 17.748 7.63147 17.7462C7.63086 17.744 7.63052 17.7428 7.63022 17.7417L5.70038 18.2667ZM5.71234 18.3102L5.71384 18.3153L7.63226 17.7499L7.63077 17.7449L5.71234 18.3102ZM5.72076 18.3378L5.72148 18.3401L7.62605 17.7297L7.62534 17.7274L5.72076 18.3378ZM5.70957 18.3C5.76651 18.5071 5.86781 18.6995 6.01174 18.8663L7.52567 17.5594C7.57847 17.6205 7.61722 17.6942 7.63797 17.7697L5.70957 18.3ZM6.01467 18.8696C6.15811 19.0343 6.35356 19.1842 6.59968 19.278L7.31218 17.4092C7.4016 17.4433 7.47177 17.4975 7.52275 17.556L6.01467 18.8696ZM6.59164 19.2749C6.75872 19.3403 6.93934 19.3742 7.11823 19.3747L7.12427 17.3747C7.18968 17.3749 7.25426 17.3865 7.32022 17.4123L6.59164 19.2749ZM7.12783 19.3747C7.20246 19.3742 7.26492 19.3698 7.31942 19.3647L7.13628 17.3732C7.12548 17.3741 7.12043 17.3745 7.1182 17.3746C7.1165 17.3747 7.11574 17.3747 7.11467 17.3747L7.12783 19.3747ZM7.32216 19.3645C7.42212 19.355 7.5273 19.34 7.63805 19.3214L7.30602 17.3492C7.22438 17.3629 7.16989 17.37 7.13353 17.3734L7.32216 19.3645ZM7.63969 19.3211C8.02963 19.2548 8.60909 19.1187 9.2904 18.8894L8.6525 16.9938C8.06269 17.1923 7.58438 17.3018 7.30438 17.3494L7.63969 19.3211ZM9.2905 18.8894C9.90736 18.6817 10.617 18.3928 11.3426 18.0013L10.3929 16.2412C9.78282 16.5704 9.18001 16.8163 8.6524 16.9939L9.2905 18.8894ZM10.2973 17.9426C11.4173 18.7205 12.5121 19.2277 13.2638 19.5143L13.9763 17.6455C13.3429 17.404 12.3989 16.9672 11.4382 16.2999L10.2973 17.9426ZM13.2638 19.5143C13.4892 19.6002 13.687 19.6675 13.8514 19.7181L14.4393 17.8064C14.3193 17.7695 14.163 17.7167 13.9763 17.6455L13.2638 19.5143ZM13.8602 19.7207C13.9407 19.7447 14.0201 19.767 14.0967 19.7857L14.5733 17.8434C14.5393 17.835 14.4933 17.8225 14.4304 17.8037L13.8602 19.7207ZM14.1024 19.7871C14.1613 19.8012 14.2533 19.8232 14.3654 19.8371L14.6123 17.8524C14.6195 17.8533 14.621 17.8547 14.5676 17.842L14.1024 19.7871ZM14.3612 19.8366C14.5388 19.8595 14.7183 19.8489 14.8879 19.8079L14.4179 17.8639C14.4833 17.8481 14.5497 17.8444 14.6166 17.853L14.3612 19.8366ZM14.8821 19.8093C15.1409 19.7484 15.3561 19.6224 15.52 19.4728L14.1716 17.9957C14.2367 17.9363 14.3219 17.8865 14.4238 17.8625L14.8821 19.8093ZM15.5211 19.4718C15.6745 19.3314 15.7832 19.1701 15.8571 19.006L14.0338 18.1841C14.0606 18.1248 14.1049 18.0568 14.1705 17.9968L15.5211 19.4718ZM15.8513 19.0188C15.8515 19.0182 15.8535 19.014 15.8549 19.0111C15.8566 19.0075 15.8594 19.0014 15.8626 18.9942C15.8697 18.9784 15.8791 18.9567 15.8891 18.9304L14.0204 18.2179C14.0279 18.1981 14.0347 18.1824 14.0389 18.1733C14.0398 18.1712 14.0405 18.1696 14.041 18.1685C14.0415 18.1675 14.0418 18.1669 14.0418 18.1669C14.0418 18.1669 14.0417 18.1671 14.0413 18.1679C14.0411 18.1684 14.0402 18.1702 14.0397 18.1713L15.8513 19.0188ZM15.8891 18.9304L15.8905 18.9269L14.0217 18.2144L14.0204 18.2179L15.8891 18.9304ZM15.8905 18.9269L15.8938 18.9182L14.025 18.2057L14.0217 18.2144L15.8905 18.9269ZM14.9594 18.5619C15.9057 18.8853 15.9057 18.8853 15.9057 18.8853C15.9057 18.8853 15.9057 18.8853 15.9057 18.8853C15.9057 18.8853 15.9057 18.8853 15.9057 18.8853C15.9057 18.8853 15.9057 18.8853 15.9057 18.8853C15.9057 18.8853 15.9057 18.8853 15.9057 18.8853C15.9057 18.8854 15.9057 18.8854 15.9057 18.8854C15.9057 18.8854 15.9057 18.8854 15.9057 18.8853C15.9057 18.8853 15.9057 18.8851 15.9058 18.8849C15.906 18.8844 15.9062 18.8837 15.9065 18.8828C15.9072 18.8809 15.908 18.8786 15.9087 18.8765L14.0201 18.2183C14.0182 18.2237 14.0165 18.2287 14.0153 18.2321C14.0147 18.2339 14.0142 18.2354 14.0138 18.2365C14.0136 18.2371 14.0135 18.2375 14.0134 18.2379C14.0133 18.2381 14.0133 18.2382 14.0132 18.2383C14.0132 18.2384 14.0132 18.2384 14.0132 18.2385C14.0132 18.2385 14.0131 18.2385 14.0131 18.2385C14.0131 18.2386 14.0131 18.2386 14.0131 18.2386C14.0131 18.2386 14.0131 18.2386 14.0131 18.2386C14.0131 18.2386 14.0131 18.2386 14.0131 18.2386C14.0131 18.2386 14.0131 18.2386 14.9594 18.5619ZM15.9042 18.8892C15.9311 18.8152 16.0314 18.539 16.1248 18.2818L14.2448 17.5993C14.1513 17.8568 14.0513 18.1323 14.0246 18.2056L15.9042 18.8892ZM16.1242 18.2833C16.1708 18.1557 16.2171 18.028 16.2495 17.939L14.3701 17.2548C14.3358 17.3491 14.2921 17.4696 14.2454 17.5978L16.1242 18.2833ZM16.2442 17.9532C16.2483 17.9423 16.2517 17.933 16.2541 17.9263C16.2563 17.9201 16.2582 17.9145 16.2587 17.913C16.2597 17.9103 16.2591 17.912 16.2583 17.9143C16.2573 17.9169 16.2553 17.9227 16.2524 17.9303L14.3836 17.2178C14.3793 17.2291 14.3759 17.2386 14.3736 17.245C14.3715 17.251 14.3696 17.2565 14.3692 17.2576C14.3684 17.2599 14.369 17.2582 14.3698 17.2558C14.3708 17.253 14.3728 17.2476 14.3754 17.2407L16.2442 17.9532ZM15.2271 18.5699C15.254 18.5724 15.2794 18.5742 15.3015 18.5757L15.4326 16.58C15.42 16.5791 15.4129 16.5786 15.4089 16.5782L15.2271 18.5699ZM15.2879 18.5747C15.466 18.5888 15.7165 18.608 15.935 18.6256L16.096 16.6321C15.8793 16.6146 15.6121 16.5941 15.4463 16.581L15.2879 18.5747ZM15.9374 18.6258C16.046 18.6343 16.1451 18.6421 16.2177 18.6478L16.3733 16.6538C16.3011 16.6482 16.2024 16.6404 16.0936 16.6319L15.9374 18.6258ZM16.2189 18.6478C16.2554 18.6507 16.2839 18.6528 16.3043 18.6544L16.4606 16.6606C16.4382 16.6588 16.4077 16.6565 16.3722 16.6537L16.2189 18.6478ZM16.2918 18.6534C16.3111 18.6551 16.329 18.6565 16.3458 18.6575L16.4683 16.6613C16.4728 16.6616 16.4745 16.6617 16.4731 16.6616L16.2918 18.6534ZM16.3298 18.6564L16.3364 18.6569L16.491 16.6629L16.4844 16.6624L16.3298 18.6564ZM16.3253 18.656C16.6002 18.6804 16.8768 18.6298 17.1336 18.4955L16.2065 16.7233C16.2475 16.7019 16.2975 16.6831 16.354 16.6721C16.4102 16.6612 16.461 16.6602 16.502 16.6638L16.3253 18.656ZM17.143 18.4905C17.2711 18.4217 17.402 18.3268 17.5199 18.1989L16.0491 16.8436C16.0982 16.7903 16.1506 16.7533 16.1971 16.7283L17.143 18.4905ZM17.5209 18.1979C17.6404 18.0678 17.7359 17.914 17.7999 17.7462L15.9311 17.0337C15.9575 16.9643 15.9966 16.9008 16.0482 16.8447L17.5209 18.1979ZM17.7999 17.7462C17.8149 17.7068 17.8252 17.6731 17.8251 17.6736L15.9195 17.0665C15.919 17.0679 15.9185 17.0695 15.9185 17.0695C15.9184 17.07 15.9185 17.0697 15.9186 17.0691C15.919 17.068 15.9199 17.0653 15.921 17.0618C15.9235 17.0545 15.9268 17.0448 15.9311 17.0337L17.7999 17.7462ZM17.8211 17.6858L17.823 17.68L15.9253 17.0486L15.9234 17.0543L17.8211 17.6858ZM17.8307 17.656C17.8534 17.5815 17.8679 17.5176 17.8792 17.4616L15.9181 17.069C15.9164 17.0772 15.9159 17.0793 15.9161 17.0784C15.9165 17.0769 15.9171 17.0746 15.9177 17.0726L17.8307 17.656ZM17.8794 17.4604C17.8993 17.3603 17.9144 17.2551 17.927 17.1455L15.9403 16.9157C15.9313 16.9935 15.9236 17.0413 15.9178 17.0702L17.8794 17.4604ZM17.927 17.1457C17.9716 16.7612 18 16.1812 17.9651 15.4766L15.9675 15.5757C15.9975 16.1796 15.9712 16.649 15.9403 16.9155L17.927 17.1457ZM17.965 15.4755C17.9326 14.8362 17.8453 14.0855 17.6617 13.2848L15.7123 13.732C15.8664 14.4038 15.9402 15.0372 15.9676 15.5768L17.965 15.4755ZM17.2652 14.3243C18.0972 13.7346 18.7679 13.1018 19.2573 12.5699L17.7855 11.2157C17.374 11.663 16.8071 12.1976 16.1088 12.6925L17.2652 14.3243ZM19.2578 12.5693C19.5242 12.2794 19.7407 12.0157 19.905 11.7978L18.3078 10.594C18.1839 10.7584 18.009 10.9724 17.785 11.2163L19.2578 12.5693ZM19.9064 11.7959C19.9886 11.6863 20.0591 11.5862 20.1183 11.4968L18.45 10.3936C18.4153 10.4461 18.368 10.5138 18.3064 10.5959L19.9064 11.7959ZM20.1181 11.497C20.1504 11.4483 20.1801 11.4008 20.208 11.3532L18.4834 10.3406C18.4754 10.3542 18.4649 10.3712 18.4502 10.3934L20.1181 11.497ZM20.2068 11.3553C20.2372 11.3039 20.2689 11.2461 20.3008 11.1771L18.4857 10.3373C18.4865 10.3356 18.4874 10.3338 18.488 10.3325C18.4885 10.3316 18.4878 10.3331 18.4846 10.3385L20.2068 11.3553ZM20.2972 11.1849C20.3195 11.1377 20.3339 11.0999 20.3383 11.0881L18.4696 10.3756C18.4689 10.3774 18.4716 10.3702 18.4753 10.3612C18.4791 10.3519 18.4838 10.3412 18.4893 10.3295L20.2972 11.1849ZM20.3383 11.0881C20.4031 10.9182 20.4332 10.739 20.4306 10.565L18.4309 10.5947C18.4298 10.521 18.442 10.4479 18.4696 10.3756L20.3383 11.0881ZM20.4306 10.5609C20.4258 10.3081 20.3548 10.0802 20.2505 9.89214L18.5016 10.8625C18.4612 10.7897 18.4328 10.6998 18.4309 10.5988L20.4306 10.5609ZM20.2509 9.89297C20.1496 9.70999 20.012 9.55248 19.8428 9.42704L18.6519 11.0338C18.5908 10.9885 18.538 10.9282 18.5012 10.8617L20.2509 9.89297ZM19.9163 9.4871L19.9144 9.48537L18.5765 10.972L18.5784 10.9737L19.9163 9.4871ZM19.8511 9.43301C19.8365 9.42184 19.7617 9.3654 19.6718 9.29718L18.4633 10.8907C18.5613 10.9651 18.6255 11.0136 18.6397 11.0243L19.8511 9.43301ZM19.6736 9.29853C19.5302 9.18933 19.3272 9.03489 19.1599 8.90795L17.951 10.5012C18.117 10.6272 18.3189 10.7808 18.4615 10.8894L19.6736 9.29853ZM19.1629 8.91024C19.0921 8.85603 19.0277 8.80698 18.9752 8.76722L17.7683 10.362C17.8169 10.3988 17.8782 10.4456 17.948 10.4989L19.1629 8.91024ZM19.2939 9.95142C19.3006 9.93538 19.3065 9.92054 19.309 9.91433C19.3106 9.91025 19.3114 9.90823 19.3122 9.90632C19.3129 9.90466 19.3131 9.90418 19.313 9.90438L17.4658 9.13757C17.4596 9.15267 17.454 9.16655 17.4516 9.17259C17.4483 9.18089 17.4486 9.18012 17.4496 9.17784L19.2939 9.95142ZM19.3184 9.89106C19.3796 9.73757 19.4712 9.50826 19.549 9.31297L17.6913 8.57219C17.6144 8.76508 17.5215 8.99758 17.4604 9.15088L19.3184 9.89106ZM19.5485 9.31422C19.5883 9.21477 19.6222 9.12986 19.648 9.06557L17.7919 8.32065C17.7659 8.38541 17.73 8.47556 17.6918 8.57094L19.5485 9.31422ZM19.6468 9.06851C19.6591 9.03828 19.6738 9.00193 19.6853 8.97179L17.8165 8.25929C17.8137 8.26662 17.8071 8.28312 17.7931 8.31771L19.6468 9.06851ZM19.6758 8.99556C19.6769 8.9929 19.6798 8.98585 19.6819 8.98074C19.6832 8.97769 19.6848 8.97358 19.6867 8.96898C19.6884 8.96456 19.6911 8.95797 19.694 8.9502L17.8252 8.2377C17.8273 8.23231 17.8288 8.22843 17.8294 8.22703C17.83 8.22545 17.8303 8.22467 17.8301 8.22523C17.8299 8.22576 17.8295 8.22672 17.8287 8.22862C17.8282 8.22993 17.8268 8.23321 17.8259 8.23552L19.6758 8.99556ZM19.6765 8.99312L19.6787 8.98797L17.845 8.18962L17.8428 8.19477L19.6765 8.99312ZM19.7029 8.92766C19.8047 8.65605 19.8249 8.3569 19.7453 8.05832L17.8128 8.57335C17.7991 8.52204 17.7915 8.46171 17.795 8.3962C17.7985 8.33096 17.8123 8.27308 17.8302 8.22557L19.7029 8.92766ZM19.745 8.05724C19.704 7.90404 19.6351 7.74971 19.5347 7.60633L17.8963 8.75324C17.8569 8.69701 17.8297 8.63649 17.8131 8.57444L19.745 8.05724ZM19.5349 7.60662C19.4396 7.47035 19.3152 7.34253 19.1647 7.23933L18.0337 8.88885C17.9749 8.8485 17.9304 8.80211 17.8961 8.75296L19.5349 7.60662ZM19.1608 7.23666C19.0716 7.17614 18.992 7.1331 18.9393 7.10468L17.9894 8.86472C18.0379 8.89087 18.0395 8.89278 18.0376 8.89152L19.1608 7.23666ZM18.9302 7.09983C18.8304 7.04729 18.715 6.99201 18.5841 6.93415L17.7756 8.76345C17.8745 8.80716 17.9475 8.84271 17.9985 8.86957L18.9302 7.09983ZM18.5806 6.93262C18.4516 6.87615 18.3011 6.81382 18.131 6.74897L17.4185 8.61776C17.5569 8.67052 17.6777 8.7206 17.7791 8.76498L18.5806 6.93262ZM18.1304 6.74875C17.3788 6.46273 16.224 6.11222 14.8698 5.94737L14.6282 7.93271C15.7893 8.07407 16.7849 8.37664 17.4191 8.61798L18.1304 6.74875ZM15.6893 6.59958C15.3406 5.6368 14.9048 4.80721 14.5184 4.17873L12.8147 5.22624C13.1442 5.76214 13.5149 6.46898 13.8087 7.28051L15.6893 6.59958ZM14.5187 4.17925C14.3079 3.83577 14.1093 3.54853 13.9422 3.32538L12.3415 4.52442C12.4716 4.69812 12.6355 4.93443 12.8144 5.22572L14.5187 4.17925ZM13.9399 3.32241C13.8595 3.21588 13.7809 3.11557 13.7064 3.02793L12.1822 4.32289C12.222 4.36964 12.275 4.43635 12.3437 4.5274L13.9399 3.32241ZM13.7017 3.02238C13.6709 2.98674 13.6359 2.94657 13.5994 2.90702L12.1294 4.26309C12.1426 4.27739 12.16 4.29715 12.187 4.32845L13.7017 3.02238ZM13.5879 2.89469C13.5641 2.8698 13.5153 2.81817 13.4531 2.76287L12.1244 4.25772C12.1202 4.25393 12.1181 4.2518 12.1199 4.25354C12.1209 4.25463 12.1229 4.25667 12.1265 4.26036C12.1303 4.26425 12.1345 4.2687 12.1409 4.27542L13.5879 2.89469ZM13.4524 2.76225C13.3183 2.64321 13.1632 2.5504 13.0009 2.48851L12.2884 4.35729C12.2285 4.33444 12.1745 4.30211 12.1251 4.25834L13.4524 2.76225ZM13.0016 2.48878C12.7561 2.39499 12.5075 2.37493 12.2835 2.40527L12.552 4.38716C12.4672 4.39865 12.3761 4.39079 12.2877 4.35703L13.0016 2.48878ZM1.79282 9.52573C1.78902 9.70673 1.82147 9.88602 1.88188 10.0484L3.7563 9.35082C3.78028 9.41526 3.79409 9.48646 3.79238 9.56774L1.79282 9.52573ZM3.40704 7.78383C3.39405 7.79162 3.37827 7.80107 3.36075 7.8117L4.39888 9.52118C4.41052 9.51411 4.42139 9.50759 4.43481 9.49955L3.40704 7.78383ZM5.26208 17.9494C5.33528 17.9527 5.60245 17.9661 5.87146 17.9795L5.97124 15.982C5.70626 15.9688 5.43192 15.955 5.35272 15.9515L5.26208 17.9494ZM5.87147 17.9795L5.92994 17.9824L6.0297 15.9849L5.97123 15.982L5.87147 17.9795ZM19.6963 8.94504L19.7009 8.93286L17.8321 8.22036L17.8275 8.23254L19.6963 8.94504Z" fill="rgb(235, 235, 235)" mask="url(#path-1-inside-1_1802_26)"/>
<path d="M10.9192 9.67964C10.8734 9.79992 10.9057 9.93006 10.9902 10.0165L10.6652 10.8688L10.2922 10.0363C10.3716 9.94558 10.3965 9.81373 10.344 9.69591C10.2718 9.53486 10.0829 9.46285 9.92188 9.53497C9.76076 9.60739 9.68861 9.79618 9.76089 9.95724C9.81353 10.0747 9.92851 10.1439 10.0493 10.1454L10.4222 10.9778L9.56975 10.6528C9.56191 10.532 9.48607 10.421 9.36592 10.3752C9.20089 10.3123 9.01637 10.3951 8.95352 10.5599C8.89066 10.7248 8.97326 10.9094 9.13827 10.9723C9.25842 11.0181 9.38879 10.9861 9.47506 10.9012L10.3275 11.2262L9.49508 11.5991C9.40395 11.5198 9.27211 11.4949 9.15459 11.5475C8.99344 11.6195 8.92132 11.8087 8.99371 11.9694C9.06572 12.1307 9.25458 12.2028 9.41585 12.1304C9.53336 12.0778 9.60242 11.9631 9.60372 11.8422L10.4363 11.4693L10.1114 12.3214C9.99082 12.3296 9.88008 12.4052 9.8341 12.5258C9.77136 12.6904 9.85397 12.8753 10.0188 12.9382C10.1836 13.001 10.3683 12.918 10.4311 12.7534C10.4771 12.6328 10.4446 12.5027 10.3601 12.4162L10.685 11.5642L11.0579 12.3967C10.9784 12.4877 10.9538 12.6193 11.0061 12.7371C11.0784 12.8981 11.2673 12.9701 11.4283 12.8981C11.5893 12.8259 11.6614 12.6368 11.5893 12.4758C11.5368 12.3583 11.4217 12.2891 11.3008 12.2876L10.9279 11.4551L11.7804 11.7802C11.7884 11.901 11.8642 12.0117 11.9845 12.0575C12.1492 12.1203 12.3339 12.0376 12.3967 11.8728C12.4596 11.7079 12.3769 11.5232 12.2122 11.4604C12.0918 11.4146 11.9615 11.447 11.8751 11.5318L11.0225 11.2068L11.8551 10.8339C11.9462 10.9132 12.0783 10.9379 12.1957 10.8852C12.3566 10.8134 12.4287 10.6243 12.3565 10.4636C12.2845 10.3023 12.0954 10.2302 11.9343 10.3026C11.8171 10.355 11.7477 10.4699 11.7465 10.5908L10.9139 10.9637L11.2389 10.1113C11.3595 10.1031 11.4704 10.0276 11.5162 9.90727C11.5791 9.7424 11.4965 9.5578 11.3316 9.49495C11.1666 9.43201 10.9821 9.51478 10.9192 9.67964Z" fill="rgb(235, 235, 235)"/>
</svg>
