<svg width="121" height="121" viewBox="0 0 121 121" fill="none" xmlns="http://www.w3.org/2000/svg">
<g clip-path="url(#clip0_2048_3)">
<path d="M18.15 0.5H102.85C112.598 0.5 120.5 8.40217 120.5 18.15V102.85C120.5 112.598 112.598 120.5 102.85 120.5H18.15C8.40217 120.5 0.5 112.598 0.5 102.85V18.15C0.5 8.40217 8.40217 0.5 18.15 0.5Z" fill="rgb(15, 15, 15)" stroke="white"/>
<path d="M31.3592 47C29.9007 47 28.7183 48.1902 28.7183 49.6582V61.1772H14.2817V49.6582C14.2817 48.1902 13.0993 47 11.6408 47C10.1824 47 9 48.1902 9 49.6582V72.3418C9 73.8098 10.1824 75 11.6408 75C13.0993 75 14.2817 73.8098 14.2817 72.3418V66.4937H28.7183V72.3418C28.7183 73.8098 29.9007 75 31.3592 75C32.8176 75 34 73.8098 34 72.3418V49.6582C34 48.1902 32.8176 47 31.3592 47Z" fill="rgb(235, 235, 235)"/>
<path d="M63.6408 75C65.0993 75 66.2817 73.8098 66.2817 72.3418V59.2553L69.8271 65.2033C70.3042 66.0039 71.1641 66.4938 72.0915 66.4938H74.9085C75.8359 66.4938 76.6958 66.0039 77.1729 65.2033L80.7183 59.2553V72.3418C80.7183 73.8098 81.9007 75 83.3592 75C84.8176 75 86 73.8098 86 72.3418V49.6585C86 48.4637 85.2081 47.4157 84.0641 47.0967C82.9201 46.7777 81.7056 47.2661 81.0947 48.2908L73.5 61.0317L65.9053 48.2908C65.2947 47.2661 64.0792 46.7784 62.9359 47.0967C61.7919 47.4157 61 48.4637 61 49.6585V72.3418C61 73.8098 62.1824 75 63.6408 75Z" fill="rgb(235, 235, 235)"/>
<path d="M39.619 52.3165H45.381V72.3418C45.381 73.8098 46.5536 75 48 75C49.4464 75 50.619 73.8098 50.619 72.3418V52.3165H56.381C57.8274 52.3165 59 51.1263 59 49.6582C59 48.1902 57.8274 47 56.381 47H39.619C38.1726 47 37 48.1902 37 49.6582C37 51.1263 38.1726 52.3165 39.619 52.3165Z" fill="rgb(235, 235, 235)"/>
<path d="M95.5909 75H109.409C110.84 75 112 73.8098 112 72.3418C112 70.8737 110.84 69.6835 109.409 69.6835H98.1818V49.6582C98.1818 48.1902 97.0218 47 95.5909 47C94.16 47 93 48.1902 93 49.6582V72.3418C93 73.8098 94.16 75 95.5909 75Z" fill="rgb(235, 235, 235)"/>
</g>
<defs>
<clipPath id="clip0_2048_3">
<rect width="121" height="121" fill="rgb(235, 235, 235)"/>
</clipPath>
</defs>
</svg>
