<svg width="121" height="121" viewBox="0 0 121 121" fill="none" xmlns="http://www.w3.org/2000/svg">
<g clip-path="url(#clip0_1521_102)">
<path d="M18.15 0.5H102.85C112.598 0.5 120.5 8.40217 120.5 18.15V102.85C120.5 112.598 112.598 120.5 102.85 120.5H18.15C8.40217 120.5 0.5 112.598 0.5 102.85V18.15C0.5 8.40217 8.40217 0.5 18.15 0.5Z" fill="black" stroke="white"/>
<path d="M102.614 56.7882L94.7098 61.9152C93.8148 60.3458 92.8389 59.1843 91.6796 58.4017C90.3979 57.5365 88.9356 57.1641 87.2051 57.1641C85.4423 57.1641 83.9553 57.7322 82.9046 58.7173C81.8525 59.7036 81.2695 61.0792 81.2695 62.627C81.2695 64.4186 81.8582 65.7371 83.1194 66.8689C84.3408 67.9651 86.1868 68.8791 88.6624 69.9401L88.6671 69.942L91.4943 71.1199C91.4957 71.1206 91.4971 71.1212 91.4986 71.1218C96.3341 73.2449 100.032 75.2791 102.526 77.9458C104.998 80.5878 106.32 83.8866 106.32 88.623C106.32 93.5584 104.376 97.3706 101.132 99.9601C97.8751 102.56 93.2685 103.957 87.9141 103.957C77.6855 103.957 71.0764 99.3012 67.7801 93.0726L76.395 88.119C77.5513 89.9903 78.941 91.6122 80.693 92.7897C82.5823 94.0596 84.8665 94.7949 87.6777 94.7949C90.1191 94.7949 92.1812 94.1851 93.6468 93.1018C95.1224 92.0112 95.9766 90.449 95.9766 88.623C95.9766 86.5554 95.1183 85.1193 93.6009 83.918C92.1242 82.749 89.9906 81.7775 87.412 80.6054L87.4047 80.6021L87.3974 80.599L84.5661 79.4193C84.5653 79.419 84.5646 79.4187 84.5638 79.4184C80.4492 77.6548 77.1042 75.74 74.7855 73.1636C72.483 70.6052 71.1621 67.3602 71.1621 62.8633C71.1621 58.7384 72.7067 55.091 75.4669 52.4731C78.2275 49.8548 82.2345 48.2383 87.2051 48.2383C90.81 48.2383 93.8513 48.8778 96.4154 50.3023C98.8682 51.665 100.92 53.7657 102.614 56.7882ZM36.2148 89.0514C36.2624 89.1296 36.3099 89.2078 36.3574 89.286C37.1439 90.581 37.9218 91.8618 38.9065 92.8465C40.0856 94.0257 41.5689 94.7949 43.7207 94.7949C45.6572 94.7949 47.3599 94.4351 48.5645 93.2305C49.7664 92.0286 50.3652 90.0931 50.3652 87.2051V48.4746H60.709V86.7324C60.709 92.5433 59.0265 96.6481 56.1713 99.3054C53.3097 101.969 49.1951 103.248 44.1934 103.248C39.6744 103.248 36.1708 102.091 33.4855 100.262C30.9351 98.526 29.0979 96.1671 27.8324 93.565L36.2148 89.0514Z" fill="white" stroke="white"/>
</g>
<defs>
<clipPath id="clip0_1521_102">
<rect width="121" height="121" fill="white"/>
</clipPath>
</defs>
</svg>
