<svg width="558" height="97" viewBox="0 0 558 97" fill="none" xmlns="http://www.w3.org/2000/svg">
<path d="M15 12C35.4 12.8 51.5 10.6667 57 9.5M70 9.5C72.5 8.66667 77.9 7.5 79.5 9.5M99 18.5C108.833 19 129.4 19.7 133 18.5M144 12C151.5 9.5 156.5 12 156.5 12M179 20C199.8 16 211.5 17 217 17M229.5 12C239.9 10 247.833 11.1667 250.5 12M44.5 32.5C68.9 30.5 79 32.3333 81 33.5M136 41C165.6 38.2 183.333 39.8333 188.5 41M215.5 36C219.5 35.1667 229.2 34 236 36M253.5 26.5C284.3 24.5 293 27 293.5 28.5M268.5 17C282.9 13 298.833 14 305 15M314.5 9.5C324.9 7.9 331.5 8.83333 333.5 9.5M314.5 24.5C323.167 22.8333 341.6 20 346 22M101 36C104.5 35 112 33.6 114 36M156.5 30.5C160.167 29.8333 168 28.9 170 30.5M15 33.5C10.3333 32.6667 1 31.5 1 33.5M1 33.5V56V95.5C84 96.5 252.5 96.6 262.5 89C275 79.5 419.5 71 470 65.5C520.5 60 561 27.5 556.5 15C552.9 5 549.167 1.16667 537.5 0.5H1V33.5ZM7.5 47C26.7 42.2 41.8333 43.6667 47 45M72.5 50.5C80.1667 49.6667 96.6 48.5 101 50.5M20 62C32 60.8333 56.7 59.2 59.5 62M7.5 76.5C12.1667 75.5 22 74.1 24 76.5M47 76.5C56.6667 74.1667 77 70.2 81 73M95 65.5C103.333 63.6667 120.9 60.4 124.5 62M124.5 50.5C128.5 49.8333 136.9 48.9 138.5 50.5M109 82.5C116.333 80.8333 132.5 78 138.5 80M85.5 86.5C87.6667 85.8333 92.9 84.7 96.5 85.5M38 89C45.6667 88.3333 61.3 87.4 62.5 89M145.5 67C155.5 64.1667 176.2 59.2 179 62M160.5 52.5C171.667 52.3333 194.3 52.4 195.5 54M165.5 80C173.167 77.6667 189 73.7 191 76.5M195.5 65.5C199.5 66 207.6 67 208 67M211 56L238.5 52.5M202.5 45L215.5 47M211 85.5C241 78.3 253.167 78.8333 255.5 80M226.5 73C255.3 64.2 270.5 65.3333 274.5 67M246.5 45C252.833 44.3333 266.1 43.4 268.5 45M286.5 39C297.167 38.3333 318.8 37.4 320 39M276 57C289.5 55.5 317.8 53.2 323 56M293.5 73C307.833 70 338.4 64.3 346 65.5M331.5 47C336.333 45.8333 346 44.2 346 47M335.5 33.5C348.333 31.6667 374.8 29.1 378 33.5M352.5 12C366.833 9.83333 396.3 6.8 399.5 12M386 56C420 48.8 432.833 50.6667 435 52.5M432 24.5C467.6 22.5 482.167 26.3333 485 28.5M459 9.5C497.4 11.5 509 16.3333 510 18.5M466 52.5C478.667 47.3333 507.6 41.8 510 45M443.5 41C449.667 39.6667 470.3 37.8 473.5 41M502 30.5C506.333 30 515.2 29.7 516 32.5M519 9.5C525.167 9.33333 537.5 9.6 537.5 12M417 15C423.167 11.3333 436.7 9.6 441.5 12M378 22C387.667 23 404.9 20.1 404.5 24.5M349 56C356.833 52.1667 373.3 45.1 376.5 47.5M404.5 42.5C410.167 40.6667 422.2 37.4 425 39" stroke="white"/>
</svg>
