<svg width="558" height="97" viewBox="0 0 558 97" fill="none" xmlns="http://www.w3.org/2000/svg">
<path d="M556.5 15.5C552.9 5.5 549.167 1.66667 537.5 1H1V10M556.5 15.5C561 28 520.5 60.5 470 66C419.5 71.5 275 80 262.5 89.5C252.5 97.1 84 97 1 96V87M556.5 15.5C554.333 15 549.5 14.3 547.5 15.5C545.5 16.7 541.667 16 540 15.5C539.5 15.3333 538.1 15.1 536.5 15.5C532.1 17.1 528.667 16.1667 527.5 15.5M43.5 27.5C44.6667 28.1667 48.1 29.1 52.5 27.5C54.1 27.1 55.5 27.3333 56 27.5C57.6667 28 61.5 28.7 63.5 27.5C65.5 26.3 70.3333 27 72.5 27.5M10 58.5C11.1667 59.1667 14.6 60.1 19 58.5C20.6 58.1 22 58.3333 22.5 58.5C24.1667 59 28 59.7 30 58.5C32 57.3 36.8333 58 39 58.5M111 53C112.167 53.6667 115.6 54.6 120 53C121.6 52.6 123 52.8333 123.5 53C125.167 53.5 129 54.2 131 53C133 51.8 137.833 52.5 140 53M162 12.5C163.167 13.1667 166.6 14.1 171 12.5C172.6 12.1 174 12.3333 174.5 12.5C176.167 13 180 13.7 182 12.5C184 11.3 188.833 12 191 12.5M258.5 44.5C259.667 45.1667 263.1 46.1 267.5 44.5C269.1 44.1 270.5 44.3333 271 44.5C272.667 45 276.5 45.7 278.5 44.5C280.5 43.3 285.333 44 287.5 44.5M382.5 11.5C383.667 12.1667 387.1 13.1 391.5 11.5C393.1 11.1 394.5 11.3333 395 11.5C396.667 12 400.5 12.7 402.5 11.5C404.5 10.3 409.333 11 411.5 11.5M478 36.5C475.833 36 471 35.3 469 36.5C467 37.7 463.167 37 461.5 36.5C461 36.3333 459.6 36.1 458 36.5C453.6 38.1 450.167 37.1667 449 36.5M364.5 59.5C362.333 59 357.5 58.3 355.5 59.5C353.5 60.7 349.667 60 348 59.5C347.5 59.3333 346.1 59.1 344.5 59.5C340.1 61.1 336.667 60.1667 335.5 59.5M224.5 76C222.333 75.5 217.5 74.8 215.5 76C213.5 77.2 209.667 76.5 208 76C207.5 75.8333 206.1 75.6 204.5 76C200.1 77.6 196.667 76.6667 195.5 76M1 10V56.5V87M1 10C2.16667 9.5 5 8.6 7 9C9.5 9.5 10.5 11 15 10.5C18.6 10.1 21.1667 9.33333 22 9M1 87C2.16667 87.5 5 88.2 7 87C9.5 85.5 14.5 86.5 15 87M56 74C57 73.3333 59.3 72.2 60.5 73C62 74 66 74 67 74C68 74 70 72.5 72.5 72C74.5 71.6 78.6667 73.1667 80.5 74M97 17.5C98.1667 18.1667 101 19.4 103 19C105.5 18.5 108.5 17.5 111 17.5C113 17.5 116.833 19.1667 118.5 20C120.167 20.5 124.1 20.7 126.5 17.5M135.5 85.5C136.333 84.6667 139.656 83.2223 142.5 85C146.5 87.5 148 84.5 152.5 85.5C156.1 86.3 160.167 86 162.5 84.5M309.5 32C310.167 31.5 313 31 315 31C317 31 317 31 320 32C321.333 32.1667 324.4 32.2 326 31C327.6 29.8 332.333 29.5 334.5 29.5M402 46.5C403 45.8333 405.3 44.7 406.5 45.5C408 46.5 412 46.5 413 46.5C414 46.5 416 45 418.5 44.5C420.5 44.1 424.667 45.6667 426.5 46.5M174.5 41.5C175.5 40.8333 177.8 39.7 179 40.5C180.5 41.5 184.5 41.5 185.5 41.5C186.5 41.5 188.5 40 191 39.5C193 39.1 197.167 40.6667 199 41.5M225.5 21.5C226.333 21 228.6 20 231 20C233.4 20 236 21 237 21.5C238 22.1667 240.4 23.3 242 22.5C243.6 21.7 247.667 20.5 249.5 20C251.167 20 255.1 20.5 257.5 22.5C259.9 24.5 266.833 22.6667 270 21.5" stroke="white"/>
</svg>
