<svg width="7" height="11" viewBox="0 0 7 11" fill="none" xmlns="http://www.w3.org/2000/svg">
<path d="M5.72782 0H1.27185C0.569311 0 0 0.545166 0 1.21791V9.78211C0 10.4548 0.569311 11 1.27185 11H5.72782C6.43033 11 7 10.4548 7 9.78211V1.21791C7 0.545166 6.43033 0 5.72782 0ZM3.5 10.3981C3.3184 10.3981 3.17082 10.2571 3.17082 10.0829C3.17082 9.90898 3.3184 9.768 3.5 9.768C3.6816 9.768 3.82918 9.909 3.82918 10.0829C3.82918 10.2571 3.6816 10.3981 3.5 10.3981ZM5.92308 9.10938H1.07692V1.375H5.92308V9.10938Z" fill="rgb(235, 235, 235)"/>
</svg>
