<svg width="27" height="27" viewBox="0 0 27 27" fill="none" xmlns="http://www.w3.org/2000/svg">
<path d="M18.3122 4.56342L22.2013 8.45251M14.875 25.875H25.875M1.125 25.8755L1.19024 25.4189C1.42112 23.8027 1.53656 22.9946 1.79915 22.2402C2.03216 21.5708 2.35045 20.9342 2.74621 20.3461C3.19219 19.6834 3.76939 19.1061 4.92377 17.9518L20.9397 1.93582C22.0137 0.861894 23.7549 0.86188 24.8289 1.93582C25.9028 3.00977 25.9028 4.75097 24.8289 5.82491L8.51898 22.1347C7.47171 23.1821 6.94808 23.7057 6.35165 24.1221C5.82225 24.4917 5.25128 24.798 4.65047 25.0345C3.9736 25.3008 3.24766 25.4472 1.7959 25.7402L1.125 25.8755Z" stroke="black" stroke-linecap="round" stroke-linejoin="round"/>
</svg>
