<svg width="0" height="0" class="hidden">
  <symbol xmlns="http://www.w3.org/2000/svg" viewBox="0 0 7 11" id="phone">
    <path d="M5.72782 0H1.27185C0.569311 0 0 0.545166 0 1.21791V9.78211C0 10.4548 0.569311 11 1.27185 11H5.72782C6.43033 11 7 10.4548 7 9.78211V1.21791C7 0.545166 6.43033 0 5.72782 0ZM3.5 10.3981C3.3184 10.3981 3.17082 10.2571 3.17082 10.0829C3.17082 9.90898 3.3184 9.768 3.5 9.768C3.6816 9.768 3.82918 9.909 3.82918 10.0829C3.82918 10.2571 3.6816 10.3981 3.5 10.3981ZM5.92308 9.10938H1.07692V1.375H5.92308V9.10938Z"></path>
  </symbol>

  <symbol xmlns="http://www.w3.org/2000/svg" viewBox="0 0 11 10" id="telegram">
    <path d="M10.9908 0.863428C11.0764 0.288085 10.5499 -0.166037 10.0576 0.0585704L0.250812 4.532C-0.102281 4.69307 -0.0764517 5.24879 0.289759 5.36993L2.31213 6.03907C2.69816 6.16679 3.11609 6.10072 3.45317 5.85879L8.0128 2.58593C8.1503 2.48721 8.30018 2.69036 8.18268 2.81614L4.90056 6.33186C4.58218 6.67293 4.64536 7.25086 5.02837 7.50036L8.70305 9.8945C9.11521 10.163 9.64541 9.89329 9.72248 9.37579L10.9908 0.863428Z"></path>
  </symbol>

  <symbol fill="none"
    xmlns="http://www.w3.org/2000/svg" viewBox="0 0 558 97" id="lake">
    <path d="M15 12C35.4 12.8 51.5 10.6667 57 9.5M70 9.5C72.5 8.66667 77.9 7.5 79.5 9.5M99 18.5C108.833 19 129.4 19.7 133 18.5M144 12C151.5 9.5 156.5 12 156.5 12M179 20C199.8 16 211.5 17 217 17M229.5 12C239.9 10 247.833 11.1667 250.5 12M44.5 32.5C68.9 30.5 79 32.3333 81 33.5M136 41C165.6 38.2 183.333 39.8333 188.5 41M215.5 36C219.5 35.1667 229.2 34 236 36M253.5 26.5C284.3 24.5 293 27 293.5 28.5M268.5 17C282.9 13 298.833 14 305 15M314.5 9.5C324.9 7.9 331.5 8.83333 333.5 9.5M314.5 24.5C323.167 22.8333 341.6 20 346 22M101 36C104.5 35 112 33.6 114 36M156.5 30.5C160.167 29.8333 168 28.9 170 30.5M15 33.5C10.3333 32.6667 1 31.5 1 33.5M1 33.5V56V95.5C84 96.5 252.5 96.6 262.5 89C275 79.5 419.5 71 470 65.5C520.5 60 561 27.5 556.5 15C552.9 5 549.167 1.16667 537.5 0.5H1V33.5ZM7.5 47C26.7 42.2 41.8333 43.6667 47 45M72.5 50.5C80.1667 49.6667 96.6 48.5 101 50.5M20 62C32 60.8333 56.7 59.2 59.5 62M7.5 76.5C12.1667 75.5 22 74.1 24 76.5M47 76.5C56.6667 74.1667 77 70.2 81 73M95 65.5C103.333 63.6667 120.9 60.4 124.5 62M124.5 50.5C128.5 49.8333 136.9 48.9 138.5 50.5M109 82.5C116.333 80.8333 132.5 78 138.5 80M85.5 86.5C87.6667 85.8333 92.9 84.7 96.5 85.5M38 89C45.6667 88.3333 61.3 87.4 62.5 89M145.5 67C155.5 64.1667 176.2 59.2 179 62M160.5 52.5C171.667 52.3333 194.3 52.4 195.5 54M165.5 80C173.167 77.6667 189 73.7 191 76.5M195.5 65.5C199.5 66 207.6 67 208 67M211 56L238.5 52.5M202.5 45L215.5 47M211 85.5C241 78.3 253.167 78.8333 255.5 80M226.5 73C255.3 64.2 270.5 65.3333 274.5 67M246.5 45C252.833 44.3333 266.1 43.4 268.5 45M286.5 39C297.167 38.3333 318.8 37.4 320 39M276 57C289.5 55.5 317.8 53.2 323 56M293.5 73C307.833 70 338.4 64.3 346 65.5M331.5 47C336.333 45.8333 346 44.2 346 47M335.5 33.5C348.333 31.6667 374.8 29.1 378 33.5M352.5 12C366.833 9.83333 396.3 6.8 399.5 12M386 56C420 48.8 432.833 50.6667 435 52.5M432 24.5C467.6 22.5 482.167 26.3333 485 28.5M459 9.5C497.4 11.5 509 16.3333 510 18.5M466 52.5C478.667 47.3333 507.6 41.8 510 45M443.5 41C449.667 39.6667 470.3 37.8 473.5 41M502 30.5C506.333 30 515.2 29.7 516 32.5M519 9.5C525.167 9.33333 537.5 9.6 537.5 12M417 15C423.167 11.3333 436.7 9.6 441.5 12M378 22C387.667 23 404.9 20.1 404.5 24.5M349 56C356.833 52.1667 373.3 45.1 376.5 47.5M404.5 42.5C410.167 40.6667 422.2 37.4 425 39" stroke="white"></path>
  </symbol>

  <symbol fill="none"
    xmlns="http://www.w3.org/2000/svg" viewBox="0 0 222 137" id="stone">
    <path d="M104.5 95.1275L95 136.628H258L230 88.1275C230.4 68.5275 220.5 32.9608 215.5 17.6275C207.167 13.7942 188 5.2275 178 1.6275C168 -1.9725 158.167 10.7942 154.5 17.6275L140 63.6275L104.5 95.1275Z" fill="black"></path>
    <path d="M140 88.1275C151.333 82.7942 173.2 68.7275 170 55.1275M186 25.1275C190.833 26.9608 202 33.6275 208 45.6275M230 125.628C218.5 115.961 194.8 92.7275 192 77.1275M116.5 125.628C137 122.294 178 113.328 178 104.128M95 136.628L104.5 95.1275L140 63.6275L154.5 17.6275C158.167 10.7942 168 -1.9725 178 1.6275C188 5.2275 207.167 13.7942 215.5 17.6275C220.5 32.9608 230.4 68.5275 230 88.1275L258 136.628H95Z" stroke="white"></path>
    <path d="M145 120.511L165.5 137.011H2L34 117.384C34 117.384 37.0758 114.698 39.5 114.011C41.9422 113.319 46 114.011 46 114.011H86C86 114.011 90.028 114.588 92.5 114.011C94.1384 113.629 96.5 112.411 96.5 112.411L112 106.211C112 106.211 115.195 103.817 117.5 104.011C119.769 104.202 122.5 107.011 122.5 107.011L145 120.511Z" fill="black"></path>
    <path d="M34 126.511C35 125.511 36.5 120.511 50.5 120.511M86 126.511C95.3333 126.26 113.8 124.083 113 117.384M145 132.511C141.333 128.093 133 118.883 129 117.384M114 110.511C115.5 109.878 118.9 108.991 120.5 110.511M2 137.011H165.5L145 120.511L122.5 107.011C122.5 107.011 119.769 104.202 117.5 104.011C115.195 103.817 112 106.211 112 106.211L96.5 112.411C96.5 112.411 94.1384 113.629 92.5 114.011C90.028 114.588 86 114.011 86 114.011H46C46 114.011 41.9422 113.319 39.5 114.011C37.0758 114.698 34 117.384 34 117.384L2 137.011Z" stroke="white"></path>
  </symbol>

  <symbol fill="none"
    xmlns="http://www.w3.org/2000/svg" viewBox="0 0 127 48" id="boat">
    <path d="M78.1456 7.00483H88.1855H98.2255C98.143 6.86773 98.0184 6.7442 97.835 6.67922L88.7216 1.14383C88.2928 0.88334 87.8282 1.03529 87.6495 1.14383L78.5361 6.67922C78.3527 6.7442 78.2281 6.86773 78.1456 7.00483Z" fill="black"></path>
    <path d="M88.1855 7.00483H78.1456C78.0351 7.18833 78 7.39614 78 7.52038V9.06704L82.8247 9.06696H93.5464L98.3711 9.06704V7.52038C98.3711 7.39614 98.336 7.18833 98.2255 7.00483H88.1855Z" fill="black"></path>
    <path d="M82.8247 9.06696C82.8247 12.1603 84.9691 14.2225 88.1855 14.2225C88.348 14.2225 88.5077 14.2172 88.6645 14.2068C90.6717 14.0739 92.2084 13.1012 92.985 11.5671C93.3493 10.8476 93.5464 10.0047 93.5464 9.06696H82.8247Z" fill="black"></path>
    <path d="M88.1855 40H99.9793C100.296 20.8077 96.9277 13.56 92.985 11.5671C92.2084 13.1012 90.6717 14.0739 88.6645 14.2068L88.1855 40Z" fill="black"></path>
    <path d="M93.5464 9.06696C93.5464 10.0047 93.3493 10.8476 92.985 11.5671M93.5464 9.06696H82.8247M93.5464 9.06696L98.3711 9.06704M82.8247 9.06696C82.8247 12.1603 84.9691 14.2225 88.1855 14.2225C88.348 14.2225 88.5077 14.2172 88.6645 14.2068M82.8247 9.06696L78 9.06704M92.985 11.5671C96.9277 13.56 100.296 20.8077 99.9793 40H88.1855L88.6645 14.2068M92.985 11.5671C92.2084 13.1012 90.6717 14.0739 88.6645 14.2068M78.1456 7.00483C82.1233 7.00483 88.1855 7.00483 88.1855 7.00483M78.1456 7.00483C78.0351 7.18833 78 7.39614 78 7.52038V9.06704M78.1456 7.00483C78.2281 6.86773 78.3527 6.7442 78.5361 6.67922L87.6495 1.14383C87.8282 1.03529 88.2928 0.88334 88.7216 1.14383L97.835 6.67922C98.0184 6.7442 98.143 6.86773 98.2255 7.00483M78.1456 7.00483H88.1855M98.2255 7.00483H88.1855M98.2255 7.00483C98.336 7.18833 98.3711 7.39614 98.3711 7.52038V9.06704M78 9.06704H98.3711" stroke="white"></path>
    <path d="M123.89 30.4601C82.7128 41.8705 27.2554 37.6309 2.95394 30.4601L3.78476 32.8154C27.3073 41.0854 87.9573 44.1212 123.163 32.7107L123.89 30.4601Z" fill="black"></path>
    <path d="M1 28.6281C1.5 31 4.20017 39.5 11 47H12.5C7.76433 41.7052 4.70212 34.9807 3.78476 32.8154L2.95394 30.4601L4.51173 29.989L4.20017 29.1515L1 28.6281Z" fill="black"></path>
    <path d="M114.076 47C117.607 44.1736 124.835 36.4165 125.5 28L122.852 28.6281L122.384 29.989L123.89 30.4601L123.163 32.7107C121.848 35.8861 117.742 43.1895 111.843 47H114.076Z" fill="black"></path>
    <path d="M12.5 47H54.309H111.843C117.742 43.1895 121.848 35.8861 123.163 32.7107C87.9573 44.1212 27.3073 41.0854 3.78476 32.8154C4.70212 34.9807 7.76433 41.7052 12.5 47Z" fill="black"></path>
    <path d="M12.5 47H54.309H111.843M12.5 47H11C4.20017 39.5 1.5 31 1 28.6281L4.20017 29.1515L4.51173 29.989M12.5 47C7.76433 41.7052 4.70212 34.9807 3.78476 32.8154M122.384 29.989L122.852 28.6281L125.5 28C124.835 36.4165 117.607 44.1736 114.076 47H111.843M122.384 29.989L123.89 30.4601M122.384 29.989C117.173 31.3566 109.483 32.8791 100 34.0964M4.51173 29.989L2.95394 30.4601M4.51173 29.989C34.8479 37.0125 64.9124 37.3021 88 35.3647M2.95394 30.4601C27.2554 37.6309 82.7128 41.8705 123.89 30.4601M2.95394 30.4601L3.78476 32.8154M123.89 30.4601L123.163 32.7107M3.78476 32.8154C27.3073 41.0854 87.9573 44.1212 123.163 32.7107M123.163 32.7107C121.848 35.8861 117.742 43.1895 111.843 47" stroke="white"></path>
  </symbol>

  <symbol xmlns="http://www.w3.org/2000/svg" viewBox="0 0 14 10" id="arrow">
    <path d="M13.4873 7.78206C13.7862 8.14053 13.7932 8.65928 13.5042 9.02572C13.111 9.5242 12.3564 9.52745 11.959 9.03238L7.77981 3.82656C7.37951 3.32791 6.62049 3.32792 6.22019 3.82656L2.04104 9.03238C1.64361 9.52745 0.888982 9.5242 0.495834 9.02573C0.20682 8.65929 0.213848 8.14053 0.512682 7.78206L6.23189 0.92141C6.63168 0.441833 7.36832 0.441833 7.76811 0.921411L13.4873 7.78206Z"></path>
  </symbol>

</svg>