<svg width="0" height="0" class="hidden">
  <symbol xmlns="http://www.w3.org/2000/svg" viewBox="0 0 7 11" id="phone">
    <path d="M5.72782 0H1.27185C0.569311 0 0 0.545166 0 1.21791V9.78211C0 10.4548 0.569311 11 1.27185 11H5.72782C6.43033 11 7 10.4548 7 9.78211V1.21791C7 0.545166 6.43033 0 5.72782 0ZM3.5 10.3981C3.3184 10.3981 3.17082 10.2571 3.17082 10.0829C3.17082 9.90898 3.3184 9.768 3.5 9.768C3.6816 9.768 3.82918 9.909 3.82918 10.0829C3.82918 10.2571 3.6816 10.3981 3.5 10.3981ZM5.92308 9.10938H1.07692V1.375H5.92308V9.10938Z"></path>
  </symbol>

  <symbol xmlns="http://www.w3.org/2000/svg" viewBox="0 0 11 10" id="telegram">
    <path d="M10.9908 0.863428C11.0764 0.288085 10.5499 -0.166037 10.0576 0.0585704L0.250812 4.532C-0.102281 4.69307 -0.0764517 5.24879 0.289759 5.36993L2.31213 6.03907C2.69816 6.16679 3.11609 6.10072 3.45317 5.85879L8.0128 2.58593C8.1503 2.48721 8.30018 2.69036 8.18268 2.81614L4.90056 6.33186C4.58218 6.67293 4.64536 7.25086 5.02837 7.50036L8.70305 9.8945C9.11521 10.163 9.64541 9.89329 9.72248 9.37579L10.9908 0.863428Z"></path>
  </symbol>

  <symbol fill="none"
    xmlns="http://www.w3.org/2000/svg" viewBox="0 0 558 97" id="lake">
    <path d="M15 12C35.4 12.8 51.5 10.6667 57 9.5M70 9.5C72.5 8.66667 77.9 7.5 79.5 9.5M99 18.5C108.833 19 129.4 19.7 133 18.5M144 12C151.5 9.5 156.5 12 156.5 12M179 20C199.8 16 211.5 17 217 17M229.5 12C239.9 10 247.833 11.1667 250.5 12M44.5 32.5C68.9 30.5 79 32.3333 81 33.5M136 41C165.6 38.2 183.333 39.8333 188.5 41M215.5 36C219.5 35.1667 229.2 34 236 36M253.5 26.5C284.3 24.5 293 27 293.5 28.5M268.5 17C282.9 13 298.833 14 305 15M314.5 9.5C324.9 7.9 331.5 8.83333 333.5 9.5M314.5 24.5C323.167 22.8333 341.6 20 346 22M101 36C104.5 35 112 33.6 114 36M156.5 30.5C160.167 29.8333 168 28.9 170 30.5M15 33.5C10.3333 32.6667 1 31.5 1 33.5M1 33.5V56V95.5C84 96.5 252.5 96.6 262.5 89C275 79.5 419.5 71 470 65.5C520.5 60 561 27.5 556.5 15C552.9 5 549.167 1.16667 537.5 0.5H1V33.5ZM7.5 47C26.7 42.2 41.8333 43.6667 47 45M72.5 50.5C80.1667 49.6667 96.6 48.5 101 50.5M20 62C32 60.8333 56.7 59.2 59.5 62M7.5 76.5C12.1667 75.5 22 74.1 24 76.5M47 76.5C56.6667 74.1667 77 70.2 81 73M95 65.5C103.333 63.6667 120.9 60.4 124.5 62M124.5 50.5C128.5 49.8333 136.9 48.9 138.5 50.5M109 82.5C116.333 80.8333 132.5 78 138.5 80M85.5 86.5C87.6667 85.8333 92.9 84.7 96.5 85.5M38 89C45.6667 88.3333 61.3 87.4 62.5 89M145.5 67C155.5 64.1667 176.2 59.2 179 62M160.5 52.5C171.667 52.3333 194.3 52.4 195.5 54M165.5 80C173.167 77.6667 189 73.7 191 76.5M195.5 65.5C199.5 66 207.6 67 208 67M211 56L238.5 52.5M202.5 45L215.5 47M211 85.5C241 78.3 253.167 78.8333 255.5 80M226.5 73C255.3 64.2 270.5 65.3333 274.5 67M246.5 45C252.833 44.3333 266.1 43.4 268.5 45M286.5 39C297.167 38.3333 318.8 37.4 320 39M276 57C289.5 55.5 317.8 53.2 323 56M293.5 73C307.833 70 338.4 64.3 346 65.5M331.5 47C336.333 45.8333 346 44.2 346 47M335.5 33.5C348.333 31.6667 374.8 29.1 378 33.5M352.5 12C366.833 9.83333 396.3 6.8 399.5 12M386 56C420 48.8 432.833 50.6667 435 52.5M432 24.5C467.6 22.5 482.167 26.3333 485 28.5M459 9.5C497.4 11.5 509 16.3333 510 18.5M466 52.5C478.667 47.3333 507.6 41.8 510 45M443.5 41C449.667 39.6667 470.3 37.8 473.5 41M502 30.5C506.333 30 515.2 29.7 516 32.5M519 9.5C525.167 9.33333 537.5 9.6 537.5 12M417 15C423.167 11.3333 436.7 9.6 441.5 12M378 22C387.667 23 404.9 20.1 404.5 24.5M349 56C356.833 52.1667 373.3 45.1 376.5 47.5M404.5 42.5C410.167 40.6667 422.2 37.4 425 39" stroke="rgb(235, 235, 235)"></path>
  </symbol>

  <symbol fill="none"
    xmlns="http://www.w3.org/2000/svg" viewBox="0 0 222 137" id="stone">
    <path d="M104.5 95.1275L95 136.628H258L230 88.1275C230.4 68.5275 220.5 32.9608 215.5 17.6275C207.167 13.7942 188 5.2275 178 1.6275C168 -1.9725 158.167 10.7942 154.5 17.6275L140 63.6275L104.5 95.1275Z" fill="rgb(15, 15, 15)"></path>
    <path d="M140 88.1275C151.333 82.7942 173.2 68.7275 170 55.1275M186 25.1275C190.833 26.9608 202 33.6275 208 45.6275M230 125.628C218.5 115.961 194.8 92.7275 192 77.1275M116.5 125.628C137 122.294 178 113.328 178 104.128M95 136.628L104.5 95.1275L140 63.6275L154.5 17.6275C158.167 10.7942 168 -1.9725 178 1.6275C188 5.2275 207.167 13.7942 215.5 17.6275C220.5 32.9608 230.4 68.5275 230 88.1275L258 136.628H95Z" stroke="rgb(235, 235, 235)"></path>
    <path d="M145 120.511L165.5 137.011H2L34 117.384C34 117.384 37.0758 114.698 39.5 114.011C41.9422 113.319 46 114.011 46 114.011H86C86 114.011 90.028 114.588 92.5 114.011C94.1384 113.629 96.5 112.411 96.5 112.411L112 106.211C112 106.211 115.195 103.817 117.5 104.011C119.769 104.202 122.5 107.011 122.5 107.011L145 120.511Z" fill="rgb(15, 15, 15)"></path>
    <path d="M34 126.511C35 125.511 36.5 120.511 50.5 120.511M86 126.511C95.3333 126.26 113.8 124.083 113 117.384M145 132.511C141.333 128.093 133 118.883 129 117.384M114 110.511C115.5 109.878 118.9 108.991 120.5 110.511M2 137.011H165.5L145 120.511L122.5 107.011C122.5 107.011 119.769 104.202 117.5 104.011C115.195 103.817 112 106.211 112 106.211L96.5 112.411C96.5 112.411 94.1384 113.629 92.5 114.011C90.028 114.588 86 114.011 86 114.011H46C46 114.011 41.9422 113.319 39.5 114.011C37.0758 114.698 34 117.384 34 117.384L2 137.011Z" stroke="rgb(235, 235, 235)"></path>
  </symbol>

  <symbol fill="none"
    xmlns="http://www.w3.org/2000/svg" viewBox="0 0 127 48" id="boat">
    <path d="M78.1456 7.00483H88.1855H98.2255C98.143 6.86773 98.0184 6.7442 97.835 6.67922L88.7216 1.14383C88.2928 0.88334 87.8282 1.03529 87.6495 1.14383L78.5361 6.67922C78.3527 6.7442 78.2281 6.86773 78.1456 7.00483Z" fill="rgb(15, 15, 15)"></path>
    <path d="M88.1855 7.00483H78.1456C78.0351 7.18833 78 7.39614 78 7.52038V9.06704L82.8247 9.06696H93.5464L98.3711 9.06704V7.52038C98.3711 7.39614 98.336 7.18833 98.2255 7.00483H88.1855Z" fill="rgb(15, 15, 15)"></path>
    <path d="M82.8247 9.06696C82.8247 12.1603 84.9691 14.2225 88.1855 14.2225C88.348 14.2225 88.5077 14.2172 88.6645 14.2068C90.6717 14.0739 92.2084 13.1012 92.985 11.5671C93.3493 10.8476 93.5464 10.0047 93.5464 9.06696H82.8247Z" fill="rgb(15, 15, 15)"></path>
    <path d="M88.1855 40H99.9793C100.296 20.8077 96.9277 13.56 92.985 11.5671C92.2084 13.1012 90.6717 14.0739 88.6645 14.2068L88.1855 40Z" fill="rgb(15, 15, 15)"></path>
    <path d="M93.5464 9.06696C93.5464 10.0047 93.3493 10.8476 92.985 11.5671M93.5464 9.06696H82.8247M93.5464 9.06696L98.3711 9.06704M82.8247 9.06696C82.8247 12.1603 84.9691 14.2225 88.1855 14.2225C88.348 14.2225 88.5077 14.2172 88.6645 14.2068M82.8247 9.06696L78 9.06704M92.985 11.5671C96.9277 13.56 100.296 20.8077 99.9793 40H88.1855L88.6645 14.2068M92.985 11.5671C92.2084 13.1012 90.6717 14.0739 88.6645 14.2068M78.1456 7.00483C82.1233 7.00483 88.1855 7.00483 88.1855 7.00483M78.1456 7.00483C78.0351 7.18833 78 7.39614 78 7.52038V9.06704M78.1456 7.00483C78.2281 6.86773 78.3527 6.7442 78.5361 6.67922L87.6495 1.14383C87.8282 1.03529 88.2928 0.88334 88.7216 1.14383L97.835 6.67922C98.0184 6.7442 98.143 6.86773 98.2255 7.00483M78.1456 7.00483H88.1855M98.2255 7.00483H88.1855M98.2255 7.00483C98.336 7.18833 98.3711 7.39614 98.3711 7.52038V9.06704M78 9.06704H98.3711" stroke="rgb(235, 235, 235)"></path>
    <path d="M123.89 30.4601C82.7128 41.8705 27.2554 37.6309 2.95394 30.4601L3.78476 32.8154C27.3073 41.0854 87.9573 44.1212 123.163 32.7107L123.89 30.4601Z" fill="rgb(15, 15, 15)"></path>
    <path d="M1 28.6281C1.5 31 4.20017 39.5 11 47H12.5C7.76433 41.7052 4.70212 34.9807 3.78476 32.8154L2.95394 30.4601L4.51173 29.989L4.20017 29.1515L1 28.6281Z" fill="rgb(15, 15, 15)"></path>
    <path d="M114.076 47C117.607 44.1736 124.835 36.4165 125.5 28L122.852 28.6281L122.384 29.989L123.89 30.4601L123.163 32.7107C121.848 35.8861 117.742 43.1895 111.843 47H114.076Z" fill="rgb(15, 15, 15)"></path>
    <path d="M12.5 47H54.309H111.843C117.742 43.1895 121.848 35.8861 123.163 32.7107C87.9573 44.1212 27.3073 41.0854 3.78476 32.8154C4.70212 34.9807 7.76433 41.7052 12.5 47Z" fill="rgb(15, 15, 15)"></path>
    <path d="M12.5 47H54.309H111.843M12.5 47H11C4.20017 39.5 1.5 31 1 28.6281L4.20017 29.1515L4.51173 29.989M12.5 47C7.76433 41.7052 4.70212 34.9807 3.78476 32.8154M122.384 29.989L122.852 28.6281L125.5 28C124.835 36.4165 117.607 44.1736 114.076 47H111.843M122.384 29.989L123.89 30.4601M122.384 29.989C117.173 31.3566 109.483 32.8791 100 34.0964M4.51173 29.989L2.95394 30.4601M4.51173 29.989C34.8479 37.0125 64.9124 37.3021 88 35.3647M2.95394 30.4601C27.2554 37.6309 82.7128 41.8705 123.89 30.4601M2.95394 30.4601L3.78476 32.8154M123.89 30.4601L123.163 32.7107M3.78476 32.8154C27.3073 41.0854 87.9573 44.1212 123.163 32.7107M123.163 32.7107C121.848 35.8861 117.742 43.1895 111.843 47" stroke="rgb(235, 235, 235)"></path>
  </symbol>

  <symbol xmlns="http://www.w3.org/2000/svg" viewBox="0 0 14 10" id="arrow">
    <path d="M13.4873 7.78206C13.7862 8.14053 13.7932 8.65928 13.5042 9.02572C13.111 9.5242 12.3564 9.52745 11.959 9.03238L7.77981 3.82656C7.37951 3.32791 6.62049 3.32792 6.22019 3.82656L2.04104 9.03238C1.64361 9.52745 0.888982 9.5242 0.495834 9.02573C0.20682 8.65929 0.213848 8.14053 0.512682 7.78206L6.23189 0.92141C6.63168 0.441833 7.36832 0.441833 7.76811 0.921411L13.4873 7.78206Z"></path>
  </symbol>

  <symbol fill="none" xmlns="http://www.w3.org/2000/svg" viewBox="0 0 600 30" id="wave">
    <path d="M-96 11.6667C-96 11.6667 -84.1936 1 -69.6296 1C-55.0657 1 -43.2593 11.6667 -43.2593 11.6667C-43.2593 11.6667 -37.3561 17 -30.0741 17C-22.7921 17 -16.8889 11.6667 -16.8889 11.6667C-16.8889 11.6667 -5.08247 1 9.48148 1C24.0454 1 35.8519 11.6667 35.8519 11.6667C35.8519 11.6667 41.7551 17 49.037 17C56.319 17 62.2222 11.6667 62.2222 11.6667C62.2222 11.6667 74.0286 1 88.5926 1C103.157 1 114.963 11.6667 114.963 11.6667C114.963 11.6667 120.866 17 128.148 17C135.43 17 141.333 11.6667 141.333 11.6667C141.333 11.6667 153.14 1 167.704 1C182.268 1 194.074 11.6667 194.074 11.6667C194.074 11.6667 199.977 17 207.259 17C214.541 17 220.444 11.6667 220.444 11.6667C220.444 11.6667 232.251 1 246.815 1C261.379 1 273.185 11.6667 273.185 11.6667C273.185 11.6667 279.088 17 286.37 17C293.652 17 299.556 11.6667 299.556 11.6667C299.556 11.6667 311.362 1 325.926 1C340.49 1 352.296 11.6667 352.296 11.6667C352.296 11.6667 358.2 17 365.482 17C372.763 17 378.667 11.6667 378.667 11.6667C378.667 11.6667 390.473 1 405.037 1C419.601 1 431.407 11.6667 431.407 11.6667C431.407 11.6667 437.311 17 444.593 17C451.875 17 457.778 11.6667 457.778 11.6667C457.778 11.6667 469.584 1 484.148 1C498.712 1 510.519 11.6667 510.519 11.6667C510.519 11.6667 516.422 17 523.704 17C530.986 17 536.889 11.6667 536.889 11.6667C536.889 11.6667 548.695 1 563.259 1C577.823 1 589.63 11.6667 589.63 11.6667C589.63 11.6667 595.533 17 602.815 17C610.097 17 616 11.6667 616 11.6667C616 11.6667 627.807 1 642.371 1C656.935 1 668.741 11.6667 668.741 11.6667C668.741 11.6667 674.644 17 681.926 17C689.208 17 695.111 11.6667 695.111 11.6667V59H-96V11.6667Z" fill="rgb(15, 15, 15)" stroke="rgb(235, 235, 235)"></path>
  </symbol>

  <symbol xmlns="http://www.w3.org/2000/svg" viewBox="0 0 12 12" id="close">
    <path fill-rule="evenodd" clip-rule="evenodd" d="M11.7754 1.35577C11.9212 1.20489 12.0018 1.00281 12 0.793049C11.9981 0.583291 11.914 0.382641 11.7657 0.234315C11.6174 0.0859883 11.4167 0.00185298 11.207 3.0242e-05C10.9972 -0.00179249 10.7951 0.0788433 10.6442 0.22457L6.00983 4.85897L1.37543 0.22457C1.22455 0.0788433 1.02247 -0.00179249 0.812709 3.0242e-05C0.602952 0.00185298 0.402302 0.0859883 0.253976 0.234315C0.105649 0.382641 0.0215139 0.583291 0.0196912 0.793049C0.0178684 1.00281 0.0985043 1.20489 0.244231 1.35577L4.87863 5.99017L0.244231 10.6246C0.167823 10.6984 0.106877 10.7866 0.0649495 10.8842C0.0230223 10.9818 0.000953259 11.0868 3.02056e-05 11.193C-0.000892847 11.2993 0.0193483 11.4046 0.0595731 11.5029C0.0997978 11.6012 0.1592 11.6906 0.234314 11.7657C0.309429 11.8408 0.39875 11.9002 0.497067 11.9404C0.595384 11.9807 0.700728 12.0009 0.806952 12C0.913175 11.999 1.01815 11.977 1.11575 11.935C1.21336 11.8931 1.30163 11.8322 1.37543 11.7558L6.00983 7.12137L10.6442 11.7558C10.7951 11.9015 10.9972 11.9821 11.207 11.9803C11.4167 11.9785 11.6174 11.8944 11.7657 11.746C11.914 11.5977 11.9981 11.397 12 11.1873C12.0018 10.9775 11.9212 10.7754 11.7754 10.6246L7.14103 5.99017L11.7754 1.35577Z"></path>
  </symbol>

  <symbol fill="none" xmlns="http://www.w3.org/2000/svg" viewBox="0 0 201 668" id="bracket">
    <path d="M34 634C70.82 634 100.667 604.153 100.667 567.333V444.85C100.667 428.543 100.667 420.39 102.51 412.717C104.143 405.917 106.837 399.413 110.49 393.447C114.613 386.72 120.38 380.953 131.91 369.423L167.333 334L131.91 298.577C120.38 287.047 114.613 281.28 110.49 274.553C106.837 268.587 104.143 262.085 102.51 255.282C100.667 247.61 100.667 239.457 100.667 223.151V100.667C100.667 63.8477 70.82 34 34 34" stroke="rgb(235, 235, 235)" stroke-width="20" stroke-linecap="round" stroke-linejoin="round"></path>
  </symbol>

  <symbol fill="none" xmlns="http://www.w3.org/2000/svg" viewBox="0 0 24 24" id="question-circle">
    <circle cx="12" cy="12" r="10" stroke="rgb(235, 235, 235)" stroke-width="1.5"></circle>
    <path d="M10.125 8.875C10.125 7.83947 10.9645 7 12 7C13.0355 7 13.875 7.83947 13.875 8.875C13.875 9.56245 13.505 10.1635 12.9534 10.4899C12.478 10.7711 12 11.1977 12 11.75V13" stroke="rgb(235, 235, 235)" stroke-width="1.5" stroke-linecap="round"></path>
    <circle cx="12" cy="16" r="1" fill="rgb(235, 235, 235)"></circle>
  </symbol>

  <symbol id="image-default" xmlns="http://www.w3.org/2000/svg" viewBox="0 0 48 48">
    <defs></defs>
    <g id="c">
      <path id="d" d="m32.7891,5.5H7.5c-1.1046,0-2,.8954-2,2v33c0,1.1046.8954,2,2,2h33c1.1046,0,2-.8954,2-2V14.0625"></path>
      <path id="e" d="m42.8918,3.4917h-9.3202c-.312,0-.5649.2529-.5649.5649v9.3202c0,.312.2529.5649.5649.5649h9.3202c.312,0,.5649-.2529.5649-.5649V4.0566c0-.312-.2529-.5649-.5649-.5649Z"></path>
      <path id="f" d="m5.5151,35.5209s4.0371-2.8561,6.2361-3.9669c1.5351-.7754,3.0978-1.9963,4.8122-1.8605,1.85.1465,3.0505,2.2161,4.8121,2.7997.8317.2756,1.7439.4164,2.6118.2962,1.0368-.1437,2.0194-.6333,2.9065-1.1888,2.2286-1.3957,3.6603-3.8468,5.8746-5.2652.7908-.5065,1.6472-1.0751,2.5853-1.1195,2.4131-.1142,4.5188,1.9857,6.8927,2.239"></path>
      <circle id="g" cx="13.9796" cy="13.2526" r="3.9659"></circle>
      <g id="h">
        <path id="i" d="m36.4118,8.2098l1.8177-1.8177v4.6599"></path>
        <path id="j" d="m40.0517,8.1989l-1.8177-1.8177v4.6599"></path>
      </g>
    </g>
  </symbol>

  <symbol version="1.1" id="icon-fullscreen" xmlns="http://www.w3.org/2000/svg" xmlns:xlink="http://www.w3.org/1999/xlink" xml:space="preserve" viewBox="0 0 512 512">
    <g>
      <g>
        <g>
          <path d="M335.085,207.085L469.333,72.837V128c0,11.782,9.551,21.333,21.333,21.333S512,139.782,512,128V21.335
				c0-0.703-0.037-1.406-0.106-2.107c-0.031-0.316-0.09-0.622-0.135-0.933c-0.054-0.377-0.098-0.755-0.172-1.13
				c-0.071-0.358-0.169-0.705-0.258-1.056c-0.081-0.323-0.152-0.648-0.249-0.968c-0.104-0.345-0.234-0.678-0.355-1.015
				c-0.115-0.319-0.22-0.641-0.35-0.956c-0.13-0.315-0.284-0.616-0.428-0.923c-0.153-0.324-0.297-0.651-0.467-0.969
				c-0.158-0.294-0.337-0.574-0.508-0.86c-0.186-0.311-0.362-0.626-0.565-0.93c-0.211-0.316-0.447-0.613-0.674-0.917
				c-0.19-0.253-0.366-0.513-0.568-0.76c-0.443-0.539-0.909-1.058-1.402-1.551c-0.004-0.004-0.007-0.008-0.011-0.012
				c-0.004-0.004-0.008-0.006-0.011-0.01c-0.494-0.493-1.012-0.96-1.552-1.403c-0.247-0.203-0.507-0.379-0.761-0.569
				c-0.303-0.227-0.6-0.462-0.916-0.673c-0.304-0.203-0.619-0.379-0.931-0.565c-0.286-0.171-0.565-0.35-0.859-0.508
				c-0.318-0.17-0.644-0.314-0.969-0.467c-0.307-0.145-0.609-0.298-0.923-0.429c-0.315-0.13-0.637-0.236-0.957-0.35
				c-0.337-0.121-0.669-0.25-1.013-0.354c-0.32-0.097-0.646-0.168-0.969-0.249c-0.351-0.089-0.698-0.187-1.055-0.258
				c-0.375-0.074-0.753-0.119-1.13-0.173c-0.311-0.044-0.617-0.104-0.933-0.135C492.072,0.037,491.37,0,490.667,0H384
				c-11.782,0-21.333,9.551-21.333,21.333c0,11.782,9.551,21.333,21.333,21.333h55.163L304.915,176.915
				c-8.331,8.331-8.331,21.839,0,30.17S326.754,215.416,335.085,207.085z"></path>
          <path d="M176.915,304.915L42.667,439.163V384c0-11.782-9.551-21.333-21.333-21.333C9.551,362.667,0,372.218,0,384v106.667
				c0,0.703,0.037,1.405,0.106,2.105c0.031,0.315,0.09,0.621,0.135,0.933c0.054,0.377,0.098,0.756,0.173,1.13
				c0.071,0.358,0.169,0.704,0.258,1.055c0.081,0.324,0.152,0.649,0.249,0.969c0.104,0.344,0.233,0.677,0.354,1.013
				c0.115,0.32,0.22,0.642,0.35,0.957c0.13,0.315,0.284,0.616,0.429,0.923c0.153,0.324,0.297,0.651,0.467,0.969
				c0.158,0.294,0.337,0.573,0.508,0.859c0.186,0.311,0.362,0.627,0.565,0.931c0.211,0.316,0.446,0.612,0.673,0.916
				c0.19,0.254,0.366,0.514,0.569,0.761c0.443,0.54,0.91,1.059,1.403,1.552c0.004,0.004,0.006,0.008,0.01,0.011
				c0.004,0.004,0.008,0.007,0.012,0.011c0.493,0.492,1.012,0.959,1.551,1.402c0.247,0.203,0.507,0.379,0.76,0.568
				c0.304,0.227,0.601,0.463,0.917,0.674c0.303,0.203,0.618,0.379,0.93,0.565c0.286,0.171,0.565,0.35,0.86,0.508
				c0.318,0.17,0.645,0.314,0.969,0.467c0.307,0.145,0.609,0.298,0.923,0.428c0.315,0.13,0.636,0.235,0.956,0.35
				c0.337,0.121,0.67,0.25,1.015,0.355c0.32,0.097,0.645,0.168,0.968,0.249c0.351,0.089,0.698,0.187,1.056,0.258
				c0.375,0.074,0.753,0.118,1.13,0.172c0.311,0.044,0.618,0.104,0.933,0.135c0.7,0.069,1.402,0.106,2.104,0.106
				c0,0,0.001,0,0.001,0H128c11.782,0,21.333-9.551,21.333-21.333s-9.551-21.333-21.333-21.333H72.837l134.248-134.248
				c8.331-8.331,8.331-21.839,0-30.17S185.246,296.584,176.915,304.915z"></path>
          <path d="M507.736,503.425c0.226-0.302,0.461-0.598,0.671-0.913c0.204-0.304,0.38-0.62,0.566-0.932
				c0.17-0.285,0.349-0.564,0.506-0.857c0.17-0.318,0.315-0.646,0.468-0.971c0.145-0.306,0.297-0.607,0.428-0.921
				c0.13-0.315,0.236-0.637,0.35-0.957c0.121-0.337,0.25-0.669,0.354-1.013c0.097-0.32,0.168-0.646,0.249-0.969
				c0.089-0.351,0.187-0.698,0.258-1.055c0.074-0.375,0.118-0.753,0.173-1.13c0.044-0.311,0.104-0.617,0.135-0.933
				c0.069-0.701,0.106-1.404,0.106-2.107V384c0-11.782-9.551-21.333-21.333-21.333s-21.333,9.551-21.333,21.333v55.163
				L335.085,304.915c-8.331-8.331-21.839-8.331-30.17,0s-8.331,21.839,0,30.17l134.248,134.248H384
				c-11.782,0-21.333,9.551-21.333,21.333S372.218,512,384,512h106.667c0.703,0,1.405-0.037,2.105-0.106
				c0.315-0.031,0.621-0.09,0.933-0.135c0.377-0.054,0.756-0.098,1.13-0.173c0.358-0.071,0.704-0.169,1.055-0.258
				c0.324-0.081,0.649-0.152,0.969-0.249c0.344-0.104,0.677-0.233,1.013-0.354c0.32-0.115,0.642-0.22,0.957-0.35
				c0.314-0.13,0.615-0.283,0.921-0.428c0.325-0.153,0.653-0.297,0.971-0.468c0.293-0.157,0.572-0.336,0.857-0.506
				c0.312-0.186,0.628-0.363,0.932-0.566c0.315-0.211,0.611-0.445,0.913-0.671c0.255-0.191,0.516-0.368,0.764-0.571
				c0.535-0.439,1.05-0.903,1.54-1.392c0.008-0.007,0.016-0.014,0.023-0.021s0.014-0.016,0.021-0.023
				c0.488-0.49,0.952-1.004,1.392-1.54C507.368,503.941,507.545,503.68,507.736,503.425z"></path>
          <path d="M72.837,42.667H128c11.782,0,21.333-9.551,21.333-21.333C149.333,9.551,139.782,0,128,0H21.333c0,0-0.001,0-0.001,0
				c-0.702,0-1.405,0.037-2.104,0.106c-0.316,0.031-0.622,0.09-0.933,0.135c-0.377,0.054-0.755,0.098-1.13,0.172
				c-0.358,0.071-0.705,0.169-1.056,0.258c-0.323,0.081-0.648,0.152-0.968,0.249c-0.345,0.104-0.678,0.234-1.015,0.355
				c-0.319,0.115-0.641,0.22-0.956,0.35c-0.315,0.131-0.618,0.284-0.925,0.43c-0.323,0.152-0.65,0.296-0.967,0.466
				c-0.295,0.158-0.575,0.338-0.862,0.509C10.106,3.215,9.791,3.39,9.488,3.593c-0.317,0.212-0.615,0.448-0.92,0.676
				C8.316,4.458,8.057,4.633,7.812,4.835C6.725,5.727,5.727,6.725,4.835,7.812C4.633,8.057,4.458,8.316,4.269,8.569
				c-0.228,0.305-0.464,0.603-0.676,0.92c-0.203,0.303-0.378,0.617-0.564,0.928c-0.171,0.286-0.351,0.567-0.509,0.862
				c-0.17,0.317-0.313,0.643-0.466,0.967c-0.145,0.307-0.299,0.61-0.43,0.925c-0.13,0.315-0.235,0.636-0.35,0.956
				c-0.121,0.337-0.25,0.67-0.355,1.015c-0.097,0.32-0.168,0.645-0.249,0.968c-0.089,0.351-0.187,0.698-0.258,1.056
				c-0.074,0.375-0.118,0.753-0.172,1.13c-0.044,0.311-0.104,0.618-0.135,0.933C0.037,19.928,0,20.63,0,21.333V128
				c0,11.782,9.551,21.333,21.333,21.333c11.782,0,21.333-9.551,21.333-21.333V72.837l134.248,134.248
				c8.331,8.331,21.839,8.331,30.17,0s8.331-21.839,0-30.17L72.837,42.667z"></path>
        </g>
      </g>
    </g>
  </symbol>

  <symbol fill="none" xmlns="http://www.w3.org/2000/svg" viewBox="0 0 27 27" id="rename">
    <path d="M18.3122 4.56342L22.2013 8.45251M14.875 25.875H25.875M1.125 25.8755L1.19024 25.4189C1.42112 23.8027 1.53656 22.9946 1.79915 22.2402C2.03216 21.5708 2.35045 20.9342 2.74621 20.3461C3.19219 19.6834 3.76939 19.1061 4.92377 17.9518L20.9397 1.93582C22.0137 0.861894 23.7549 0.86188 24.8289 1.93582C25.9028 3.00977 25.9028 4.75097 24.8289 5.82491L8.51898 22.1347C7.47171 23.1821 6.94808 23.7057 6.35165 24.1221C5.82225 24.4917 5.25128 24.798 4.65047 25.0345C3.9736 25.3008 3.24766 25.4472 1.7959 25.7402L1.125 25.8755Z" stroke-linecap="round" stroke-linejoin="round"></path>
  </symbol>

  <symbol xmlns="http://www.w3.org/2000/svg" viewBox="0 0 28 28" id="icon-chain">
    <path d="M22.0545 5.94619C24.2785 8.17032 24.2785 11.7763 22.0545 14.0005L20.6067 15.4483C20.2943 15.7608 20.2943 16.2673 20.6067 16.5797L21.0862 17.0592C21.3986 17.3716 21.9051 17.3716 22.2175 17.0592L23.6653 15.6113C26.7789 12.4976 26.7789 7.44912 23.6653 4.33534C20.5517 1.22155 15.5035 1.22155 12.3898 4.33534L10.942 5.78321C10.6296 6.09563 10.6296 6.60218 10.942 6.91461L11.4215 7.39406C11.7339 7.70649 12.2404 7.70649 12.5528 7.39407L14.0006 5.94619C16.2246 3.72206 19.8305 3.72206 22.0545 5.94619Z"></path>
    <path d="M5.94601 22.0538C8.17004 24.278 11.7759 24.278 13.9999 22.0538L15.4477 20.606C15.7601 20.2935 16.2667 20.2935 16.5791 20.606L17.0585 21.0854C17.3709 21.3979 17.3709 21.9044 17.0585 22.2168L15.6107 23.6647C12.4971 26.7785 7.44886 26.7785 4.33523 23.6647C1.22159 20.5509 1.22159 15.5025 4.33523 12.3887L5.78303 10.9408C6.09544 10.6284 6.60197 10.6284 6.91438 10.9408L7.39382 11.4203C7.70623 11.7327 7.70623 12.2393 7.39382 12.5517L5.94601 13.9996C3.72198 16.2237 3.72198 19.8297 5.94601 22.0538Z"></path>
    <path d="M17.8593 9.80361C17.5078 9.45213 16.938 9.45213 16.5865 9.80361L9.80535 16.5851C9.45389 16.9366 9.45389 17.5064 9.80535 17.8579L10.1434 18.1959C10.4948 18.5474 11.0647 18.5474 11.4161 18.1959L18.1973 11.4145C18.5487 11.063 18.5487 10.4931 18.1973 10.1416L17.8593 9.80361Z"></path>
  </symbol>
</svg>