<svg width="222" height="137" viewBox="0 0 222 137" fill="none" xmlns="http://www.w3.org/2000/svg">
<path d="M104.5 95.1275L95 136.628H258L230 88.1275C230.4 68.5275 220.5 32.9608 215.5 17.6275C207.167 13.7942 188 5.2275 178 1.6275C168 -1.9725 158.167 10.7942 154.5 17.6275L140 63.6275L104.5 95.1275Z" fill="black"/>
<path d="M140 88.1275C151.333 82.7942 173.2 68.7275 170 55.1275M186 25.1275C190.833 26.9608 202 33.6275 208 45.6275M230 125.628C218.5 115.961 194.8 92.7275 192 77.1275M116.5 125.628C137 122.294 178 113.328 178 104.128M95 136.628L104.5 95.1275L140 63.6275L154.5 17.6275C158.167 10.7942 168 -1.9725 178 1.6275C188 5.2275 207.167 13.7942 215.5 17.6275C220.5 32.9608 230.4 68.5275 230 88.1275L258 136.628H95Z" stroke="white"/>
<path d="M145 120.511L165.5 137.011H2L34 117.384C34 117.384 37.0758 114.698 39.5 114.011C41.9422 113.319 46 114.011 46 114.011H86C86 114.011 90.028 114.588 92.5 114.011C94.1384 113.629 96.5 112.411 96.5 112.411L112 106.211C112 106.211 115.195 103.817 117.5 104.011C119.769 104.202 122.5 107.011 122.5 107.011L145 120.511Z" fill="black"/>
<path d="M34 126.511C35 125.511 36.5 120.511 50.5 120.511M86 126.511C95.3333 126.26 113.8 124.083 113 117.384M145 132.511C141.333 128.093 133 118.883 129 117.384M114 110.511C115.5 109.878 118.9 108.991 120.5 110.511M2 137.011H165.5L145 120.511L122.5 107.011C122.5 107.011 119.769 104.202 117.5 104.011C115.195 103.817 112 106.211 112 106.211L96.5 112.411C96.5 112.411 94.1384 113.629 92.5 114.011C90.028 114.588 86 114.011 86 114.011H46C46 114.011 41.9422 113.319 39.5 114.011C37.0758 114.698 34 117.384 34 117.384L2 137.011Z" stroke="white"/>
</svg>
