<svg width="259" height="137" viewBox="0 0 259 137" fill="none" xmlns="http://www.w3.org/2000/svg">
<path d="M104.5 94.5L95 136H258L230.5 66.8726C230.5 66.8726 220.5 32.3333 215.5 17C207.167 13.1667 178 1 178 1L154.5 17L140 63L104.5 94.5Z" fill="black"/>
<path d="M144 87.5L162 70.3725L167.5 48.3725M200.5 42.3725L182.5 20.3725M196 78.8725L205 106.372L226 125M172 102.372L154.5 122.372L130.5 127.372M95 136L104.5 94.5L140 63L154.5 17L178 1C178 1 207.167 13.1667 215.5 17C220.5 32.3333 230.5 66.8726 230.5 66.8726L258 136H95Z" stroke="white"/>
<path d="M145 119.884L165.5 136.384H2L39.5 113.384H92.5L117.5 103.384L145 119.884Z" fill="black"/>
<path d="M31.5 128.873L42.5 122.373H55.5M86 127.373L100 121.373M110 113.384L117.5 110.873L125.5 117.373M147 130.373H132L121 127.373M2 136.384H165.5L145 119.884L117.5 103.384L92.5 113.384H39.5L2 136.384Z" stroke="white"/>
</svg>
