<svg width="347" height="207" viewBox="0 0 347 207" fill="none" xmlns="http://www.w3.org/2000/svg">
<path d="M283.561 161.192L288.561 164.692H295.605H295.615C295.899 164.692 296.169 164.814 296.351 165.031V165.031C297.891 166.858 299.725 169.414 301.879 172.415C308.753 181.993 318.883 196.108 333.07 205.544C333.585 205.887 334.283 205.672 334.525 205.102L345.483 179.345C345.678 178.887 345.505 178.355 345.081 178.095C331.864 169.989 321.955 161.274 314.611 152.692C298.032 133.32 294.519 114.627 295.51 105.144V105.144C295.54 104.857 295.701 104.601 295.939 104.439C295.943 104.436 295.946 104.434 295.949 104.432C314.32 91.9263 311.368 65.7777 307.561 54.1919C304.874 46.5144 298.902 40.372 295.921 37.9741V37.9741C295.695 37.7923 295.553 37.5251 295.533 37.2357C295.533 37.2341 295.533 37.2325 295.533 37.2308C295.073 30.5419 292.855 26.5976 291.677 25.3133C291.602 25.2312 291.507 25.1654 291.407 25.1163C278.075 18.567 279.604 9.67775 282.26 5.62502C282.28 5.59386 282.152 5.43566 281.937 5.20287C281.223 4.43106 275.954 2.1189 274.903 2.08053C267.032 1.79306 250.726 1.09268 250.561 1.19192C262.203 13.1819 273.434 21.1075 278.781 24.3826C282.199 26.4759 284.187 27.6936 284.561 29.1919C285.019 31.0226 285.062 32.8316 284.953 34.2629C284.9 34.9583 284.137 35.3194 283.534 34.9696L274.485 29.7252C273.986 29.4361 273.347 29.6275 273.089 30.1432L272.887 30.5472C272.695 30.9322 272.767 31.3975 273.103 31.6664C275.573 33.6428 281.81 36.6126 285.094 38.0574C285.294 38.1452 285.459 38.2949 285.566 38.4852C285.838 38.9697 286.102 39.439 286.358 39.894C294.122 53.706 294.494 54.3684 293.561 70.6919C292.773 84.487 279.298 95.5311 272.366 99.5189C272.166 99.6341 271.943 99.6748 271.719 99.6184C265.017 97.9285 252.528 80.7185 246.564 71.4754C246.278 71.0336 246.393 70.4491 246.81 70.1285C255.561 63.3983 255.561 58.1649 255.561 57.1919C255.561 56.3919 259.228 53.1919 261.061 51.6919V49.1919L254.561 54.1919L253.126 56.1061C253.083 56.1631 253.046 56.2248 253.016 56.2896C252.182 58.0988 251.358 59.5538 250.561 60.7146C247.174 65.649 244.272 65.2676 243.061 64.1919C237.144 59.458 233.658 33.261 232.604 20.2299C232.577 19.8888 232.727 19.5679 233 19.3607C237.725 15.768 248.901 6.5521 250.4 2.20475C250.53 1.82838 250.587 1.4885 250.561 1.19192L236.329 2.149C235.848 2.18132 235.461 2.5522 235.39 3.02856C234.537 8.75524 231.933 13.8628 230.551 14.885V14.885C230.263 15.0978 229.878 15.0664 229.572 14.8805V14.8805C225.065 12.1393 217.799 11.0228 213.93 10.7436V10.7436C213.433 10.7077 213.033 10.3179 212.948 9.82695V9.82695C212.471 7.0824 210.992 5.34887 209.061 4.3091C205.611 2.4506 200.721 2.80853 197.538 3.57129C197.375 3.6105 197.216 3.65079 197.061 3.69189C196.83 3.95208 185.084 9.17378 184.824 9.36033C181.786 11.544 176.98 8.91032 174.281 6.78783C173.867 6.46241 173.272 6.48116 172.9 6.85343L172.061 7.69189C173.561 9.02523 177.061 11.8919 179.061 12.6919C180.911 13.4316 187.178 12.5183 190.747 11.8494V11.8494C191.219 11.761 191.685 12.02 191.93 12.4327V12.4327C195.231 17.993 210.096 23.0091 217.952 25.0371V25.0371C218.324 25.133 218.606 25.4328 218.663 25.8125V25.8125C218.954 27.7632 219.751 33.9821 221.339 48.1919C221.411 48.8417 221.485 49.5083 221.561 50.1919C223.482 67.4774 240.311 90.4498 249.467 100.954V100.954C249.959 101.52 249.677 102.413 248.95 102.595V102.595L246.888 103.11V103.11C246.677 103.163 246.453 103.145 246.252 103.061V103.061C243.675 101.985 239.739 100.679 236.352 100.317C235.603 100.237 234.03 100.208 232.898 100.198V100.198C232.263 100.192 231.738 99.5934 231.641 98.9658V98.9658C231.439 97.6504 230.782 95.941 229.932 95.3565C229.504 95.0621 229.148 95.5817 229.26 96.089L229.946 99.1957V99.1957C230.067 99.7425 229.714 100.278 229.166 100.394V100.394C227.54 100.74 225.723 101.26 223.715 102.78C222.912 103.388 223.564 104.457 224.526 104.161L229.666 102.585C230.972 102.178 233.101 102.272 234.799 102.453V102.453C235.382 102.515 235.77 103.077 235.64 103.649V103.649L234.989 106.5C234.72 107.682 236.391 108.235 236.88 107.126L238.338 103.814V103.814C238.529 103.381 238.999 103.14 239.46 103.248V103.248C242.558 103.978 244.772 104.932 245.886 105.586C246.003 105.655 246.131 105.703 246.265 105.723L251.318 106.501V106.501C251.952 106.598 252.583 107.316 252.961 107.835V107.835C255.206 110.912 265.652 117.877 271.849 121.749V121.749C272.261 122.006 272.43 122.521 272.25 122.972V122.972L270.597 127.103L270.586 127.13V127.13C270.57 127.171 270.55 127.211 270.524 127.248C270.52 127.255 270.515 127.262 270.51 127.269C266.68 132.762 236.326 129.514 221.561 127.192L210.061 126.192C190.461 122.192 182.895 94.5252 181.561 81.1919C181.561 78.0969 178.443 75.6879 176.731 74.7792C176.619 74.7201 176.496 74.6868 176.371 74.6737C172.39 74.257 169.502 71.7296 167.431 68.539V68.539C167.203 68.1889 167.246 67.739 167.588 67.5004V67.5004C167.891 67.2893 168.288 67.0491 168.746 66.7718C170.696 65.5906 173.76 63.7351 175.45 60.5822V60.5822C175.732 60.0559 176.387 59.817 176.93 60.0644V60.0644C180.174 61.541 185.34 62.6511 188.383 59.3944L187.394 58.4524C186.121 59.186 184.817 59.5121 183.561 59.5646L183.297 55.6435C183.109 55.2705 182.863 55.1383 182.604 55.2373L181.166 59.1919C179.395 58.9022 178.163 58.3318 177.157 57.6366V57.6366C176.796 57.3867 176.664 56.904 176.685 56.4651V56.4651C176.807 53.9528 175.266 47.1369 172.061 42.6919C172.151 43.5879 172.247 44.4319 172.348 45.2266V45.2266C172.398 45.626 172.195 46.0137 171.793 46.0429V46.0429C171.129 46.0913 170.021 45.9512 168.427 45.3101C167.765 45.0441 167.328 45.436 167.874 45.896C168.984 46.8329 170.996 47.8534 172.412 48.4812V48.4812C172.716 48.6157 172.938 48.8898 173.006 49.2147V49.2147C173.214 50.2156 173.427 51.0863 173.617 51.864C174.11 53.8805 174.45 55.2723 174.166 56.6919C173.719 60.7134 169.575 63.5369 166.786 65.1625V65.1625C166.286 65.4538 165.644 65.2466 165.416 64.7149V64.7149C163.22 59.592 161.415 51.1878 161.166 50.1919C160.666 48.1919 158.717 46.4319 157.666 45.3101C155.144 42.6193 144.16 36.8368 139 35.7311C138.872 35.7035 138.755 35.6537 138.629 35.6165C136.299 34.9282 117.375 35.3625 108.769 35.6841L108.561 35.6919C108.497 35.6663 108.432 35.641 108.366 35.6159C104.332 34.0927 96.3121 33.6988 92.6577 33.692L92.5614 33.6919C92.5294 33.6855 92.4975 33.6784 92.4655 33.6706C89.7202 32.9999 87.14 27.1668 85.3739 21.722V21.722C85.1996 21.1845 85.5151 20.6141 86.0404 20.4058V20.4058C88.0794 19.5974 90.8707 17.7769 92.0266 14.7037C92.3675 13.7972 91.2853 13.367 90.6588 14.1054C88.7015 16.4124 86.2195 18.8275 84.7868 18.6357V18.6357C84.5298 18.6013 84.367 18.3673 84.2987 18.1172V18.1172C84.0199 17.097 83.7816 16.1464 83.5893 15.3132L83.5888 15.3113L83.5614 15.1919C83.5624 15.1498 83.5635 15.1079 83.5647 15.0661C83.639 12.4805 84.1384 10.5615 84.5402 9.01748C84.5956 8.80439 84.6492 8.59844 84.6996 8.39887C84.9113 7.55981 84.0373 7.11715 83.4384 7.74181C81.1801 10.0974 81.149 11.4117 81.0633 15.1076C81.0621 15.1611 81.0651 15.2162 81.0727 15.2693L81.0733 15.2737C81.0939 15.413 81.1168 15.5547 81.1419 15.6987V15.6987C81.2373 16.247 80.8926 16.783 80.3371 16.8165V16.8165C78.8184 16.9082 76.4039 16.6974 73.7349 15.5874C72.8459 15.2177 72.0877 15.9778 72.7871 16.6395C74.3977 18.1634 77.1025 19.534 81.1742 19.2675V19.2675C81.6557 19.236 82.1085 19.5276 82.2568 19.9868V19.9868C83.7328 24.5553 86.138 29.8456 87.8166 33.2244V33.2244C88.1501 33.8958 87.6639 34.6919 86.9143 34.6919V34.6919L83.3019 33.7282C83.2116 33.7041 83.1293 33.6694 83.0483 33.623C80.3961 32.1037 71.6336 29.2495 67.875 29.1942V29.1942C67.6709 29.1912 67.4726 29.1274 67.3007 29.0175V29.0175C62.7096 26.0816 53.2784 26.8428 48.8174 27.6448C48.6471 27.6754 48.4926 27.7508 48.359 27.8608C47.0291 28.9552 44.7886 30.5202 42.5366 31.4727C41.5465 31.8915 41.4038 33.2093 42.4664 33.0465C44.0432 32.805 45.9358 32.0616 48.0521 30.4551V30.4551C48.7034 29.9607 49.5651 30.3528 49.2982 31.1257V31.1257C48.8231 32.5017 47.6673 34.1187 45.2439 35.228C44.6556 35.4973 44.3873 36.2359 44.8758 36.6602C46.5106 38.0802 49.3274 37.9138 51.9558 29.6567V29.6567C52.0838 29.2546 52.4468 28.9621 52.8685 28.9468V28.9468C58.2603 28.7515 62.2437 29.6321 64.2499 30.4508V30.4508C64.9136 30.7217 64.8233 31.5026 64.204 31.8636V31.8636C63.143 32.4823 61.9591 33.3948 61.2372 34.531C60.7688 35.2682 61.6438 35.7708 62.3545 35.2631C63.8005 34.2302 65.8602 32.978 68.2175 32.0599C68.3655 32.0023 68.5257 31.983 68.6836 31.9995C72.6886 32.4173 79.6367 36.5673 82.1659 37.6919C83.8179 38.7271 93.1288 40.1534 98.5325 40.1884V40.1884C99.0948 40.1921 99.5489 40.6567 99.5068 41.2176V41.2176C99.2152 45.0985 97.8438 51.4765 94.2184 55.3692C93.5153 56.1241 93.9676 57.3407 94.911 56.9231C96.7654 56.1023 98.7117 54.5474 100.177 51.8815V51.8815C100.605 51.1032 101.779 51.0774 102.1 51.9053V51.9053C102.706 53.4636 103.347 55.3786 103.762 57.2464C103.994 58.2896 105.278 58.4751 105.352 57.4091C105.548 54.6134 104.932 50.8591 102.298 46.6535V46.6535C102.162 46.4363 102.109 46.1739 102.152 45.9212V45.9212C102.369 44.644 102.507 43.238 102.548 41.6919V41.6919C102.555 41.4434 103.116 41.1822 103.344 41.2818V41.2818C107.431 43.0687 125.476 42.996 134.919 42.6964C134.931 42.6961 134.942 42.6954 134.953 42.6947C134.982 42.6927 135.01 42.6895 135.039 42.6864C135.076 42.6822 135.113 42.6781 135.151 42.6766C135.169 42.6759 135.187 42.6758 135.205 42.6766C136.855 42.7519 149.33 49.0228 151.481 53.032C151.538 53.1393 151.566 53.2544 151.576 53.3757C152.42 63.5195 157.087 72.6136 160.228 76.9792V76.9792C160.726 77.6718 160.24 78.6919 159.387 78.6919V78.6919H158.061C157.509 78.6919 157.061 79.1396 157.061 79.6919V82.0325C157.061 82.4325 157.299 82.7997 157.677 82.9286C159.864 83.6733 161.721 83.2984 162.681 82.884V82.884C162.931 82.776 163.212 82.7287 163.469 82.8181V82.8181C167.571 84.2435 169.239 89.6092 169.561 92.1919C169.561 92.5252 169.261 93.1919 168.061 93.1919C167.147 93.1919 166.949 94.354 166.98 95.3495C166.995 95.8381 167.42 96.1919 167.909 96.1919H169.664V96.1919C170.173 96.1919 170.601 96.5762 170.685 97.0788V97.0788C171.272 100.606 173.16 106.039 174.295 109.006V109.006C174.451 109.413 174.329 109.901 173.907 110.01V110.01C168.781 111.34 150.614 95.7466 141.673 87.2977C141.598 87.2264 141.516 87.1705 141.422 87.1259L141.42 87.1247C120.411 77.1874 87.5217 77.0387 83.5614 78.6919C81.1659 79.6919 60.2168 80.5288 49.9219 80.2035L49.9208 80.2035L49.5614 80.1919C49.4733 80.1118 49.3798 80.0326 49.281 79.9541C47.7406 78.7315 44.9129 77.7025 41.5049 76.8518C36.9154 75.7063 31.2734 74.8842 26.3051 74.3487V74.3487C25.8826 74.3032 25.5614 73.9467 25.5614 73.5217V73.5217V73.4402C25.5614 73.0269 25.2264 72.6919 24.8131 72.6919H24.6202C24.3135 72.6919 24.0648 72.9405 24.0648 73.2472V73.2472C24.0648 73.6155 23.7143 73.8755 23.3723 73.739V73.739C22.679 73.4623 21.909 73.0781 21.4867 72.8603V72.8603C21.2803 72.7538 21.1213 72.5727 21.0339 72.3576V72.3576C20.3661 70.7126 17.7337 65.3107 8.06971 66.6919L8.15222 66.7139C15.5825 68.6965 16.5614 69.3952 18.5614 71.8952C18.6434 71.9977 18.5883 71.9716 18.4174 71.8909C17.7637 71.5819 15.4157 70.4721 12.5648 72.6919C9.01746 75.4539 11.3328 74.5507 12.9934 73.7258L13.0614 73.6919L13.132 73.6693L13.1355 73.6682C15.9983 72.7583 17.0496 73.1414 18.3148 73.6025L18.3838 73.6277L18.4843 73.6641L18.5614 73.6919L18.6328 73.7316L20.9525 75.0203V75.0203C21.1523 75.1313 21.3224 75.326 21.2264 75.5335V75.5335C20.6743 76.7258 16.281 79.0529 15.5614 78.6919C15.306 78.5637 14.8724 78.7401 14.3627 79.0828C13.4734 79.6809 14.2352 80.7817 15.2144 80.3462L15.3674 80.2782V80.2782C15.4953 80.2213 15.6342 80.1929 15.7742 80.1888V80.1888C18.8995 80.0978 21.4707 78.0259 22.684 76.6524V76.6524C22.9269 76.3775 23.2876 76.2255 23.6502 76.2815C23.6525 76.2818 23.6547 76.2822 23.657 76.2825C37.9448 78.488 45.4369 81.9097 47.9848 83.7336V83.7336C48.3408 83.9884 48.4367 84.4684 48.212 84.8441V84.8441C43.8784 92.0911 25.8016 97.0733 17.0614 98.6919C17.4347 102.798 12.6123 106.642 9.66362 108.357C9.30446 108.566 9.09647 108.964 9.11657 109.379C9.19116 110.918 9.07705 113.578 8.8724 116.605V116.605C8.84793 116.967 8.62827 117.287 8.29973 117.441V117.441L5.30841 118.842C4.87467 119.045 4.64586 119.527 4.7628 119.992L4.78105 120.064C4.93045 120.658 5.57297 120.979 6.13732 120.742L7.13036 120.326V120.326C7.82107 120.037 8.57171 120.581 8.50185 121.327V121.327C8.42749 122.121 8.34978 122.876 8.27127 123.639C8.23824 123.96 8.20508 124.282 8.17196 124.609V124.609C8.11305 125.191 7.56693 125.604 6.98234 125.623V125.623C4.97392 125.686 2.0598 126.697 1.0614 129.692C0.895869 130.525 0.964815 131.692 2.56481 129.692C3.80725 128.139 5.67618 127.691 6.97364 127.647V127.647C7.50644 127.629 7.882 128.109 7.82823 128.639V128.639C7.80927 128.826 7.79049 129.011 7.77192 129.191C7.68756 130.013 8.57787 130.582 9.28631 130.157L9.62597 129.953C9.89963 129.789 10.0785 129.504 10.1074 129.186L10.37 126.297V126.297C10.4144 125.809 10.8057 125.425 11.2944 125.39V125.39L13.2837 125.248C13.7425 125.215 14.1211 124.866 14.1991 124.412C14.298 123.837 13.8875 123.289 13.3051 123.256C12.7016 123.221 12.1432 123.205 11.6809 123.198V123.198C11.0855 123.188 10.6221 122.674 10.6874 122.082V122.082L11.0614 118.692L13.0201 110.37V110.37C13.0472 110.255 13.0946 110.144 13.1618 110.047V110.047C16.9588 104.542 26.89 100.317 32.3878 98.5518V98.5518C32.9905 98.3582 33.6072 98.7879 33.6558 99.419V99.419L34.0242 104.209V104.209C34.0477 104.514 33.9303 104.813 33.7055 105.02V105.02L27.6656 110.596C27.6656 110.596 27.6656 110.596 27.6656 110.596V110.596C27.5966 110.659 27.5187 110.713 27.435 110.756V110.756C26.5934 111.183 25.4598 111.818 24.3115 112.566C23.9107 112.827 23.8447 113.382 24.1624 113.739C24.4002 114.007 24.7872 114.083 25.1087 113.925L28.0182 112.499V112.499C28.7293 112.151 29.544 112.728 29.4515 113.514V113.514L28.8623 118.522C28.7737 119.275 29.5228 119.849 30.2268 119.568L30.6233 119.409C30.9585 119.275 31.1954 118.97 31.2431 118.613L31.8913 113.751V113.751C32.0021 112.92 33.0239 112.586 33.6041 113.191V113.191L33.8955 113.494C34.2688 113.883 34.8832 113.906 35.2846 113.547L35.5239 113.332C35.923 112.974 35.969 112.365 35.6283 111.952L34.1934 110.209V110.209C33.8438 109.785 33.9026 109.158 34.3252 108.805V108.805L37.7016 105.992C37.9296 105.802 38.0614 105.52 38.0614 105.224V97.8616V97.8616C38.0614 97.4564 38.3066 97.0927 38.6774 96.9294V96.9294C44.9534 94.1665 51.0381 88.8117 53.6943 86.0763V86.0763C53.9253 85.8385 54.2576 85.7261 54.5859 85.772V85.772C61.6629 86.7604 76.3449 85.325 83.9317 84.342V84.342C84.5295 84.2645 85.0634 84.7364 85.0284 85.3382V85.3382C84.8413 88.56 83.8909 90.9509 83.0244 92.3979V92.3979C82.6428 93.0352 81.5315 92.9847 80.8591 92.6691V92.6691C79.6002 92.0781 77.6817 91.7098 76.5614 91.5707H68.5484V91.5707C68.3605 91.5707 68.1764 91.5177 68.0172 91.4179V91.4179L66.8407 90.6804C66.4002 90.4042 65.8215 90.5117 65.5095 90.9277L65.1957 91.3462C64.8512 91.8055 64.9633 92.4598 65.441 92.7783L66.2905 93.3446V93.3446C66.8902 93.7444 66.8828 94.6281 66.2766 95.0178V95.0178L61.7322 97.9393C61.1569 98.309 61.1143 99.1342 61.6482 99.5613L62.3882 100.153C62.7751 100.463 63.3303 100.442 63.6933 100.105L69.7982 94.4363V94.4363C69.9683 94.2783 70.1904 94.1837 70.4223 94.1727V94.1727C75.8007 93.9162 79.1798 95.1096 80.7675 96.0898V96.0898C81.2367 96.3795 81.2442 97.0091 80.8543 97.399V97.399L77.8543 100.399C77.6667 100.587 77.5614 100.841 77.5614 101.106V106.192V106.192C77.5614 106.744 77.1137 107.192 76.5614 107.192V107.192H74.5614C74.0091 107.192 73.5614 107.64 73.5614 108.192V108.442V108.692C73.5614 109.244 74.0091 109.692 74.5614 109.692H78.5614H79.5614C80.1137 109.692 80.5614 109.244 80.5614 108.692V104.164V104.164C80.5614 103.865 80.6962 103.583 80.9216 103.387V103.387C86.9672 98.1264 89.3758 88.7793 89.9569 83.7898V83.7898C90.0252 83.2035 90.5697 82.7807 91.1524 82.8748V82.8748C98.049 83.9885 105.144 84.3538 109.82 84.5947C110.212 84.6148 110.586 84.6341 110.942 84.6529V84.6529C111.374 84.6756 111.741 84.9749 111.848 85.3937C111.848 85.3964 111.849 85.3991 111.85 85.4018C112.8 89.139 112.903 90.6363 112.914 91.2532C112.929 92.0304 114.169 91.2009 114.22 90.4253L114.228 90.3046C114.233 90.2375 114.237 90.1736 114.242 90.1123C114.31 89.1681 114.335 88.8227 113.847 86.5077V86.5077C113.708 85.8524 114.234 85.242 114.9 85.3113V85.3113C124.938 86.3558 134.925 90.674 139.17 92.9764V92.9764C139.418 93.111 139.591 93.3523 139.696 93.6142V93.6142C141.171 97.2822 151.635 105.974 157.842 110.76V110.76C158.414 111.201 158.324 112.042 157.617 112.188V112.188C153.461 113.049 144.977 111.493 139.561 110.195C139.174 110.102 138.408 109.586 137.686 109.1L137.643 109.071C137.006 108.643 136.599 109.043 137.061 109.656C137.41 110.119 137.807 110.599 138.151 110.99V110.99C138.506 111.394 138.53 112.012 138.176 112.417V112.417L137.111 113.636C137.078 113.673 137.05 113.714 137.026 113.758C136.666 114.422 137.506 115.083 138.067 114.577L139.624 113.173V113.173C139.947 112.882 140.419 112.837 140.809 113.029V113.029C142.371 113.798 144.367 114.346 146.561 114.725C149.559 115.241 152.926 115.442 156.062 115.458C158.495 115.47 160.79 115.372 162.664 115.224V115.224C162.918 115.204 163.171 115.282 163.376 115.435V115.435C167.345 118.394 175.706 120.976 179.986 122.051V122.051C180.34 122.139 180.618 122.416 180.728 122.764V122.764C183.946 132.947 199.585 139.679 209.941 142.641V142.641C210.956 142.932 211.075 144.82 210.142 145.314V145.314C205.652 147.694 200.332 151.826 197.643 154.122L197.561 154.192L197.534 154.206L197.469 154.241L197.467 154.242C196.613 154.691 190.154 158.046 185.561 159.192C178.128 161.046 166.257 159.436 164.726 159.216V159.216C164.617 159.2 164.512 159.165 164.414 159.115C164.414 159.114 164.413 159.114 164.412 159.114C157.827 155.726 146.521 156.316 141.127 157.105V157.105C140.777 157.156 140.423 157.023 140.197 156.751C140.195 156.749 140.193 156.747 140.192 156.745C134.015 149.323 130.215 147.182 125.502 144.524L125.5 144.524C124.772 144.113 124.022 143.691 123.239 143.234C123.239 143.235 123.239 143.234 123.239 143.234L123.166 143.192L123.103 143.14C120.07 140.623 113.156 135.692 111.666 135.692L105.607 135.226V135.226C105.326 135.204 105.067 135.063 104.89 134.844V134.844C102.054 131.344 99.8974 130.958 97.1402 130.464C96.6366 130.374 96.113 130.28 95.5615 130.163C95.1805 130.083 95.0699 130.549 95.4339 130.688C100.501 132.615 102.007 134.248 102.147 135.18V135.18C102.196 135.507 101.86 135.703 101.529 135.724V135.724C95.5527 136.103 94.8431 136.99 95.3434 137.522C95.4676 137.654 95.6572 137.692 95.8385 137.692H110.222V137.692C110.442 137.692 110.656 137.765 110.831 137.898V137.898L121.567 146.135V146.135C121.633 146.185 121.722 146.27 121.653 146.317V146.317C121.418 146.477 120.014 146.402 118.353 146.313C117.218 146.253 115.962 146.186 114.877 146.183V146.183C114.451 146.182 114.067 145.922 113.846 145.558V145.558C113.264 144.603 112.12 143.371 110.682 142.694C109.906 142.328 109.441 143.202 110.004 143.849L111.688 145.782V145.782C111.919 146.047 111.851 146.247 111.507 146.315V146.315C110.369 146.538 107.693 147.119 105.456 148.012C104.532 148.381 104.893 149.261 105.878 149.12C110.77 148.421 118.368 147.873 124.936 149.055V149.055C125.087 149.082 125.23 149.145 125.352 149.238V149.238C128.199 151.406 131.544 154.476 133.932 156.667L133.933 156.668C134.844 157.503 135.615 158.211 136.166 158.692C136.457 158.946 136.411 159.241 136.32 159.445V159.445C136.243 159.619 136.068 159.719 135.884 159.771C135.883 159.771 135.882 159.772 135.881 159.772C126.536 162.411 122.824 165.095 120.403 167.458V167.458C120.248 167.609 120.05 167.708 119.836 167.739V167.739L116.846 168.166L116.666 168.192L116.487 168.152C108.662 166.438 102.241 166.618 98.5484 168.031V168.031C97.8738 168.289 97.0561 167.887 96.9069 167.18V167.18C96.3208 164.403 94.9469 160.497 92.6798 158.779C92.6018 158.72 92.5143 158.676 92.4216 158.644L87.4043 156.942V156.942C86.9714 156.796 86.6917 156.369 86.8271 155.933V155.933C87.263 154.527 88.5063 152.421 90.0344 150.839C90.7661 150.081 90.4341 148.624 89.5274 149.16C87.3304 150.46 85.6265 153.213 84.6975 155.298V155.298C84.492 155.759 83.9882 156.022 83.4982 155.9V155.9L76.9346 154.259V154.259C76.7589 154.215 76.5974 154.125 76.473 153.993V153.993C75.1191 152.56 73.8324 150.346 73.3084 147.472C73.1399 146.548 72.0694 146.279 71.9185 147.206C71.3495 150.699 74.1483 154.647 75.9628 156.49C76.0942 156.624 76.263 156.713 76.4463 156.752L83.1659 158.192L91.1659 160.692C92.8829 161.379 93.9601 165.431 94.4635 168.041V168.041C94.5797 168.644 94.1094 169.192 93.4957 169.192V169.192H90.4234V169.192C90.1899 169.192 89.965 169.107 89.7765 168.969V168.969C86.1002 166.279 78.3887 167.135 72.2854 168.423V168.423C71.6575 168.556 71.0615 168.081 71.0615 167.439V167.439V162.692C71.0615 164.167 70.0451 166.278 69.1372 167.819V167.819C68.7586 168.462 67.8111 168.428 67.3364 167.853V167.853C65.9581 166.183 63.3628 163.972 59.3642 162.431C58.3671 162.047 57.8056 163.22 58.665 163.855L64.8704 168.442V168.442C65.5478 168.943 65.3273 169.957 64.4881 170.029V170.029C63.8113 170.087 63.1398 170.106 62.4698 170.126C60.7376 170.175 59.0152 170.224 57.2361 170.948V170.948C56.8959 171.087 56.5064 171.054 56.193 170.862V170.862C54.6197 169.9 52.0957 169.071 49.9826 170.281C49.0875 170.793 50.0305 171.817 51.047 171.643C52.0242 171.475 52.9113 171.53 53.6342 171.681V171.681C54.3382 171.828 54.4379 172.709 54.0249 173.298V173.298C53.1749 174.51 52.5515 176.255 52.1022 178.162V178.162C52.0245 178.491 51.791 178.764 51.4756 178.887V178.887C49.6792 179.59 46.9667 180.757 44.9621 181.9C44.1262 182.377 44.5105 183.055 45.4152 182.727C45.8258 182.578 46.2419 182.426 46.6559 182.274L46.6661 182.27L46.6719 182.268C47.9318 181.805 49.1702 181.35 50.167 181.04V181.04C50.8137 180.838 51.4035 181.38 51.3402 182.054V182.054C51.1477 184.105 51.0614 186.442 51.0614 187.692H53.0615C52.4175 179.642 54.8219 175.804 56.8275 174.092V174.092C57.3924 173.61 58.1659 174.067 58.1659 174.81V174.81V179.844C58.1659 180.409 58.657 180.848 59.2185 180.786C59.6985 180.732 60.0615 180.327 60.0615 179.844V173.692V173.692C60.0615 173.14 60.509 172.692 61.0601 172.667V172.667C64.7119 172.494 69.9967 171.496 71.0615 171.192C78.4221 168.248 85.5005 170.721 88.7918 172.693V172.693C89.2366 172.96 89.3578 173.538 89.0949 173.985V173.985L85.448 180.185C85.0558 180.852 85.5252 181.49 86.152 181.037C88.171 179.577 90.55 176.005 91.8765 173.704V173.704C92.0576 173.389 92.3923 173.192 92.7551 173.192V173.192H95.2509C95.4532 173.192 95.6512 173.129 95.8204 173.018C101.843 169.071 109.695 170.526 113.452 171.947V171.947C113.825 172.088 114.075 172.456 114.012 172.85V172.85C113.629 175.27 111.091 175.609 109.166 175.389C108.599 175.325 108.062 175.745 108.062 176.315C108.062 176.799 108.454 177.192 108.938 177.192H110.562C113.73 177.544 115.582 174.823 116.321 172.916V172.916C116.484 172.496 116.875 172.192 117.325 172.192V172.192H120.543C120.625 172.192 120.706 172.182 120.785 172.162L122.493 171.735C122.607 171.706 122.719 171.656 122.816 171.59C142.145 158.515 153.846 161.744 162.922 165.081C163.472 165.283 164.013 165.486 164.544 165.685L164.562 165.692C164.142 166.031 163.705 166.421 163.256 166.855C159.064 170.902 153.771 178.724 151.062 183.692C148.507 188.376 145.451 188.291 142.626 188.212C142.267 188.202 141.912 188.192 141.562 188.192L137.951 188.593C137.445 188.649 137.062 189.077 137.062 189.587V189.692C137.062 190.244 137.509 190.692 138.062 190.692H144.676V190.692C145.165 190.692 145.562 191.089 145.562 191.578V191.578V191.578C145.562 191.947 145.332 192.278 144.987 192.407V192.407L142.21 193.449C141.82 193.595 141.562 193.968 141.562 194.385V200.843C141.562 201.036 141.718 201.192 141.91 201.192C142.062 201.192 142.197 201.093 142.243 200.948L143.932 195.601V195.601C144.015 195.34 144.201 195.124 144.448 195.004V195.004L147.938 193.303C148.087 193.23 148.216 193.122 148.313 192.986C150.458 189.999 153.376 186.259 154.672 185.061V185.061C154.95 184.804 155.344 184.854 155.606 185.128V185.128C156.849 186.425 160.347 190.553 161.166 196.692C161.21 197.02 161.681 196.977 162.084 196.879C162.449 196.789 162.689 196.457 162.704 196.082C162.942 190.161 159.208 185.054 156.914 183.245V183.245C156.475 182.899 156.269 182.275 156.526 181.779V181.779C162.046 171.115 167.453 167.206 168.762 166.372C168.789 166.355 168.813 166.34 168.836 166.326C168.98 166.236 169.152 166.209 169.319 166.238V166.238L169.41 166.254C182.407 168.55 190.584 166.179 193.062 164.692C203.322 160.203 213.172 152.806 218.918 148.492C222.132 146.078 224.062 144.629 224.062 145.192C224.062 145.369 257.261 148.497 268.412 148.196L268.415 148.196C268.518 148.193 268.61 148.174 268.708 148.14C271.129 147.3 276.751 145.908 281.062 146.692C285 147.408 291.368 154.853 294.932 159.635V159.635C295.415 160.283 294.944 161.192 294.135 161.192V161.192H288.754V161.192C288.627 161.192 288.501 161.167 288.383 161.12V161.12L283.74 159.263C283.622 159.216 283.496 159.192 283.369 159.192H282.061H278.061H272.561C272.061 159.858 271.361 161.192 272.561 161.192H283.561Z" fill="black"/>
<path d="M288.561 164.692L283.561 167.692M288.561 164.692L283.561 161.192M288.561 164.692H295.605M283.561 161.192C280.395 161.192 273.761 161.192 272.561 161.192M283.561 161.192H272.561M272.561 161.192C271.361 161.192 272.061 159.858 272.561 159.192M272.561 159.192H278.061M272.561 159.192L268.562 156.192M164.562 165.692C164.142 166.031 163.705 166.421 163.256 166.855M164.562 165.692L164.544 165.685M164.562 165.692C164.556 165.69 164.55 165.688 164.544 165.685M53.0615 187.692H51.0614M53.0615 187.692L55.0614 190.692M53.0615 187.692C52.4175 179.642 54.8219 175.804 56.8275 174.092M51.0614 187.692L48.5614 191.192M51.0614 187.692C51.0614 186.442 51.1477 184.105 51.3402 182.054M116.666 168.192L116.846 168.166M116.666 168.192C116.606 168.179 116.546 168.165 116.487 168.152M116.666 168.192L116.487 168.152M123.166 143.192C123.19 143.206 123.215 143.22 123.239 143.234M123.166 143.192C123.145 143.175 123.124 143.157 123.103 143.14M123.166 143.192L123.239 143.234M123.166 143.192L123.103 143.14M197.561 154.192C197.588 154.169 197.615 154.146 197.643 154.122M197.561 154.192L197.643 154.122M197.561 154.192L197.534 154.206M197.561 154.192C197.561 154.192 197.552 154.197 197.534 154.206M156.062 115.458L155.061 117.192M156.062 115.458C152.926 115.442 149.559 115.241 146.561 114.725M156.062 115.458C158.495 115.47 160.79 115.372 162.664 115.224M146.561 114.725L145.562 116.192M146.561 114.725C144.367 114.346 142.371 113.798 140.809 113.029M17.0614 98.6919L13.0614 97.1919M17.0614 98.6919C17.4347 102.798 12.6123 106.642 9.66362 108.357M17.0614 98.6919C25.8016 97.0733 43.8784 92.0911 48.212 84.8441M18.5614 73.6919L18.6328 73.7316M18.5614 73.6919C18.5356 73.6826 18.5099 73.6734 18.4843 73.6641M18.5614 73.6919L18.4843 73.6641M49.5614 80.1919C49.4733 80.1118 49.3798 80.0326 49.281 79.9541M49.5614 80.1919L49.9208 80.2035M49.5614 80.1919C49.6797 80.1958 49.7996 80.1996 49.9208 80.2035M83.5614 15.1919C83.5624 15.1498 83.5635 15.1079 83.5647 15.0661M83.5614 15.1919L83.5888 15.3113M83.5614 15.1919C83.5704 15.2314 83.5796 15.2712 83.5888 15.3113M92.5614 33.6919C92.5932 33.6919 92.6253 33.6919 92.6577 33.692M92.5614 33.6919C92.5294 33.6855 92.4975 33.6784 92.4655 33.6706M92.5614 33.6919L92.6577 33.692M108.561 35.6919C108.63 35.6893 108.699 35.6867 108.769 35.6841M108.561 35.6919C108.497 35.6663 108.432 35.641 108.366 35.6159M108.561 35.6919L108.769 35.6841M172.061 7.69189C173.561 9.02523 177.061 11.8919 179.061 12.6919C180.911 13.4316 187.178 12.5183 190.747 11.8494M172.061 7.69189L172.9 6.85343C173.272 6.48116 173.867 6.46241 174.281 6.78783C176.98 8.91032 181.786 11.544 184.824 9.36033C185.084 9.17378 196.83 3.95208 197.061 3.69189M172.061 7.69189C171.892 7.63538 171.543 7.4575 171.042 7.20158C170.059 6.69936 168.486 5.89659 166.522 5.12064M197.061 3.69189C197.216 3.65079 197.375 3.6105 197.538 3.57129M197.061 3.69189L196.671 3.39122C196.917 3.58077 197.236 3.64374 197.538 3.57129M250.561 1.19192C250.726 1.09268 267.032 1.79306 274.903 2.08053C275.954 2.1189 281.223 4.43106 281.937 5.20287C282.152 5.43566 282.28 5.59386 282.26 5.62502C279.604 9.67775 278.075 18.567 291.407 25.1163M250.561 1.19192C262.203 13.1819 273.434 21.1075 278.781 24.3826C282.199 26.4759 284.187 27.6936 284.561 29.1919C285.019 31.0226 285.062 32.8316 284.953 34.2629C284.9 34.9583 284.137 35.3194 283.534 34.9696L274.485 29.7252C273.986 29.4361 273.347 29.6275 273.089 30.1432L272.887 30.5472C272.695 30.9322 272.767 31.3975 273.103 31.6664C275.573 33.6428 281.81 36.6126 285.094 38.0574C285.294 38.1452 285.459 38.2949 285.566 38.4852C285.838 38.9697 286.102 39.439 286.358 39.894C294.122 53.706 294.494 54.3684 293.561 70.6919C292.773 84.487 279.298 95.5311 272.366 99.5189C272.166 99.6341 271.943 99.6748 271.719 99.6184C265.017 97.9285 252.528 80.7185 246.564 71.4754C246.278 71.0336 246.393 70.4491 246.81 70.1285C255.561 63.3983 255.561 58.1649 255.561 57.1919C255.561 56.3919 259.228 53.1919 261.061 51.6919M250.561 1.19192L236.329 2.149C235.848 2.18132 235.461 2.5522 235.39 3.02856C234.537 8.75524 231.933 13.8628 230.551 14.885M250.561 1.19192C250.587 1.4885 250.53 1.82838 250.4 2.20475C248.901 6.5521 237.725 15.768 233 19.3607C232.727 19.5679 232.577 19.8888 232.604 20.2299C233.658 33.261 237.144 59.458 243.061 64.1919C244.272 65.2676 247.174 65.649 250.561 60.7146M254.561 54.1919L253.126 56.1061C253.083 56.1631 253.046 56.2248 253.016 56.2896C252.182 58.0988 251.358 59.5538 250.561 60.7146M254.561 54.1919L261.061 49.1919M254.561 54.1919C253.228 53.8585 250.961 51.0919 252.561 42.6919M261.061 49.1919V51.6919M261.061 49.1919L264.561 47.6666M261.061 51.6919C264.895 52.8815 272.961 54.654 274.561 52.2264M13.0614 73.6919C13.0388 73.7032 13.0162 73.7145 12.9934 73.7258M13.0614 73.6919L12.9934 73.7258M13.0614 73.6919L13.132 73.6693M13.0614 73.6919C13.0851 73.6843 13.1086 73.6768 13.132 73.6693M8.06971 66.6919L8.15222 66.7139M8.06971 66.6919C8.09728 66.6993 8.12479 66.7066 8.15222 66.7139M8.06971 66.6919C17.7337 65.3107 20.3661 70.7126 21.0339 72.3576M41.5049 76.8518V73.6919M41.5049 76.8518C36.9154 75.7063 31.2734 74.8842 26.3051 74.3487M41.5049 76.8518C44.9129 77.7025 47.7406 78.7315 49.281 79.9541M190.061 56.1919C189.207 57.1886 188.308 57.9256 187.394 58.4524M183.561 59.5646C184.817 59.5121 186.121 59.186 187.394 58.4524M183.561 59.5646L183.297 55.6435M183.561 59.5646C183.768 57.558 183.612 56.2657 183.297 55.6435M187.394 58.4524L188.383 59.3944M188.561 59.5646L188.383 59.3944M172.061 42.6919L170.561 38.6919M172.061 42.6919L176.561 40.1919M172.061 42.6919C172.151 43.5879 172.247 44.4319 172.348 45.2266M172.061 42.6919C175.266 47.1369 176.807 53.9528 176.685 56.4651M221.339 48.1919C221.411 48.8417 221.485 49.5083 221.561 50.1919C223.482 67.4774 240.311 90.4498 249.467 100.954M221.339 48.1919C220.062 48.2607 218.124 48.1535 216.061 47.6666M221.339 48.1919C219.751 33.9821 218.954 27.7632 218.663 25.8125M208.061 42.6919C209.306 44.5589 211.123 45.8308 213.061 46.6783M216.061 47.6666V40.6919M216.061 47.6666C215.07 47.4325 214.05 47.1106 213.061 46.6783M213.061 46.6783L208.061 47.6666M250.561 60.7146L246.561 57.1919M252.561 42.6919C253.561 42.6919 255.561 42.2919 255.561 40.6919M252.561 42.6919C251.895 42.3585 250.561 41.0919 250.561 38.6919M264.561 47.6666V44.1919M264.561 47.6666H268.562M164.061 7.19189C164.944 6.30925 165.764 5.63032 166.522 5.12064M143.561 7.69189V12.6919M143.561 7.69189C142.228 8.19189 139.561 9.69189 139.561 11.6919M143.561 7.69189C144.536 6.80176 145.54 6.05895 146.561 5.4452M149.561 4.01134C151.73 3.22016 153.929 2.90812 156.062 2.91215C159.975 2.91956 163.664 3.99173 166.522 5.12064M149.561 4.01134C149.561 6.40486 148.961 11.4919 146.561 12.6919M149.561 4.01134C148.551 4.37985 147.548 4.85231 146.561 5.4452M146.561 5.4452C145.061 4.36296 140.661 2.84784 135.061 5.4452M73.5614 108.442C72.5614 108.692 70.0613 107.692 66.5614 110.692M73.5614 108.442V108.692M73.5614 108.442V108.192M78.5614 109.692C78.2281 111.359 78.0614 114.392 80.0614 113.192M78.5614 109.692H79.5614M78.5614 109.692H74.5614M278.061 159.192C277.561 157.858 276.161 154.992 274.561 154.192M278.061 159.192H282.061M282.061 159.192V157.192M282.061 159.192H283.369M314.611 152.692C315.461 151.359 316.651 147.392 314.611 142.192M314.611 152.692C298.032 133.32 294.519 114.627 295.51 105.144M314.611 152.692C321.955 161.274 331.864 169.989 345.081 178.095C345.505 178.355 345.678 178.887 345.483 179.345L334.525 205.102C334.283 205.672 333.585 205.887 333.07 205.544C318.883 196.108 308.753 181.993 301.879 172.415C299.725 169.414 297.891 166.858 296.351 165.031M95.5615 130.163V130.163C95.1805 130.083 95.0699 130.549 95.4339 130.688V130.688M95.5615 130.163V125.692M95.5615 130.163C95.1805 130.083 95.0699 130.549 95.4339 130.688M95.5615 130.163C96.113 130.28 96.6366 130.374 97.1402 130.464C99.8974 130.958 102.054 131.344 104.89 134.844M8.15222 66.7139C15.5825 68.6965 16.5614 69.3952 18.5614 71.8952C18.6434 71.9977 18.5883 71.9716 18.4174 71.8909C17.7637 71.5819 15.4157 70.4721 12.5648 72.6919C9.01746 75.4539 11.3328 74.5507 12.9934 73.7258M102.548 41.6919V41.6919C102.555 41.4434 103.116 41.1822 103.344 41.2818V41.2818M102.548 41.6919C102.555 41.4428 103.116 41.182 103.344 41.2818M102.548 41.6919C102.507 43.238 102.369 44.644 102.152 45.9212M190.166 56.1919C189.735 57.5551 189.122 58.6035 188.383 59.3944M181.166 59.1919C179.395 58.9022 178.163 58.3318 177.157 57.6366M181.166 59.1919L182.604 55.2373M181.166 59.1919C181.393 56.8094 182.031 55.4567 182.604 55.2373M296.351 165.031C296.165 164.809 295.895 164.692 295.605 164.692M296.351 165.031V165.031C296.169 164.814 295.899 164.692 295.615 164.692H295.605M283.369 159.192C283.496 159.192 283.622 159.216 283.74 159.263M283.369 159.192V159.192C283.496 159.192 283.622 159.216 283.74 159.263V159.263M283.74 159.263L288.383 161.12M288.383 161.12C288.501 161.167 288.627 161.192 288.754 161.192M288.383 161.12V161.12C288.501 161.167 288.627 161.192 288.754 161.192V161.192M288.754 161.192H294.135M294.135 161.192C294.945 161.192 295.416 160.285 294.932 159.635M294.135 161.192V161.192C294.944 161.192 295.415 160.283 294.932 159.635V159.635M294.932 159.635C291.368 154.853 285 147.408 281.062 146.692C276.751 145.908 271.129 147.3 268.708 148.14M268.708 148.14C268.705 148.141 268.703 148.142 268.7 148.143C268.608 148.175 268.512 148.193 268.415 148.196V148.196M268.708 148.14C268.61 148.174 268.518 148.193 268.415 148.196M169.41 166.254C182.407 168.55 190.584 166.179 193.062 164.692C203.322 160.203 213.172 152.806 218.918 148.492C222.132 146.078 224.062 144.629 224.062 145.192C224.062 145.369 257.261 148.497 268.412 148.196L268.415 148.196M169.41 166.254C169.186 166.215 168.954 166.25 168.762 166.372M169.41 166.254L169.319 166.238M169.41 166.254C169.38 166.249 169.349 166.244 169.319 166.238M168.762 166.372C167.453 167.206 162.046 171.115 156.526 181.779M168.762 166.372C168.789 166.355 168.813 166.34 168.836 166.326C168.98 166.236 169.152 166.209 169.319 166.238V166.238M156.526 181.779C156.269 182.276 156.474 182.898 156.914 183.245M156.526 181.779V181.779C156.269 182.275 156.475 182.899 156.914 183.245V183.245M156.914 183.245C159.208 185.054 162.942 190.161 162.704 196.082M162.704 196.082C162.689 196.457 162.449 196.789 162.084 196.879M162.704 196.082V196.082C162.689 196.457 162.449 196.789 162.084 196.879V196.879M162.084 196.879C161.681 196.977 161.21 197.02 161.166 196.692C160.347 190.553 156.849 186.425 155.606 185.128M155.606 185.128C155.343 184.853 154.951 184.802 154.672 185.061M155.606 185.128V185.128C155.344 184.854 154.95 184.804 154.672 185.061V185.061M154.672 185.061C153.376 186.259 150.458 189.999 148.313 192.986M148.313 192.986C148.216 193.122 148.087 193.23 147.938 193.303M148.313 192.986V192.986C148.216 193.121 148.087 193.23 147.938 193.303V193.303M147.938 193.303L144.448 195.004M144.448 195.004C144.201 195.124 144.015 195.34 143.932 195.601M144.448 195.004V195.004C144.201 195.124 144.015 195.34 143.932 195.601V195.601M143.932 195.601L142.243 200.948M142.243 200.948C142.197 201.093 142.062 201.192 141.91 201.192M142.243 200.948V200.948C142.197 201.093 142.062 201.192 141.91 201.192V201.192M141.91 201.192C141.718 201.192 141.562 201.036 141.562 200.843M141.91 201.192V201.192C141.718 201.192 141.562 201.036 141.562 200.843V200.843M141.562 200.843V194.385M141.562 194.385C141.562 193.968 141.82 193.595 142.21 193.449M141.562 194.385V194.385C141.562 193.968 141.82 193.595 142.21 193.449V193.449M142.21 193.449L144.987 192.407M144.987 192.407C145.332 192.278 145.562 191.947 145.562 191.578M144.987 192.407V192.407C145.332 192.278 145.562 191.947 145.562 191.578V191.578M145.562 191.578C145.562 191.089 145.165 190.692 144.676 190.692M145.562 191.578V191.578C145.562 191.089 145.165 190.692 144.676 190.692V190.692M144.676 190.692H138.062M138.062 190.692C137.509 190.692 137.062 190.244 137.062 189.692M138.062 190.692V190.692C137.509 190.692 137.062 190.244 137.062 189.692V189.692M137.062 189.692V189.587M137.062 189.587C137.062 189.077 137.445 188.649 137.951 188.593M137.062 189.587V189.587C137.062 189.077 137.445 188.649 137.951 188.593V188.593M137.951 188.593L141.562 188.192C141.912 188.192 142.267 188.202 142.626 188.212C145.451 188.291 148.507 188.376 151.062 183.692C153.771 178.724 159.064 170.902 163.256 166.855M163.256 166.855C163.813 166.318 163.649 165.348 162.922 165.081M162.922 165.081C153.846 161.744 142.145 158.515 122.816 171.59M162.922 165.081C163.472 165.283 164.013 165.486 164.544 165.685M122.816 171.59C122.719 171.656 122.607 171.706 122.493 171.735M122.816 171.59C122.815 171.591 122.814 171.591 122.813 171.592C122.716 171.658 122.607 171.706 122.493 171.735V171.735M122.493 171.735L120.785 172.162M120.785 172.162C120.706 172.182 120.625 172.192 120.543 172.192M120.785 172.162V172.162C120.706 172.182 120.624 172.192 120.543 172.192V172.192M120.543 172.192H117.325M117.325 172.192C116.874 172.192 116.484 172.495 116.321 172.916M117.325 172.192V172.192C116.875 172.192 116.484 172.496 116.321 172.916V172.916M116.321 172.916C115.582 174.823 113.73 177.544 110.562 177.192H108.938M108.938 177.192C108.454 177.192 108.062 176.799 108.062 176.315M108.938 177.192V177.192C108.454 177.192 108.062 176.799 108.062 176.315V176.315M108.062 176.315C108.062 175.745 108.599 175.325 109.166 175.389M108.062 176.315V176.315C108.062 175.745 108.599 175.325 109.166 175.389V175.389M109.166 175.389C111.091 175.609 113.629 175.27 114.012 172.85M114.012 172.85C114.075 172.454 113.826 172.088 113.452 171.947M114.012 172.85V172.85C114.075 172.456 113.825 172.088 113.452 171.947V171.947M113.452 171.947C109.695 170.526 101.843 169.071 95.8204 173.018M95.8204 173.018C95.6512 173.129 95.4532 173.192 95.2509 173.192M95.8204 173.018V173.018C95.6512 173.129 95.4532 173.192 95.2509 173.192V173.192M95.2509 173.192H92.7551M92.7551 173.192C92.3915 173.192 92.058 173.389 91.8765 173.704M92.7551 173.192V173.192C92.3923 173.192 92.0576 173.389 91.8765 173.704V173.704M91.8765 173.704C90.55 176.005 88.171 179.577 86.152 181.037M86.152 181.037C85.5252 181.49 85.0558 180.852 85.448 180.185M86.152 181.037V181.037C85.5257 181.489 85.0561 180.851 85.448 180.185V180.185M85.448 180.185L89.0949 173.985M89.0949 173.985C89.3586 173.537 89.238 172.961 88.7918 172.693M89.0949 173.985V173.985C89.3578 173.538 89.2366 172.96 88.7918 172.693V172.693M88.7918 172.693C85.5005 170.721 78.4221 168.248 71.0615 171.192C69.9967 171.496 64.7119 172.494 61.0601 172.667M61.0601 172.667C60.5085 172.693 60.0615 173.14 60.0615 173.692M61.0601 172.667V172.667C60.509 172.692 60.0615 173.14 60.0615 173.692V173.692M60.0615 173.692V179.844M60.0615 179.844C60.0615 180.327 59.6985 180.732 59.2185 180.786M60.0615 179.844V179.844C60.0615 180.327 59.6985 180.732 59.2185 180.786V180.786M59.2185 180.786C58.657 180.848 58.1659 180.409 58.1659 179.844M59.2185 180.786V180.786C58.657 180.848 58.1659 180.409 58.1659 179.844V179.844M58.1659 179.844V174.81M58.1659 174.81C58.1659 174.067 57.3928 173.609 56.8275 174.092M58.1659 174.81V174.81C58.1659 174.067 57.3924 173.61 56.8275 174.092V174.092M51.3402 182.054C51.4035 181.38 50.8141 180.838 50.167 181.04M51.3402 182.054V182.054C51.4035 181.38 50.8137 180.838 50.167 181.04V181.04M50.167 181.04C49.1702 181.35 47.9318 181.805 46.6719 182.268M45.4152 182.727C44.5105 183.055 44.1262 182.377 44.9621 181.9M45.4152 182.727V182.727C44.5107 183.055 44.1265 182.377 44.9621 181.9V181.9M45.4152 182.727C45.8258 182.578 46.2419 182.426 46.6559 182.274M44.9621 181.9C46.9667 180.757 49.6792 179.59 51.4756 178.887M51.4756 178.887C51.7914 178.764 52.0244 178.492 52.1022 178.162M51.4756 178.887V178.887C51.791 178.764 52.0245 178.491 52.1022 178.162V178.162M52.1022 178.162C52.5515 176.255 53.1749 174.51 54.0249 173.298M54.0249 173.298C54.4379 172.709 54.3383 171.828 53.6342 171.681M54.0249 173.298V173.298C54.4379 172.709 54.3382 171.828 53.6342 171.681V171.681M53.6342 171.681C52.9113 171.53 52.0242 171.475 51.047 171.643M51.047 171.643C50.0305 171.817 49.0875 170.793 49.9826 170.281M51.047 171.643V171.643C50.0305 171.817 49.0875 170.793 49.9826 170.281V170.281M49.9826 170.281C52.0957 169.071 54.6197 169.9 56.193 170.862M56.193 170.862C56.507 171.054 56.8953 171.087 57.2361 170.948M56.193 170.862V170.862C56.5064 171.054 56.8959 171.087 57.2361 170.948V170.948M57.2361 170.948C59.0152 170.224 60.7376 170.175 62.4698 170.126C63.1398 170.106 63.8113 170.087 64.4881 170.029M64.4881 170.029C65.3273 169.957 65.5478 168.943 64.8704 168.442M64.4881 170.029V170.029C65.3273 169.957 65.5478 168.943 64.8704 168.442V168.442M64.8704 168.442L58.665 163.855M58.665 163.855C57.8056 163.22 58.3671 162.047 59.3642 162.431M58.665 163.855V163.855C57.8056 163.22 58.3671 162.047 59.3642 162.431V162.431M59.3642 162.431C63.3628 163.972 65.9581 166.183 67.3364 167.853M67.3364 167.853C67.8113 168.429 68.7584 168.462 69.1372 167.819M67.3364 167.853V167.853C67.8111 168.428 68.7586 168.462 69.1372 167.819V167.819M69.1372 167.819C70.0451 166.278 71.0615 164.167 71.0615 162.692V167.439M71.0615 167.439C71.0615 168.081 71.6575 168.556 72.2854 168.423M71.0615 167.439V167.439C71.0615 168.081 71.6575 168.556 72.2854 168.423V168.423M72.2854 168.423C78.3887 167.135 86.1002 166.279 89.7765 168.969M89.7765 168.969C89.9653 169.108 90.1895 169.192 90.4234 169.192M89.7765 168.969V168.969C89.965 169.107 90.1899 169.192 90.4234 169.192V169.192M90.4234 169.192H93.4957M93.4957 169.192C94.1102 169.192 94.5798 168.644 94.4635 168.041M93.4957 169.192V169.192C94.1094 169.192 94.5797 168.644 94.4635 168.041V168.041M94.4635 168.041C93.9601 165.431 92.8829 161.379 91.1659 160.692L83.1659 158.192L76.4463 156.752M76.4463 156.752C76.263 156.713 76.0942 156.624 75.9628 156.49M76.4463 156.752V156.752C76.2634 156.713 76.094 156.624 75.9628 156.49V156.49M75.9628 156.49C74.1483 154.647 71.3495 150.699 71.9185 147.206M71.9185 147.206C72.0694 146.279 73.1399 146.548 73.3084 147.472M71.9185 147.206V147.206C72.0694 146.279 73.1399 146.548 73.3084 147.472V147.472M73.3084 147.472C73.8324 150.346 75.1191 152.56 76.473 153.993M76.473 153.993C76.5975 154.125 76.7588 154.215 76.9346 154.259M76.473 153.993V153.993C76.5974 154.125 76.7589 154.215 76.9346 154.259V154.259M76.9346 154.259L83.4982 155.9M83.4982 155.9C83.9892 156.023 84.4915 155.76 84.6975 155.298M83.4982 155.9V155.9C83.9882 156.022 84.492 155.759 84.6975 155.298V155.298M84.6975 155.298C85.6265 153.213 87.3304 150.46 89.5274 149.16M89.5274 149.16C90.4341 148.624 90.7661 150.081 90.0344 150.839M89.5274 149.16V149.16C90.4341 148.624 90.7661 150.081 90.0344 150.839V150.839M90.0344 150.839C88.5063 152.421 87.263 154.527 86.8271 155.933M86.8271 155.933C86.6914 156.371 86.9702 156.795 87.4043 156.942M86.8271 155.933V155.933C86.6917 156.369 86.9714 156.796 87.4043 156.942V156.942M87.4043 156.942L92.4216 158.644M92.4216 158.644C92.5143 158.676 92.6018 158.72 92.6798 158.779M92.4216 158.644V158.644C92.5139 158.676 92.6021 158.72 92.6798 158.779V158.779M92.6798 158.779C94.9469 160.497 96.3208 164.403 96.9069 167.18M96.9069 167.18C97.0562 167.887 97.8733 168.289 98.5484 168.031M96.9069 167.18V167.18C97.0561 167.887 97.8738 168.289 98.5484 168.031V168.031M98.5484 168.031C102.241 166.618 108.662 166.438 116.487 168.152M116.487 168.152C116.604 168.178 116.727 168.183 116.846 168.166M116.846 168.166L119.836 167.739M119.836 167.739C120.05 167.708 120.248 167.609 120.403 167.458M119.836 167.739V167.739C120.05 167.708 120.248 167.609 120.403 167.458V167.458M120.403 167.458C122.824 165.095 126.536 162.411 135.881 159.772M135.881 159.772C136.064 159.72 136.243 159.619 136.32 159.445M135.881 159.772C135.882 159.772 135.883 159.771 135.884 159.771C136.068 159.719 136.243 159.619 136.32 159.445V159.445M136.32 159.445C136.411 159.241 136.457 158.946 136.166 158.692C135.615 158.211 134.844 157.503 133.933 156.668L133.932 156.667C131.544 154.476 128.199 151.406 125.352 149.238M125.352 149.238C125.229 149.145 125.088 149.083 124.936 149.055M125.352 149.238V149.238C125.23 149.145 125.087 149.082 124.936 149.055V149.055M124.936 149.055C118.368 147.873 110.77 148.421 105.878 149.12M105.878 149.12C104.893 149.261 104.532 148.381 105.456 148.012M105.878 149.12V149.12C104.893 149.26 104.533 148.38 105.456 148.012V148.012M105.456 148.012C107.693 147.119 110.369 146.538 111.507 146.315M111.507 146.315C111.852 146.247 111.92 146.048 111.688 145.782M111.507 146.315V146.315C111.851 146.247 111.919 146.047 111.688 145.782V145.782M111.688 145.782L110.004 143.849M110.004 143.849C109.441 143.202 109.906 142.328 110.682 142.694M110.004 143.849V143.849C109.441 143.202 109.906 142.328 110.682 142.694V142.694M110.682 142.694C112.12 143.371 113.264 144.603 113.846 145.558M113.846 145.558C114.067 145.922 114.45 146.182 114.877 146.183M113.846 145.558V145.558C114.067 145.922 114.451 146.182 114.877 146.183V146.183M114.877 146.183C115.962 146.186 117.218 146.253 118.353 146.313C120.014 146.402 121.418 146.477 121.653 146.317M121.653 146.317C121.722 146.27 121.633 146.185 121.567 146.135M121.653 146.317V146.317C121.722 146.27 121.633 146.185 121.567 146.135V146.135M121.567 146.135L110.831 137.898M110.831 137.898C110.656 137.765 110.442 137.692 110.222 137.692M110.831 137.898V137.898C110.656 137.765 110.442 137.692 110.222 137.692V137.692M110.222 137.692H95.8385M95.8385 137.692C95.6572 137.692 95.4676 137.654 95.3434 137.522M95.8385 137.692V137.692C95.6572 137.692 95.4676 137.654 95.3434 137.522V137.522M95.3434 137.522C94.8431 136.99 95.5527 136.103 101.529 135.724M101.529 135.724C101.86 135.703 102.196 135.507 102.147 135.18M101.529 135.724V135.724C101.86 135.703 102.196 135.507 102.147 135.18V135.18M102.147 135.18C102.007 134.248 100.501 132.615 95.4339 130.688M104.89 134.844C105.067 135.063 105.326 135.204 105.607 135.226M104.89 134.844V134.844C105.067 135.063 105.326 135.204 105.607 135.226V135.226M105.607 135.226L111.666 135.692C113.156 135.692 120.07 140.623 123.103 143.14M123.103 143.14C123.146 143.175 123.191 143.206 123.239 143.234M123.239 143.234C124.022 143.691 124.772 144.113 125.5 144.524L125.502 144.524C130.215 147.182 134.015 149.323 140.192 156.745M123.239 143.234C123.239 143.234 123.239 143.235 123.239 143.234ZM140.192 156.745C140.419 157.018 140.775 157.156 141.127 157.105M140.192 156.745C140.193 156.747 140.195 156.749 140.197 156.751C140.423 157.023 140.777 157.156 141.127 157.105V157.105M141.127 157.105C146.521 156.316 157.827 155.726 164.412 159.114M164.412 159.114C164.512 159.165 164.615 159.2 164.726 159.216M164.412 159.114C164.413 159.114 164.414 159.114 164.414 159.115C164.512 159.165 164.617 159.2 164.726 159.216V159.216M164.726 159.216C166.257 159.436 178.128 161.046 185.561 159.192C190.154 158.046 196.613 154.691 197.467 154.242L197.469 154.241M197.643 154.122C200.332 151.826 205.652 147.694 210.142 145.314M197.643 154.122C197.588 154.169 197.533 154.207 197.469 154.241M210.142 145.314C211.076 144.82 210.956 142.932 209.941 142.641M210.142 145.314V145.314C211.075 144.82 210.956 142.932 209.941 142.641V142.641M209.941 142.641C199.585 139.679 183.946 132.947 180.728 122.764M180.728 122.764C180.617 122.414 180.342 122.14 179.986 122.051M180.728 122.764V122.764C180.618 122.416 180.34 122.139 179.986 122.051V122.051M179.986 122.051C175.706 120.976 167.345 118.394 163.376 115.435M163.376 115.435C163.171 115.282 162.919 115.204 162.664 115.224M163.376 115.435V115.435C163.171 115.282 162.918 115.204 162.664 115.224V115.224M140.809 113.029C140.419 112.837 139.947 112.882 139.624 113.173M140.809 113.029V113.029C140.419 112.837 139.947 112.882 139.624 113.173V113.173M139.624 113.173L138.067 114.577M138.067 114.577C137.506 115.083 136.666 114.422 137.026 113.758M138.067 114.577V114.577C137.506 115.083 136.666 114.422 137.026 113.758V113.758M137.026 113.758C137.05 113.714 137.078 113.673 137.111 113.636M137.026 113.758V113.758C137.05 113.714 137.078 113.673 137.111 113.636V113.636M137.111 113.636L138.176 112.417M138.176 112.417C138.53 112.012 138.506 111.394 138.151 110.99M138.176 112.417V112.417C138.53 112.012 138.506 111.394 138.151 110.99V110.99M138.151 110.99C137.807 110.599 137.41 110.119 137.061 109.656M137.061 109.656C136.599 109.043 137.006 108.643 137.643 109.071M137.061 109.656V109.656C136.599 109.043 137.006 108.643 137.643 109.071V109.071M137.643 109.071L137.686 109.1M137.643 109.071C137.657 109.081 137.671 109.091 137.686 109.1M137.686 109.1C138.408 109.586 139.174 110.102 139.561 110.195C144.977 111.493 153.461 113.049 157.617 112.188M157.617 112.188C158.324 112.042 158.414 111.201 157.842 110.76M157.617 112.188V112.188C158.324 112.042 158.414 111.201 157.842 110.76V110.76M157.842 110.76C151.635 105.974 141.171 97.2822 139.696 93.6142M139.696 93.6142C139.59 93.35 139.42 93.1121 139.17 92.9764M139.696 93.6142V93.6142C139.591 93.3523 139.418 93.111 139.17 92.9764V92.9764M139.17 92.9764C134.925 90.674 124.938 86.3558 114.9 85.3113M114.9 85.3113C114.234 85.242 113.708 85.8523 113.847 86.5077M114.9 85.3113V85.3113C114.234 85.242 113.708 85.8524 113.847 86.5077V86.5077M113.847 86.5077C114.335 88.8227 114.31 89.1681 114.242 90.1123C114.237 90.1736 114.233 90.2375 114.228 90.3046M114.22 90.4253C114.169 91.2009 112.929 92.0304 112.914 91.2532M114.22 90.4253V90.4253C114.169 91.1996 112.929 92.0291 112.914 91.2532V91.2532M114.22 90.4253C114.223 90.3838 114.225 90.3437 114.228 90.3046M114.22 90.4253L114.228 90.3046M112.914 91.2532C112.903 90.6363 112.8 89.139 111.85 85.4018M111.85 85.4018C111.743 84.9815 111.375 84.6757 110.942 84.6529M111.85 85.4018C111.849 85.3991 111.848 85.3964 111.848 85.3937C111.741 84.9749 111.374 84.6756 110.942 84.6529V84.6529M110.942 84.6529C110.586 84.6341 110.212 84.6148 109.82 84.5947C105.144 84.3538 98.049 83.9885 91.1524 82.8748M91.1524 82.8748C90.5679 82.7804 90.0254 83.2017 89.9569 83.7898M91.1524 82.8748V82.8748C90.5697 82.7807 90.0252 83.2035 89.9569 83.7898V83.7898M89.9569 83.7898C89.3758 88.7793 86.9672 98.1264 80.9216 103.387M80.9216 103.387C80.6962 103.583 80.5614 103.865 80.5614 104.164M80.9216 103.387V103.387C80.6962 103.583 80.5614 103.865 80.5614 104.164V104.164M80.5614 104.164V108.692M80.5614 108.692C80.5614 109.244 80.1137 109.692 79.5614 109.692M80.5614 108.692V108.692C80.5614 109.244 80.1137 109.692 79.5614 109.692V109.692M74.5614 109.692C74.0091 109.692 73.5614 109.244 73.5614 108.692M74.5614 109.692V109.692C74.0091 109.692 73.5614 109.244 73.5614 108.692V108.692M73.5614 108.192C73.5614 107.64 74.0091 107.192 74.5614 107.192M73.5614 108.192V108.192C73.5614 107.64 74.0091 107.192 74.5614 107.192V107.192M74.5614 107.192H76.5614M76.5614 107.192C77.1137 107.192 77.5614 106.744 77.5614 106.192M76.5614 107.192V107.192C77.1137 107.192 77.5614 106.744 77.5614 106.192V106.192M77.5614 106.192V101.106M77.5614 101.106C77.5614 100.841 77.6667 100.587 77.8543 100.399M77.5614 101.106V101.106C77.5614 100.841 77.6668 100.587 77.8543 100.399V100.399M77.8543 100.399L80.8543 97.399M80.8543 97.399C81.2448 97.0085 81.2374 96.3799 80.7675 96.0898M80.8543 97.399V97.399C81.2442 97.0091 81.2367 96.3795 80.7675 96.0898V96.0898M80.7675 96.0898C79.1798 95.1096 75.8007 93.9162 70.4223 94.1727M70.4223 94.1727C70.1904 94.1837 69.9683 94.2783 69.7982 94.4363M70.4223 94.1727V94.1727C70.1904 94.1837 69.9683 94.2783 69.7982 94.4363V94.4363M69.7982 94.4363L63.6933 100.105M63.6933 100.105C63.3303 100.442 62.7751 100.463 62.3882 100.153M63.6933 100.105V100.105C63.3303 100.442 62.7751 100.463 62.3882 100.153V100.153M62.3882 100.153L61.6482 99.5613M61.6482 99.5613C61.1143 99.1342 61.1569 98.309 61.7322 97.9393M61.6482 99.5613V99.5613C61.1143 99.1342 61.1569 98.3091 61.7322 97.9393V97.9393M61.7322 97.9393L66.2766 95.0178M66.2766 95.0178C66.8828 94.6281 66.8902 93.7444 66.2905 93.3446M66.2766 95.0178V95.0178C66.8828 94.6281 66.8902 93.7444 66.2905 93.3446V93.3446M66.2905 93.3446L65.441 92.7783M65.441 92.7783C64.9633 92.4598 64.8512 91.8055 65.1957 91.3462M65.441 92.7783V92.7783C64.9633 92.4598 64.8512 91.8055 65.1957 91.3462V91.3462M65.1957 91.3462L65.5095 90.9277M65.5095 90.9277C65.8215 90.5117 66.4002 90.4042 66.8407 90.6804M65.5095 90.9277V90.9277C65.8215 90.5117 66.4002 90.4042 66.8407 90.6804V90.6804M66.8407 90.6804L68.0172 91.4179M68.0172 91.4179C68.1764 91.5177 68.3605 91.5707 68.5484 91.5707M68.0172 91.4179V91.4179C68.1764 91.5177 68.3605 91.5707 68.5484 91.5707V91.5707M68.5484 91.5707H76.5614C77.6817 91.7098 79.6002 92.0781 80.8591 92.6691M80.8591 92.6691C81.532 92.985 82.6425 93.0357 83.0244 92.3979M80.8591 92.6691V92.6691C81.5315 92.9847 82.6428 93.0352 83.0244 92.3979V92.3979M83.0244 92.3979C83.8909 90.9509 84.8413 88.56 85.0284 85.3382M85.0284 85.3382C85.0636 84.7332 84.5326 84.2641 83.9317 84.342M85.0284 85.3382V85.3382C85.0634 84.7364 84.5295 84.2645 83.9317 84.342V84.342M83.9317 84.342C76.3449 85.325 61.6629 86.7604 54.5859 85.772M54.5859 85.772C54.2548 85.7257 53.9272 85.8364 53.6943 86.0763M54.5859 85.772V85.772C54.2576 85.7261 53.9253 85.8385 53.6943 86.0763V86.0763M53.6943 86.0763C51.0381 88.8117 44.9534 94.1665 38.6774 96.9294M38.6774 96.9294C38.3065 97.0927 38.0614 97.4564 38.0614 97.8616M38.6774 96.9294V96.9294C38.3066 97.0927 38.0614 97.4564 38.0614 97.8616V97.8616M38.0614 97.8616V105.224M38.0614 105.224C38.0614 105.52 37.9296 105.802 37.7016 105.992M38.0614 105.224V105.224C38.0614 105.52 37.9296 105.802 37.7016 105.992V105.992M37.7016 105.992L34.3252 108.805M34.3252 108.805C33.9026 109.158 33.8438 109.785 34.1934 110.209M34.3252 108.805V108.805C33.9026 109.158 33.8438 109.785 34.1934 110.209V110.209M34.1934 110.209L35.6283 111.952M35.6283 111.952C35.969 112.365 35.923 112.974 35.5239 113.332M35.6283 111.952V111.952C35.969 112.365 35.923 112.974 35.5239 113.332V113.332M35.5239 113.332L35.2846 113.547M35.2846 113.547C34.8832 113.906 34.2688 113.883 33.8955 113.494M35.2846 113.547V113.547C34.8832 113.906 34.2688 113.883 33.8955 113.494V113.494M33.8955 113.494L33.6041 113.191M33.6041 113.191C33.0239 112.586 32.0021 112.92 31.8913 113.751M33.6041 113.191V113.191C33.0239 112.586 32.0021 112.92 31.8913 113.751V113.751M31.8913 113.751L31.2431 118.613M31.2431 118.613C31.1954 118.97 30.9585 119.275 30.6233 119.409M31.2431 118.613V118.613C31.1954 118.97 30.9585 119.275 30.6233 119.409V119.409M30.6233 119.409L30.2268 119.568M30.2268 119.568C29.5228 119.849 28.7737 119.275 28.8623 118.522M30.2268 119.568V119.568C29.5228 119.849 28.7737 119.275 28.8623 118.522V118.522M28.8623 118.522L29.4515 113.514M29.4515 113.514C29.544 112.728 28.7293 112.151 28.0182 112.499M29.4515 113.514V113.514C29.544 112.728 28.7293 112.151 28.0182 112.499V112.499M28.0182 112.499L25.1087 113.925M25.1087 113.925C24.7872 114.083 24.4002 114.007 24.1624 113.739M25.1087 113.925V113.925C24.7872 114.083 24.4002 114.007 24.1624 113.739V113.739M24.1624 113.739C23.8447 113.382 23.9107 112.827 24.3115 112.566M24.1624 113.739V113.739C23.8447 113.382 23.9107 112.827 24.3115 112.566V112.566M24.3115 112.566C25.4598 111.818 26.5934 111.183 27.435 110.756M27.435 110.756C27.5189 110.713 27.5965 110.66 27.6656 110.596M27.435 110.756V110.756C27.5187 110.713 27.5966 110.659 27.6656 110.596V110.596M27.6656 110.596L33.7055 105.02M27.6656 110.596C27.6656 110.596 27.6656 110.596 27.6656 110.596ZM33.7055 105.02C33.9303 104.813 34.0477 104.514 34.0242 104.209M33.7055 105.02V105.02C33.9303 104.813 34.0477 104.514 34.0242 104.209V104.209M34.0242 104.209L33.6558 99.419M33.6558 99.419C33.6071 98.7863 32.992 98.3577 32.3878 98.5518M33.6558 99.419V99.419C33.6072 98.7879 32.9905 98.3582 32.3878 98.5518V98.5518M32.3878 98.5518C26.89 100.317 16.9588 104.542 13.1618 110.047M13.1618 110.047C13.094 110.145 13.0474 110.254 13.0201 110.37M13.1618 110.047V110.047C13.0946 110.144 13.0472 110.255 13.0201 110.37V110.37M13.0201 110.37L11.0614 118.692L10.6874 122.082M10.6874 122.082C10.622 122.674 11.0853 123.188 11.6809 123.198M10.6874 122.082V122.082C10.6221 122.674 11.0855 123.188 11.6809 123.198V123.198M11.6809 123.198C12.1432 123.205 12.7016 123.221 13.3051 123.256M13.3051 123.256C13.8875 123.289 14.298 123.837 14.1991 124.412M13.3051 123.256V123.256C13.8875 123.289 14.298 123.837 14.1991 124.412V124.412M14.1991 124.412C14.1211 124.866 13.7425 125.215 13.2837 125.248M14.1991 124.412V124.412C14.1211 124.866 13.7425 125.215 13.2837 125.248V125.248M13.2837 125.248L11.2944 125.39M11.2944 125.39C10.8057 125.425 10.4144 125.809 10.37 126.297M11.2944 125.39V125.39C10.8057 125.425 10.4144 125.809 10.37 126.297V126.297M10.37 126.297L10.1074 129.186M10.1074 129.186C10.0785 129.504 9.89963 129.789 9.62597 129.953M10.1074 129.186V129.186C10.0785 129.504 9.89962 129.789 9.62597 129.953V129.953M9.62597 129.953L9.28631 130.157M9.28631 130.157C8.57787 130.582 7.68756 130.013 7.77192 129.191M9.28631 130.157V130.157C8.5779 130.582 7.68756 130.013 7.77192 129.191V129.191M7.77192 129.191C7.79049 129.011 7.80927 128.826 7.82823 128.639M7.82823 128.639C7.88202 128.109 7.50662 127.629 6.97364 127.647M7.82823 128.639V128.639C7.882 128.109 7.50644 127.629 6.97364 127.647V127.647M6.97364 127.647C5.67618 127.691 3.80725 128.139 2.56481 129.692C0.964815 131.692 0.895869 130.525 1.0614 129.692C2.0598 126.697 4.97392 125.686 6.98234 125.623M6.98234 125.623C7.56739 125.604 8.113 125.192 8.17196 124.609M6.98234 125.623V125.623C7.56693 125.604 8.11305 125.191 8.17196 124.609V124.609M8.17196 124.609C8.20508 124.282 8.23824 123.96 8.27127 123.639C8.34978 122.876 8.42749 122.121 8.50185 121.327M8.50185 121.327C8.5717 120.581 7.82107 120.037 7.13036 120.326M8.50185 121.327V121.327C8.57171 120.581 7.82107 120.037 7.13036 120.326V120.326M7.13036 120.326L6.13732 120.742M6.13732 120.742C5.57297 120.979 4.93045 120.658 4.78105 120.064M6.13732 120.742V120.742C5.57297 120.979 4.93045 120.658 4.78105 120.064V120.064M4.78105 120.064L4.7628 119.992M4.7628 119.992C4.64586 119.527 4.87467 119.045 5.30841 118.842M4.7628 119.992V119.992C4.64586 119.527 4.87467 119.045 5.30841 118.842V118.842M5.30841 118.842L8.29973 117.441M8.29973 117.441C8.62827 117.287 8.84793 116.967 8.8724 116.605M8.29973 117.441V117.441C8.62827 117.287 8.84793 116.967 8.8724 116.605V116.605M8.8724 116.605C9.07705 113.578 9.19116 110.918 9.11657 109.379M9.11657 109.379C9.09647 108.964 9.30446 108.566 9.66362 108.357M9.11657 109.379V109.379C9.0965 108.964 9.30509 108.565 9.66362 108.357V108.357M48.212 84.8441C48.4379 84.4664 48.3427 83.9898 47.9848 83.7336M48.212 84.8441V84.8441C48.4367 84.4684 48.3408 83.9884 47.9848 83.7336V83.7336M47.9848 83.7336C45.4369 81.9097 37.9448 78.488 23.657 76.2825M23.657 76.2825C23.2936 76.2264 22.9274 76.3769 22.684 76.6524M23.657 76.2825C23.6547 76.2822 23.6525 76.2818 23.6502 76.2815C23.2876 76.2255 22.9269 76.3775 22.684 76.6524V76.6524M22.684 76.6524C21.4707 78.0259 18.8995 80.0978 15.7742 80.1888M15.7742 80.1888C15.6342 80.1929 15.4953 80.2213 15.3674 80.2782M15.7742 80.1888V80.1888C15.6342 80.1929 15.4953 80.2213 15.3674 80.2782V80.2782M15.3674 80.2782L15.2144 80.3462M15.2144 80.3462C14.2352 80.7817 13.4734 79.6809 14.3627 79.0828M15.2144 80.3462V80.3462C14.2352 80.7817 13.4734 79.6809 14.3627 79.0828V79.0828M14.3627 79.0828C14.8724 78.7401 15.306 78.5637 15.5614 78.6919C16.281 79.0529 20.6743 76.7258 21.2264 75.5335M21.2264 75.5335C21.3224 75.3261 21.1523 75.1313 20.9525 75.0203M21.2264 75.5335V75.5335C21.3224 75.326 21.1523 75.1313 20.9525 75.0203V75.0203M20.9525 75.0203L18.6328 73.7316M18.6328 73.7316C18.5853 73.7052 18.5354 73.6826 18.4843 73.6641M18.4843 73.6641C18.4506 73.652 18.4171 73.6398 18.3838 73.6277M18.4843 73.6641L18.3838 73.6277M12.9934 73.7258C13.0379 73.7037 13.0847 73.6846 13.132 73.6693M21.0339 72.3576C21.1222 72.5749 21.2783 72.7528 21.4867 72.8603M21.0339 72.3576V72.3576C21.1213 72.5727 21.2803 72.7538 21.4867 72.8603V72.8603M21.4867 72.8603C21.909 73.0781 22.679 73.4623 23.3723 73.739M23.3723 73.739C23.7144 73.8755 24.0648 73.6156 24.0648 73.2472M23.3723 73.739V73.739C23.7143 73.8755 24.0648 73.6155 24.0648 73.2472V73.2472M24.0648 73.2472C24.0648 72.9405 24.3135 72.6919 24.6202 72.6919M24.0648 73.2472V73.2472C24.0648 72.9405 24.3135 72.6919 24.6202 72.6919V72.6919M24.6202 72.6919H24.8131M24.8131 72.6919C25.2264 72.6919 25.5614 73.0269 25.5614 73.4402M24.8131 72.6919V72.6919C25.2264 72.6919 25.5614 73.0269 25.5614 73.4402V73.4402M25.5614 73.4402V73.5217M25.5614 73.5217C25.5614 73.947 25.8823 74.3031 26.3051 74.3487M25.5614 73.5217V73.5217C25.5614 73.9467 25.8826 74.3032 26.3051 74.3487V74.3487M49.281 79.9541C49.4667 80.1016 49.6839 80.1957 49.9208 80.2035M141.673 87.2977C150.614 95.7466 168.781 111.34 173.907 110.01M141.673 87.2977V87.2977C141.599 87.2276 141.515 87.1695 141.422 87.1259V87.1259M141.673 87.2977C141.598 87.2264 141.516 87.1705 141.422 87.1259M173.907 110.01C174.331 109.9 174.452 109.416 174.295 109.006M173.907 110.01V110.01C174.329 109.901 174.451 109.413 174.295 109.006V109.006M174.295 109.006C173.16 106.039 171.272 100.606 170.685 97.0788M170.685 97.0788C170.601 96.5751 170.174 96.1919 169.664 96.1919M170.685 97.0788V97.0788C170.601 96.5762 170.173 96.1919 169.664 96.1919V96.1919M169.664 96.1919H167.909M167.909 96.1919C167.42 96.1919 166.995 95.8381 166.98 95.3495M167.909 96.1919V96.1919C167.42 96.1919 166.995 95.838 166.98 95.3495V95.3495M166.98 95.3495C166.949 94.354 167.147 93.1919 168.061 93.1919C169.261 93.1919 169.561 92.5252 169.561 92.1919C169.239 89.6092 167.571 84.2435 163.469 82.8181M163.469 82.8181C163.212 82.7287 162.931 82.776 162.681 82.884M163.469 82.8181V82.8181C163.212 82.7287 162.931 82.776 162.681 82.884V82.884M162.681 82.884C161.721 83.2984 159.864 83.6733 157.677 82.9286M157.677 82.9286C157.299 82.7997 157.061 82.4325 157.061 82.0325M157.677 82.9286V82.9286C157.299 82.7997 157.061 82.4325 157.061 82.0325V82.0325M157.061 82.0325V79.6919M157.061 79.6919C157.061 79.1396 157.509 78.6919 158.061 78.6919M157.061 79.6919V79.6919C157.061 79.1396 157.509 78.6919 158.061 78.6919V78.6919M158.061 78.6919H159.387M159.387 78.6919C160.242 78.6919 160.727 77.6727 160.228 76.9792M159.387 78.6919V78.6919C160.24 78.6919 160.726 77.6718 160.228 76.9792V76.9792M160.228 76.9792C157.087 72.6136 152.42 63.5195 151.576 53.3757C151.566 53.2544 151.538 53.1393 151.481 53.032C149.33 49.0228 136.855 42.7519 135.205 42.6766C135.187 42.6758 135.169 42.6759 135.151 42.6766M103.344 41.2818C107.431 43.0687 125.476 42.996 134.919 42.6964C134.931 42.6961 134.942 42.6954 134.953 42.6947M102.152 45.9212C102.109 46.1739 102.162 46.4363 102.298 46.6535M102.152 45.9212V45.9212C102.109 46.1739 102.162 46.4363 102.298 46.6535V46.6535M102.298 46.6535C104.932 50.8591 105.548 54.6134 105.352 57.4091M105.352 57.4091C105.278 58.4751 103.994 58.2896 103.762 57.2464M105.352 57.4091V57.4091C105.278 58.4751 103.994 58.2896 103.762 57.2464V57.2464M103.762 57.2464C103.347 55.3786 102.706 53.4636 102.1 51.9053M102.1 51.9053C101.779 51.0769 100.605 51.1027 100.177 51.8815M102.1 51.9053V51.9053C101.779 51.0774 100.605 51.1032 100.177 51.8815V51.8815M100.177 51.8815C98.7117 54.5474 96.7654 56.1023 94.911 56.9231M94.911 56.9231C93.9676 57.3407 93.5153 56.1241 94.2184 55.3692M94.911 56.9231V56.9231C93.9676 57.3407 93.5153 56.1241 94.2184 55.3692V55.3692M94.2184 55.3692C97.8438 51.4765 99.2152 45.0985 99.5068 41.2176M99.5068 41.2176C99.549 40.6554 99.0962 40.1921 98.5325 40.1884M99.5068 41.2176V41.2176C99.5489 40.6567 99.0948 40.1921 98.5325 40.1884V40.1884M98.5325 40.1884C93.1288 40.1534 83.8179 38.7271 82.1659 37.6919C79.6367 36.5673 72.6886 32.4173 68.6836 31.9995C68.5257 31.983 68.3655 32.0023 68.2175 32.0599C65.8602 32.978 63.8005 34.2302 62.3545 35.2631M62.3545 35.2631C61.6438 35.7708 60.7688 35.2682 61.2372 34.531M62.3545 35.2631V35.2631C61.644 35.7707 60.7689 35.2679 61.2372 34.531V34.531M61.2372 34.531C61.9591 33.3948 63.143 32.4823 64.204 31.8636M64.204 31.8636C64.8242 31.502 64.9146 30.7221 64.2499 30.4508M64.204 31.8636V31.8636C64.8233 31.5026 64.9136 30.7217 64.2499 30.4508V30.4508M64.2499 30.4508C62.2437 29.6321 58.2603 28.7515 52.8685 28.9468M52.8685 28.9468C52.4468 28.9621 52.0838 29.2546 51.9558 29.6567M52.8685 28.9468V28.9468C52.4468 28.9621 52.0838 29.2546 51.9558 29.6567V29.6567M51.9558 29.6567C49.3274 37.9138 46.5106 38.0802 44.8758 36.6602M44.8758 36.6602C44.3873 36.2359 44.6556 35.4973 45.2439 35.228M44.8758 36.6602V36.6602C44.3873 36.2359 44.6556 35.4973 45.2439 35.228V35.228M45.2439 35.228C47.6673 34.1187 48.8231 32.5017 49.2982 31.1257M49.2982 31.1257C49.5652 30.3525 48.7036 29.9605 48.0521 30.4551M49.2982 31.1257V31.1257C49.5651 30.3528 48.7034 29.9607 48.0521 30.4551V30.4551M48.0521 30.4551C45.9358 32.0616 44.0432 32.805 42.4664 33.0465M42.4664 33.0465C41.4038 33.2093 41.5465 31.8915 42.5366 31.4727M42.4664 33.0465V33.0465C41.4041 33.2092 41.5468 31.8913 42.5366 31.4727V31.4727M42.5366 31.4727C44.7886 30.5202 47.0291 28.9552 48.359 27.8608M48.359 27.8608C48.4926 27.7508 48.6471 27.6754 48.8174 27.6448M48.359 27.8608C48.3598 27.8601 48.3607 27.8593 48.3615 27.8586C48.4933 27.7502 48.6495 27.675 48.8174 27.6448V27.6448M48.8174 27.6448C53.2784 26.8428 62.7096 26.0816 67.3007 29.0175M67.3007 29.0175C67.4735 29.128 67.6698 29.1912 67.875 29.1942M67.3007 29.0175V29.0175C67.4726 29.1274 67.6709 29.1912 67.875 29.1942V29.1942M67.875 29.1942C71.6336 29.2495 80.3961 32.1037 83.0483 33.623C83.1293 33.6694 83.2116 33.7041 83.3019 33.7282L86.9143 34.6919M86.9143 34.6919C87.6646 34.6919 88.1504 33.8964 87.8166 33.2244M86.9143 34.6919V34.6919C87.6639 34.6919 88.1501 33.8958 87.8166 33.2244V33.2244M87.8166 33.2244C86.138 29.8456 83.7328 24.5553 82.2568 19.9868M82.2568 19.9868C82.1083 19.5271 81.6563 19.236 81.1742 19.2675M82.2568 19.9868V19.9868C82.1085 19.5276 81.6557 19.236 81.1742 19.2675V19.2675M81.1742 19.2675C77.1025 19.534 74.3977 18.1634 72.7871 16.6395M72.7871 16.6395C72.0877 15.9778 72.8459 15.2177 73.7349 15.5874M72.7871 16.6395V16.6395C72.0877 15.9778 72.8459 15.2177 73.7349 15.5874V15.5874M73.7349 15.5874C76.4039 16.6974 78.8184 16.9082 80.3371 16.8165M80.3371 16.8165C80.8933 16.783 81.2374 16.2477 81.1419 15.6987M80.3371 16.8165V16.8165C80.8926 16.783 81.2373 16.247 81.1419 15.6987V15.6987M81.1419 15.6987C81.1168 15.5547 81.0939 15.413 81.0733 15.2737L81.0727 15.2693M81.0633 15.1076C81.149 11.4117 81.1801 10.0974 83.4384 7.74181M81.0633 15.1076C81.0633 15.1096 81.0633 15.1117 81.0632 15.1137C81.062 15.1657 81.065 15.2178 81.0727 15.2693V15.2693M81.0633 15.1076C81.0621 15.1611 81.0651 15.2162 81.0727 15.2693M83.4384 7.74181C84.0373 7.11715 84.9113 7.55981 84.6996 8.39887M83.4384 7.74181V7.74181C84.0371 7.11734 84.9112 7.56007 84.6996 8.39887V8.39887M84.6996 8.39887C84.6492 8.59844 84.5956 8.80439 84.5402 9.01748C84.1384 10.5615 83.639 12.4805 83.5647 15.0661M83.5647 15.0661C83.5623 15.1482 83.5705 15.2312 83.5888 15.3113M84.2987 18.1172C84.0199 17.097 83.7816 16.1464 83.5893 15.3132L83.5888 15.3113M84.2987 18.1172C84.367 18.3673 84.5298 18.6013 84.7868 18.6357M84.2987 18.1172V18.1172C84.367 18.3673 84.5298 18.6013 84.7868 18.6357V18.6357M84.7868 18.6357C86.2195 18.8275 88.7015 16.4124 90.6588 14.1054M90.6588 14.1054C91.2853 13.367 92.3675 13.7972 92.0266 14.7037M90.6588 14.1054V14.1054C91.2852 13.3671 92.3675 13.7974 92.0266 14.7037V14.7037M92.0266 14.7037C90.8707 17.7769 88.0794 19.5974 86.0404 20.4058M86.0404 20.4058C85.5145 20.6143 85.1994 21.1839 85.3739 21.722M86.0404 20.4058V20.4058C85.5151 20.6141 85.1996 21.1845 85.3739 21.722V21.722M85.3739 21.722C87.14 27.1668 89.7202 32.9999 92.4655 33.6706M92.4655 33.6706C92.5295 33.6862 92.5919 33.6919 92.6577 33.692M92.6577 33.692C96.3121 33.6988 104.332 34.0927 108.366 35.6159M108.366 35.6159C108.497 35.6654 108.629 35.6893 108.769 35.6841M108.769 35.6841C117.375 35.3625 136.299 34.9282 138.629 35.6165C138.755 35.6537 138.872 35.7035 139 35.7311C144.16 36.8368 155.144 42.6193 157.666 45.3101C158.717 46.4319 160.666 48.1919 161.166 50.1919C161.415 51.1878 163.22 59.592 165.416 64.7149M165.416 64.7149C165.645 65.2474 166.285 65.4542 166.786 65.1625M165.416 64.7149V64.7149C165.644 65.2466 166.286 65.4538 166.786 65.1625V65.1625M166.786 65.1625C169.575 63.5369 173.719 60.7134 174.166 56.6919C174.45 55.2723 174.11 53.8805 173.617 51.864C173.427 51.0863 173.214 50.2156 173.006 49.2147M173.006 49.2147C172.938 48.889 172.716 48.616 172.412 48.4812M173.006 49.2147V49.2147C172.938 48.8898 172.716 48.6157 172.412 48.4812V48.4812M172.412 48.4812C170.996 47.8534 168.984 46.8329 167.874 45.896M167.874 45.896C167.328 45.436 167.765 45.0441 168.427 45.3101M167.874 45.896V45.896C167.329 45.4361 167.765 45.0442 168.427 45.3101V45.3101M168.427 45.3101C170.021 45.9512 171.129 46.0913 171.793 46.0429M171.793 46.0429C172.195 46.0137 172.398 45.6265 172.348 45.2266M171.793 46.0429V46.0429C172.195 46.0137 172.398 45.626 172.348 45.2266V45.2266M176.685 56.4651C176.663 56.9061 176.794 57.3855 177.157 57.6366M176.685 56.4651V56.4651C176.664 56.904 176.796 57.3867 177.157 57.6366V57.6366M188.383 59.3944C185.34 62.6511 180.174 61.541 176.93 60.0644M176.93 60.0644C176.386 59.8166 175.733 60.0549 175.45 60.5822M176.93 60.0644V60.0644C176.387 59.817 175.732 60.0559 175.45 60.5822V60.5822M175.45 60.5822C173.76 63.7351 170.696 65.5906 168.746 66.7718C168.288 67.0491 167.891 67.2893 167.588 67.5004M167.588 67.5004C167.245 67.7393 167.203 68.1884 167.431 68.539M167.588 67.5004V67.5004C167.246 67.739 167.203 68.1889 167.431 68.539V68.539M167.431 68.539C169.502 71.7296 172.39 74.257 176.371 74.6737M176.371 74.6737C176.496 74.6868 176.619 74.7201 176.731 74.7792M176.371 74.6737V74.6737C176.496 74.6867 176.62 74.7202 176.731 74.7792V74.7792M176.731 74.7792C178.443 75.6879 181.561 78.0969 181.561 81.1919C182.895 94.5252 190.461 122.192 210.061 126.192L221.561 127.192C236.326 129.514 266.68 132.762 270.51 127.269M270.51 127.269C270.515 127.262 270.52 127.255 270.524 127.248C270.55 127.211 270.57 127.171 270.586 127.13V127.13M270.51 127.269C270.529 127.241 270.546 127.213 270.56 127.184C270.57 127.166 270.578 127.148 270.586 127.13M270.597 127.103L272.25 122.972M270.597 127.103L270.586 127.13M270.597 127.103C270.593 127.112 270.59 127.121 270.586 127.13M272.25 122.972C272.43 122.521 272.261 122.006 271.849 121.749M272.25 122.972V122.972C272.43 122.521 272.261 122.006 271.849 121.749V121.749M271.849 121.749C265.652 117.877 255.206 110.912 252.961 107.835M252.961 107.835C252.582 107.315 251.954 106.598 251.318 106.501M252.961 107.835V107.835C252.583 107.316 251.952 106.598 251.318 106.501V106.501M251.318 106.501L246.265 105.723M246.265 105.723C246.131 105.703 246.003 105.655 245.886 105.586M246.265 105.723V105.723C246.131 105.703 246.003 105.654 245.886 105.586V105.586M245.886 105.586C244.772 104.932 242.558 103.978 239.46 103.248M239.46 103.248C238.999 103.14 238.529 103.381 238.338 103.814M239.46 103.248V103.248C238.999 103.14 238.529 103.381 238.338 103.814V103.814M238.338 103.814L236.88 107.126M236.88 107.126C236.391 108.235 234.72 107.682 234.989 106.5M236.88 107.126V107.126C236.391 108.235 234.72 107.682 234.989 106.5V106.5M234.989 106.5L235.64 103.649M235.64 103.649C235.77 103.077 235.382 102.515 234.799 102.453M235.64 103.649V103.649C235.77 103.077 235.382 102.515 234.799 102.453V102.453M234.799 102.453C233.101 102.272 230.972 102.178 229.666 102.585L224.526 104.161M224.526 104.161C223.564 104.457 222.912 103.388 223.715 102.78M224.526 104.161V104.161C223.564 104.457 222.912 103.388 223.715 102.78V102.78M223.715 102.78C225.723 101.26 227.54 100.74 229.166 100.394M229.166 100.394C229.714 100.278 230.067 99.7426 229.946 99.1957M229.166 100.394V100.394C229.714 100.278 230.067 99.7425 229.946 99.1957V99.1957M229.946 99.1957L229.26 96.089M229.26 96.089C229.148 95.5817 229.504 95.0621 229.932 95.3565M229.26 96.089V96.089C229.148 95.5817 229.504 95.0621 229.932 95.3565V95.3565M229.932 95.3565C230.782 95.941 231.439 97.6504 231.641 98.9658M231.641 98.9658C231.738 99.5935 232.263 100.192 232.898 100.198M231.641 98.9658V98.9658C231.738 99.5934 232.263 100.192 232.898 100.198V100.198M232.898 100.198C234.03 100.208 235.603 100.237 236.352 100.317C239.739 100.679 243.675 101.985 246.252 103.061M246.252 103.061C246.454 103.145 246.676 103.163 246.888 103.11M246.252 103.061V103.061C246.453 103.145 246.677 103.163 246.888 103.11V103.11M246.888 103.11L248.95 102.595M248.95 102.595C249.681 102.412 249.962 101.523 249.467 100.954M248.95 102.595V102.595C249.677 102.413 249.959 101.52 249.467 100.954V100.954M218.663 25.8125C218.606 25.4302 218.326 25.1336 217.952 25.0371M218.663 25.8125V25.8125C218.606 25.4328 218.324 25.133 217.952 25.0371V25.0371M217.952 25.0371C210.096 23.0091 195.231 17.993 191.93 12.4327M191.93 12.4327C191.684 12.0182 191.221 11.7606 190.747 11.8494M191.93 12.4327V12.4327C191.685 12.02 191.219 11.761 190.747 11.8494V11.8494M197.538 3.57129C200.721 2.80853 205.611 2.4506 209.061 4.3091C210.992 5.34887 212.471 7.0824 212.948 9.82695M212.948 9.82695C213.034 10.3194 213.431 10.7076 213.93 10.7436M212.948 9.82695V9.82695C213.033 10.3179 213.433 10.7077 213.93 10.7436V10.7436M213.93 10.7436C217.799 11.0228 225.065 12.1393 229.572 14.8805M229.572 14.8805C229.879 15.0669 230.263 15.0984 230.551 14.885M229.572 14.8805V14.8805C229.878 15.0664 230.263 15.0978 230.551 14.885V14.885M291.407 25.1163C291.507 25.1654 291.602 25.2312 291.677 25.3133M291.407 25.1163C291.408 25.1169 291.409 25.1175 291.41 25.1182C291.51 25.1672 291.602 25.2313 291.677 25.3133V25.3133M291.677 25.3133C292.855 26.5976 295.073 30.5419 295.533 37.2308M295.533 37.2308C295.553 37.5222 295.693 37.7911 295.921 37.9741M295.533 37.2308C295.533 37.2325 295.533 37.2341 295.533 37.2357C295.553 37.5251 295.695 37.7923 295.921 37.9741V37.9741M295.921 37.9741C298.902 40.372 304.874 46.5144 307.561 54.1919C311.368 65.7777 314.32 91.9263 295.949 104.432M295.949 104.432C295.707 104.597 295.54 104.853 295.51 105.144M295.949 104.432C295.946 104.434 295.943 104.436 295.939 104.439C295.701 104.601 295.54 104.857 295.51 105.144V105.144M18.3148 73.6025C17.0496 73.1414 15.9983 72.7583 13.1355 73.6682L13.132 73.6693M18.3148 73.6025L18.3838 73.6277M18.3148 73.6025C18.3377 73.6109 18.3607 73.6193 18.3838 73.6277M46.6719 182.268L46.6661 182.27M46.6719 182.268C46.67 182.269 46.668 182.269 46.6661 182.27M134.953 42.6947C134.982 42.6927 135.01 42.6895 135.039 42.6864C135.076 42.6822 135.113 42.6781 135.151 42.6766M134.953 42.6947C134.959 42.6945 134.965 42.6943 134.971 42.6942C135.031 42.6925 135.09 42.6796 135.151 42.6766V42.6766M183.297 55.6435C183.109 55.2705 182.863 55.1383 182.604 55.2373M183.297 55.6435L183.276 55.3326C183.251 54.9582 182.732 54.8846 182.604 55.2373V55.2373M141.422 87.1259L141.42 87.1247C120.411 77.1874 87.5217 77.0387 83.5614 78.6919C81.1659 79.6919 60.2168 80.5288 49.9219 80.2035L49.9208 80.2035M197.534 154.206L197.469 154.241M197.534 154.206C197.519 154.214 197.497 154.226 197.469 154.241M46.6661 182.27L46.6559 182.274M46.6661 182.27C46.6627 182.271 46.6593 182.272 46.6559 182.274" stroke="white"/>
</svg>
