<svg width="600" height="30" viewBox="0 0 600 30" fill="none" xmlns="http://www.w3.org/2000/svg">
<path d="M-96 11.6667C-96 11.6667 -84.1936 1 -69.6296 1C-55.0657 1 -43.2593 11.6667 -43.2593 11.6667C-43.2593 11.6667 -37.3561 17 -30.0741 17C-22.7921 17 -16.8889 11.6667 -16.8889 11.6667C-16.8889 11.6667 -5.08247 1 9.48148 1C24.0454 1 35.8519 11.6667 35.8519 11.6667C35.8519 11.6667 41.7551 17 49.037 17C56.319 17 62.2222 11.6667 62.2222 11.6667C62.2222 11.6667 74.0286 1 88.5926 1C103.157 1 114.963 11.6667 114.963 11.6667C114.963 11.6667 120.866 17 128.148 17C135.43 17 141.333 11.6667 141.333 11.6667C141.333 11.6667 153.14 1 167.704 1C182.268 1 194.074 11.6667 194.074 11.6667C194.074 11.6667 199.977 17 207.259 17C214.541 17 220.444 11.6667 220.444 11.6667C220.444 11.6667 232.251 1 246.815 1C261.379 1 273.185 11.6667 273.185 11.6667C273.185 11.6667 279.088 17 286.37 17C293.652 17 299.556 11.6667 299.556 11.6667C299.556 11.6667 311.362 1 325.926 1C340.49 1 352.296 11.6667 352.296 11.6667C352.296 11.6667 358.2 17 365.482 17C372.763 17 378.667 11.6667 378.667 11.6667C378.667 11.6667 390.473 1 405.037 1C419.601 1 431.407 11.6667 431.407 11.6667C431.407 11.6667 437.311 17 444.593 17C451.875 17 457.778 11.6667 457.778 11.6667C457.778 11.6667 469.584 1 484.148 1C498.712 1 510.519 11.6667 510.519 11.6667C510.519 11.6667 516.422 17 523.704 17C530.986 17 536.889 11.6667 536.889 11.6667C536.889 11.6667 548.695 1 563.259 1C577.823 1 589.63 11.6667 589.63 11.6667C589.63 11.6667 595.533 17 602.815 17C610.097 17 616 11.6667 616 11.6667C616 11.6667 627.807 1 642.371 1C656.935 1 668.741 11.6667 668.741 11.6667C668.741 11.6667 674.644 17 681.926 17C689.208 17 695.111 11.6667 695.111 11.6667V59H-96V11.6667Z" fill="rgb(15, 15, 15)" stroke="white"/>
</svg>
