<svg width="793" height="60" viewBox="0 0 793 60" fill="none" xmlns="http://www.w3.org/2000/svg">
<path d="M1 11.6667C1 11.6667 12.8064 1 27.3704 1C41.9343 1 53.7407 11.6667 53.7407 11.6667C53.7407 11.6667 59.6439 17 66.9259 17C74.2079 17 80.1111 11.6667 80.1111 11.6667C80.1111 11.6667 91.9175 1 106.481 1C121.045 1 132.852 11.6667 132.852 11.6667C132.852 11.6667 138.755 17 146.037 17C153.319 17 159.222 11.6667 159.222 11.6667C159.222 11.6667 171.029 1 185.593 1C200.157 1 211.963 11.6667 211.963 11.6667C211.963 11.6667 217.866 17 225.148 17C232.43 17 238.333 11.6667 238.333 11.6667C238.333 11.6667 250.14 1 264.704 1C279.268 1 291.074 11.6667 291.074 11.6667C291.074 11.6667 296.977 17 304.259 17C311.541 17 317.444 11.6667 317.444 11.6667C317.444 11.6667 329.251 1 343.815 1C358.379 1 370.185 11.6667 370.185 11.6667C370.185 11.6667 376.088 17 383.37 17C390.652 17 396.556 11.6667 396.556 11.6667C396.556 11.6667 408.362 1 422.926 1C437.49 1 449.296 11.6667 449.296 11.6667C449.296 11.6667 455.2 17 462.482 17C469.763 17 475.667 11.6667 475.667 11.6667C475.667 11.6667 487.473 1 502.037 1C516.601 1 528.407 11.6667 528.407 11.6667C528.407 11.6667 534.311 17 541.593 17C548.875 17 554.778 11.6667 554.778 11.6667C554.778 11.6667 566.584 1 581.148 1C595.712 1 607.519 11.6667 607.519 11.6667C607.519 11.6667 613.422 17 620.704 17C627.986 17 633.889 11.6667 633.889 11.6667C633.889 11.6667 645.695 1 660.259 1C674.823 1 686.63 11.6667 686.63 11.6667C686.63 11.6667 692.533 17 699.815 17C707.097 17 713 11.6667 713 11.6667C713 11.6667 724.807 1 739.371 1C753.935 1 765.741 11.6667 765.741 11.6667C765.741 11.6667 771.644 17 778.926 17C786.208 17 792.111 11.6667 792.111 11.6667V59H1V11.6667Z" fill="#0F0F0F" stroke="#EBEBEB"/>
</svg>
