<svg xmlns="http://www.w3.org/2000/svg" width="695" height="600" viewBox="0 0 695 600" version="1.1">
	<path d="M 431.820 182.106 C 429.994 182.165, 427.375 182.615, 426 183.107 C 424.625 183.599, 416.525 186.294, 408 189.095 C 399.475 191.897, 389.310 195.659, 385.410 197.455 C 381.511 199.252, 378.040 201.453, 377.697 202.347 C 377.324 203.320, 377.963 204.944, 379.286 206.389 C 380.504 207.718, 385.325 210.464, 390 212.491 C 394.675 214.518, 400.674 216.909, 403.332 217.805 C 407.930 219.355, 408.134 219.579, 407.563 222.436 C 407.233 224.087, 406.534 225.866, 406.009 226.391 C 405.405 226.995, 403.072 225.467, 399.637 222.218 C 396.657 219.399, 393.041 216.797, 391.602 216.436 C 389.912 216.012, 388.106 216.355, 386.503 217.406 C 385.138 218.301, 382.189 221.350, 379.950 224.182 C 377.712 227.014, 375.173 230.719, 374.309 232.416 C 373.446 234.112, 370.902 238.313, 368.657 241.750 C 366.413 245.188, 364.192 248, 363.723 248 C 363.253 248, 358.736 245.704, 353.685 242.898 C 348.633 240.092, 342.767 237.552, 340.649 237.253 C 337.325 236.784, 336.845 236.956, 337.149 238.510 C 337.342 239.501, 338.381 240.440, 339.457 240.597 C 340.534 240.755, 342.446 241.436, 343.707 242.111 C 344.968 242.786, 346 243.846, 346 244.467 C 346 245.289, 343.615 245.352, 337.250 244.698 C 331.383 244.095, 324.711 244.188, 317 244.978 C 310.675 245.627, 301.675 246.987, 297 248.002 C 292.325 249.017, 283.914 251, 278.309 252.410 C 272.705 253.819, 265.730 256.091, 262.809 257.459 C 259.889 258.826, 255.025 261.333, 252 263.030 C 248.975 264.726, 244.293 267.974, 241.596 270.247 C 238.899 272.519, 234.860 276.366, 232.620 278.796 C 230.381 281.226, 227.702 284.628, 226.667 286.357 C 225.633 288.086, 223.068 291.750, 220.967 294.500 C 218.866 297.250, 215.509 303.001, 213.506 307.279 C 211.503 311.557, 209.605 316.659, 209.287 318.616 C 208.970 320.573, 208.088 322.413, 207.328 322.704 C 206.568 322.996, 204.161 321.997, 201.979 320.485 C 199.796 318.973, 196.262 315.838, 194.124 313.519 C 191.986 311.200, 189.564 307.771, 188.742 305.901 C 187.920 304.030, 186.043 299.602, 184.570 296.060 C 183.098 292.519, 181.242 286.527, 180.446 282.745 C 179.651 278.963, 179 274.339, 179 272.469 C 179 270.117, 178.075 268.016, 175.999 265.651 C 174.348 263.771, 171.911 262.025, 170.583 261.771 C 169.255 261.517, 166.810 261.881, 165.148 262.580 C 163.487 263.278, 160.862 265.763, 159.314 268.102 C 156.672 272.093, 156.501 273.002, 156.508 282.927 C 156.516 292.677, 156.820 294.347, 160.413 304.380 C 162.556 310.364, 165.951 317.700, 167.956 320.683 C 169.961 323.666, 174.666 328.757, 178.412 331.995 C 183.287 336.211, 188.097 339.143, 195.339 342.313 L 205.457 346.742 207.231 357.621 C 208.207 363.605, 210.370 371.900, 212.037 376.057 C 213.797 380.443, 216.876 385.687, 219.377 388.557 C 221.747 391.275, 224.197 394.466, 224.822 395.646 C 225.448 396.827, 229.006 399.779, 232.730 402.207 C 236.453 404.635, 241.633 407.607, 244.239 408.811 C 246.846 410.015, 249.396 411, 249.906 411 C 250.417 411, 252.896 411.884, 255.417 412.964 C 259.170 414.573, 260 415.396, 260 417.510 C 260 418.929, 261.105 421.195, 262.455 422.545 C 263.805 423.895, 265.717 424.986, 266.705 424.968 C 267.692 424.951, 269.218 424.388, 270.096 423.718 C 270.974 423.048, 272.446 421.043, 273.366 419.262 C 275.011 416.079, 275.138 416.031, 280.887 416.455 C 284.104 416.692, 294.558 417.199, 304.118 417.582 C 314.756 418.008, 321.654 418.687, 321.898 419.332 C 322.116 419.912, 323.334 421.424, 324.602 422.693 C 325.871 423.962, 328.055 425, 329.455 425 C 330.855 425, 332.787 424.173, 333.750 423.162 C 334.712 422.151, 336.001 420.464, 336.613 419.412 C 337.670 417.594, 339.174 417.505, 367.188 417.598 C 383.392 417.651, 397.854 417.998, 399.325 418.367 C 400.796 418.736, 402 419.653, 402 420.404 C 402 421.155, 403.109 422.497, 404.465 423.385 C 405.820 424.273, 407.586 425, 408.388 425 C 409.190 425, 411.259 423.587, 412.986 421.860 L 416.126 418.720 436.682 418.610 C 455.912 418.507, 457.324 418.624, 458.587 420.427 C 459.329 421.487, 461.330 422.940, 463.034 423.656 C 465.883 424.854, 466.330 424.761, 468.586 422.505 C 469.936 421.155, 471.313 418.684, 471.647 417.013 C 472.087 414.814, 472.980 413.793, 474.878 413.318 C 476.320 412.957, 479.525 411.781, 482 410.705 C 484.475 409.629, 488.613 407.248, 491.195 405.415 C 493.778 403.582, 497.091 401.051, 498.557 399.791 C 500.024 398.531, 502.958 394.961, 505.077 391.857 C 507.196 388.753, 510.095 383.665, 511.520 380.549 C 512.945 377.434, 515.041 371.423, 516.178 367.192 C 517.788 361.200, 518.307 355.854, 518.527 343 C 518.683 333.925, 518.409 322.675, 517.918 318 C 517.427 313.325, 516.324 306.394, 515.466 302.598 C 514.609 298.802, 512.803 292.536, 511.453 288.674 C 510.104 284.811, 509 281.238, 509 280.732 C 509 280.202, 511.223 280.104, 514.250 280.502 C 517.138 280.882, 522.864 282.078, 526.977 283.162 C 531.089 284.245, 535.021 285.602, 535.714 286.178 C 536.407 286.753, 537.648 286.965, 538.470 286.650 C 539.293 286.334, 539.729 285.458, 539.439 284.702 C 539.149 283.947, 537.361 282.589, 535.466 281.685 C 533.571 280.781, 527.557 279.133, 522.103 278.021 C 516.649 276.909, 510.994 276, 509.537 276 C 507.322 276, 506.561 275.221, 504.898 271.250 C 503.804 268.637, 502.479 265.719, 501.954 264.764 C 501.429 263.809, 501 262.408, 501 261.650 C 501 260.861, 503.238 259.589, 506.250 258.666 C 509.137 257.782, 515.100 256.084, 519.500 254.894 C 523.900 253.703, 529.316 252.426, 531.537 252.055 C 533.757 251.685, 536.127 251.040, 536.803 250.622 C 537.479 250.204, 537.774 249.443, 537.457 248.931 C 537.141 248.419, 535.446 248.008, 533.691 248.017 C 531.936 248.026, 526.450 249.141, 521.500 250.494 C 516.550 251.847, 509.646 253.687, 506.157 254.584 C 502.557 255.509, 499.437 255.837, 498.943 255.343 C 498.464 254.864, 496.737 250.429, 495.106 245.486 C 493.474 240.544, 491.048 233.575, 489.715 230 C 488.382 226.425, 485.863 222.037, 484.118 220.250 C 482.372 218.463, 480.111 217, 479.094 217 C 478.077 217, 475.502 217.725, 473.372 218.612 C 471.242 219.498, 468.038 221.860, 466.251 223.862 C 464.464 225.863, 463.001 227.838, 463.001 228.250 C 463 228.662, 462.397 229, 461.661 229 C 460.924 229, 459.799 227.854, 459.161 226.453 C 458.522 225.052, 458 222.788, 458 221.422 C 458 219.941, 458.707 218.705, 459.750 218.363 C 460.712 218.048, 465.487 216.149, 470.359 214.145 C 475.232 212.140, 480.294 209.426, 481.609 208.114 C 482.924 206.801, 484 204.790, 484 203.645 C 484 202.500, 482.805 200.537, 481.344 199.282 C 479.884 198.027, 478.140 197, 477.469 197 C 476.798 197, 473.605 195.825, 470.374 194.388 C 467.143 192.952, 457.894 189.577, 449.820 186.888 C 441.747 184.200, 433.647 182.048, 431.820 182.106 M 389.814 221 C 388.852 221, 386.292 223.363, 384.126 226.250 C 381.960 229.137, 379.149 233.525, 377.879 236 C 376.609 238.475, 374.542 241.620, 373.285 242.990 C 372.028 244.359, 371 245.899, 371 246.411 C 371 246.923, 370.253 248.168, 369.339 249.177 C 368.426 250.187, 367.864 251.156, 368.089 251.333 C 368.315 251.509, 370.637 253.158, 373.250 254.996 C 375.871 256.841, 378 259.133, 378 260.111 C 378 261.085, 377.550 262.160, 377 262.500 C 376.450 262.840, 371.957 260.320, 367.015 256.901 L 358.030 250.685 346.765 249.805 C 340.569 249.321, 334.385 249.054, 333.022 249.212 C 330.573 249.497, 330.548 249.600, 330.839 258.093 C 331.116 266.148, 330.968 266.885, 328.478 269.843 C 326.581 272.098, 324.962 273, 322.812 273 C 320.735 273, 318.904 272.038, 316.901 269.894 C 314.169 266.969, 314 266.292, 314 258.252 L 314 249.715 308.105 250.331 C 304.862 250.670, 301.037 251.482, 299.605 252.134 C 297.087 253.281, 297 253.613, 297 262.084 C 297 270.052, 296.765 271.126, 294.411 273.923 C 292.977 275.628, 290.859 276.994, 289.661 276.986 C 288.472 276.979, 286.566 276.722, 285.424 276.415 C 284.281 276.108, 282.594 274.583, 281.674 273.024 C 280.564 271.147, 280 267.967, 280 263.596 C 280 258.762, 279.643 257, 278.665 257 C 277.931 257, 274.544 257.915, 271.138 259.033 C 267.733 260.151, 260.796 263.412, 255.723 266.280 C 249.984 269.525, 244.023 273.951, 239.943 277.998 C 236.337 281.574, 231.387 287.370, 228.943 290.878 C 226.499 294.386, 224.050 297.986, 223.500 298.878 C 222.950 299.770, 222.262 300.725, 221.971 301 C 221.680 301.275, 220.038 304.650, 218.322 308.500 C 216.606 312.350, 214.675 317.179, 214.030 319.230 C 213.385 321.282, 213.154 323.439, 213.515 324.024 C 213.877 324.609, 213.401 326.266, 212.457 327.706 C 210.960 329.991, 210.812 332.239, 211.295 345.412 C 211.605 353.874, 212.483 362.696, 213.294 365.500 C 214.090 368.250, 215.812 373.033, 217.120 376.130 C 218.429 379.226, 221.300 383.906, 223.500 386.529 C 225.700 389.153, 228.850 392.778, 230.500 394.586 C 232.150 396.393, 236.875 399.654, 241 401.830 C 245.125 404.007, 251.939 406.808, 256.142 408.053 L 263.785 410.318 264.427 415.159 C 264.825 418.165, 265.567 420, 266.383 420 C 267.105 420, 268.418 418.164, 269.299 415.919 L 270.902 411.839 297.701 412.546 C 312.831 412.945, 325.044 413.687, 325.750 414.249 C 326.438 414.797, 327 416.035, 327 417 C 327 417.965, 327.615 419.266, 328.367 419.890 C 329.395 420.743, 329.985 420.711, 330.745 419.762 C 331.301 419.068, 332.058 417.511, 332.429 416.301 C 332.799 415.092, 334.070 413.795, 335.253 413.420 C 336.435 413.044, 346.425 412.781, 357.451 412.833 C 368.478 412.886, 383.483 413.232, 390.795 413.602 L 404.091 414.275 405.571 417.137 C 406.385 418.712, 407.478 420, 408 420 C 408.522 420, 409.647 418.650, 410.500 417 C 411.353 415.350, 412.377 413.990, 412.776 413.977 C 413.174 413.964, 423.989 413.888, 436.808 413.808 L 460.116 413.662 462.098 416.921 C 463.727 419.600, 464.339 419.964, 465.540 418.967 C 466.343 418.300, 467 416.971, 467 416.012 C 467 415.054, 467.933 413.084, 469.073 411.635 C 470.212 410.186, 471.900 408.985, 472.823 408.966 C 473.745 408.947, 476.300 408.063, 478.500 407 C 480.700 405.937, 482.857 405.053, 483.293 405.034 C 483.729 405.015, 486.444 403.258, 489.327 401.128 C 492.209 398.998, 496.030 395.591, 497.818 393.555 C 499.605 391.519, 502.083 388.199, 503.326 386.177 C 504.568 384.155, 506.796 379.350, 508.277 375.500 C 509.758 371.650, 511.717 364.675, 512.630 360 C 513.972 353.127, 514.170 348.166, 513.663 334.085 C 513.245 322.452, 512.309 313.015, 510.843 305.659 C 509.637 299.602, 507.465 291.464, 506.017 287.574 L 503.384 280.500 497.268 280.668 C 492.500 280.800, 491.017 280.487, 490.543 279.251 C 490.208 278.379, 490.360 277.240, 490.880 276.720 C 491.400 276.200, 493.862 275.544, 496.350 275.264 L 500.874 274.754 498.853 269.627 C 497.742 266.807, 496.647 264.315, 496.421 264.088 C 496.195 263.862, 494.173 264.283, 491.929 265.024 C 488.438 266.176, 487.716 266.163, 486.939 264.935 C 486.439 264.146, 486.024 263.126, 486.015 262.670 C 486.007 262.213, 487.800 261.132, 490 260.268 C 492.200 259.404, 494 258.402, 494 258.041 C 494 257.681, 492.478 252.912, 490.617 247.443 C 488.756 241.974, 486.277 234.831, 485.109 231.570 C 483.940 228.308, 482.242 224.820, 481.337 223.820 C 480.431 222.819, 478.590 222, 477.245 222 C 475.783 222, 473.534 223.325, 471.650 225.298 C 469.918 227.111, 466.390 230.901, 463.811 233.720 C 461.232 236.539, 458.088 238.992, 456.824 239.172 C 455.011 239.431, 454.393 240.326, 453.894 243.418 C 453.545 245.573, 452.441 247.936, 451.439 248.668 C 450.437 249.401, 449.029 250, 448.309 250 C 447.589 250, 446.100 249.100, 445 248 C 443.900 246.900, 443 244.712, 443 243.139 C 443 240.626, 442.696 240.336, 440.500 240.755 C 438.666 241.106, 438 241.868, 438 243.617 C 438 244.927, 437.100 246.900, 436 248 C 434.900 249.100, 433.325 250, 432.500 250 C 431.675 250, 430.100 249.100, 429 248 C 427.900 246.900, 427 244.844, 427 243.430 C 427 241.340, 426.582 240.920, 424.756 241.180 C 423.174 241.406, 422.364 242.353, 422.006 244.393 C 421.728 245.984, 420.747 247.760, 419.828 248.339 C 418.640 249.087, 417.409 249.052, 415.578 248.217 C 413.810 247.412, 413 246.259, 413 244.547 C 413 242.800, 412.123 241.598, 410.079 240.541 C 408.472 239.710, 406.154 237.561, 404.927 235.765 C 403.700 233.969, 400.191 229.912, 397.129 226.750 C 394.068 223.588, 390.776 221, 389.814 221 M 401.916 267 C 400.057 267, 397.972 267.937, 396.455 269.455 C 395.105 270.805, 394 272.751, 394 273.780 C 394 274.809, 395.042 276.630, 396.314 277.826 C 397.691 279.119, 399.920 280, 401.814 280 C 403.667 280, 405.837 279.163, 407 278 C 408.100 276.900, 409 274.960, 409 273.689 C 409 272.417, 408.082 270.392, 406.961 269.189 C 405.737 267.875, 403.721 267, 401.916 267 M 375.143 269.160 C 373.689 269.248, 370.925 269.468, 369 269.648 C 367.075 269.828, 361.450 270.446, 356.500 271.021 C 351.550 271.597, 345.475 272.549, 343 273.137 C 340.525 273.726, 337.038 274.646, 335.250 275.181 C 333.462 275.717, 332 276.809, 332 277.609 C 332 278.409, 332.657 279.315, 333.460 279.623 C 334.262 279.931, 337.300 279.667, 340.210 279.037 C 343.119 278.406, 349.100 277.281, 353.500 276.535 C 357.900 275.790, 365.100 274.867, 369.500 274.484 C 373.900 274.102, 377.796 273.314, 378.157 272.735 C 378.519 272.155, 378.583 271.078, 378.300 270.341 C 378.018 269.603, 376.597 269.072, 375.143 269.160 M 439.872 269.015 C 439.527 269.007, 438.815 269.563, 438.290 270.250 C 437.765 270.938, 436.761 272.948, 436.060 274.717 C 435.359 276.486, 434.168 278.446, 433.413 279.072 C 432.472 279.853, 431.173 279.912, 429.271 279.258 C 427.747 278.734, 425.938 278.500, 425.250 278.736 C 424.563 278.973, 424 279.957, 424 280.923 C 424 281.889, 425.146 283.201, 426.547 283.839 C 427.948 284.478, 430.338 285, 431.858 285 C 433.379 285, 435.611 284.080, 436.818 282.954 L 439.014 280.909 442.351 283.454 C 444.187 284.855, 446.784 286, 448.122 286 C 449.460 286, 451.555 285.299, 452.777 284.443 C 454 283.587, 455 282.275, 455 281.527 C 455 280.779, 454.438 279.969, 453.750 279.727 C 453.063 279.485, 451.542 279.641, 450.371 280.073 C 449.011 280.575, 447.519 280.352, 446.237 279.454 C 445.134 278.681, 443.913 276.351, 443.524 274.277 C 443.135 272.202, 442.295 270.173, 441.658 269.768 C 441.021 269.362, 440.218 269.024, 439.872 269.015 M 473.223 269 C 471.695 269, 469.445 269.701, 468.223 270.557 C 466.692 271.629, 466 273.137, 466 275.402 C 466 277.317, 466.763 279.381, 467.829 280.345 C 468.835 281.255, 471.240 282, 473.174 282 C 475.310 282, 477.339 281.282, 478.345 280.171 C 479.255 279.165, 480 277.140, 480 275.671 C 480 274.202, 479.100 272.100, 478 271 C 476.900 269.900, 474.750 269, 473.223 269 M 172.614 279.100 C 171.451 279.155, 168.363 280.138, 165.750 281.285 C 161.785 283.026, 161 283.813, 161 286.049 C 161 287.522, 161.457 291.135, 162.015 294.078 C 162.573 297.022, 163.361 299.749, 163.765 300.139 C 164.169 300.529, 167.085 297.999, 170.244 294.516 C 175.879 288.304, 175.975 288.098, 175.358 283.592 C 174.829 279.736, 174.389 279.016, 172.614 279.100 M 184.309 307.698 L 182.275 303.500 178.888 307.378 C 177.024 309.511, 174.037 311.879, 172.250 312.641 C 170.463 313.403, 169.003 314.358, 169.006 314.763 C 169.010 315.169, 170.845 317.637, 173.084 320.250 C 175.324 322.863, 177.498 325, 177.917 325 C 178.336 325, 179.232 323.762, 179.907 322.250 C 180.583 320.738, 182.307 317.789, 183.740 315.698 L 186.344 311.896 184.309 307.698 M 196.763 323 C 196.293 323, 194.808 325.363, 193.464 328.250 C 192.119 331.137, 191.015 333.979, 191.010 334.565 C 191.004 335.150, 192.631 336.407, 194.624 337.358 C 196.617 338.308, 198.428 338.905, 198.649 338.685 C 198.869 338.464, 199.550 335.446, 200.161 331.978 C 201.166 326.272, 201.098 325.545, 199.445 324.336 C 198.440 323.601, 197.233 323, 196.763 323" stroke="none" fill="#000000" fill-rule="evenodd"></path>
</svg>