<svg width="121" height="121" viewBox="0 0 121 121" fill="none" xmlns="http://www.w3.org/2000/svg">
<g clip-path="url(#clip0_2325_13)">
<path d="M99 26.9677H66.7097V22H54.2903V26.9677H22V76.6452H35.2688L29.0592 99H39.089L41.8486 89.0645H79.1501L81.9097 99H91.9396L85.7299 76.6452H99V26.9677ZM56.7742 24.4839H64.2258V26.9677H56.7742V24.4839ZM37.2013 96.5161H32.3267L37.8471 76.6452H42.7205L37.2013 96.5161ZM42.5391 86.5806L43.2296 84.0968H70.4355V81.6129H43.9189L45.2987 76.6452H75.7013L77.0811 81.6129H72.9194V84.0968H77.7716L78.4621 86.5806H42.5391ZM88.6733 96.5161H83.7987L78.2783 76.6452H83.1517L88.6733 96.5161ZM96.5161 74.1613H85.0406H75.0108H45.988H35.9594H24.4839V29.4516H54.2903H66.7097H96.5161V74.1613Z" fill="#EBEBEB"/>
<path d="M55.5322 45.5968C55.5322 46.4376 55.6129 47.2697 55.7657 48.0869L50.5458 42.5193L27.2869 68.3628L29.1324 70.0245L50.5831 46.1905L68.2869 65.0754L70.0989 63.3776L61.306 53.9985L69.1451 46.1594L90.6243 70.0245L92.4699 68.3628L79.7586 54.237C81.7594 51.7991 82.8548 48.775 82.8548 45.5968C82.8548 38.0645 76.7258 31.9355 69.1935 31.9355C61.6612 31.9355 55.5322 38.0645 55.5322 45.5968ZM69.1935 34.4194C75.356 34.4194 80.3709 39.4344 80.3709 45.5968C80.3709 48.067 79.5574 50.4218 78.0721 52.3629L69.2407 42.5504L59.9485 51.8438C58.7004 50.002 58.0161 47.8311 58.0161 45.5968C58.0161 39.4344 63.031 34.4194 69.1935 34.4194Z" fill="#EBEBEB"/>
<path d="M82.8548 66.7097H80.371V69.1936H82.8548V66.7097Z" fill="#EBEBEB"/>
<path d="M77.8871 66.7097H75.4032V69.1936H77.8871V66.7097Z" fill="#EBEBEB"/>
<path d="M72.9193 66.7097H70.4354V69.1936H72.9193V66.7097Z" fill="#EBEBEB"/>
<path d="M18.15 0.5H102.85C112.598 0.5 120.5 8.40217 120.5 18.15V102.85C120.5 112.598 112.598 120.5 102.85 120.5H18.15C8.40217 120.5 0.5 112.598 0.5 102.85V18.15C0.5 8.40217 8.40217 0.5 18.15 0.5Z" stroke="white"/>
</g>
<defs>
<clipPath id="clip0_2325_13">
<rect width="121" height="121" fill="white"/>
</clipPath>
</defs>
</svg>
