<svg width="121" height="121" viewBox="0 0 121 121" fill="none" xmlns="http://www.w3.org/2000/svg">
<g clip-path="url(#clip0_2201_8)">
<path d="M18.15 0.5H102.85C112.598 0.5 120.5 8.40217 120.5 18.15V102.85C120.5 112.598 112.598 120.5 102.85 120.5H18.15C8.40217 120.5 0.5 112.598 0.5 102.85V18.15C0.5 8.40217 8.40217 0.5 18.15 0.5Z" stroke="white"/>
<path d="M29.4758 48.8522C31.6864 48.8522 32.9237 49.6946 34.2095 51.4854C35.2354 52.962 36.2667 53.4905 37.5517 53.4905C39.4559 53.4905 41 52.0652 41 50.0116C41 49.1692 40.741 48.4292 40.3281 47.6923C38.5777 44.4761 34.7223 42 29.4758 42C23.3514 42 18.8245 44.9503 16.9733 50.8029C16.2541 53.1738 16 55.019 16 60.4998C16 65.981 16.2537 67.8265 16.9733 70.1971C18.8245 76.0493 23.3514 79 29.4758 79C34.7223 79 38.5777 76.5235 40.3281 73.3073C40.741 72.5704 41 71.8308 41 70.9883C41 68.9317 39.4556 67.5095 37.5517 67.5095C36.2667 67.5095 35.2354 68.0376 34.2095 69.5118C32.9241 71.3054 31.6864 72.1482 29.4758 72.1482C26.6463 72.1482 25.0015 70.6201 24.2293 68.1952C23.8169 66.8785 23.6635 65.6131 23.6635 60.5002C23.6635 55.3877 23.8173 54.1222 24.2293 52.8056C25.0015 50.3803 26.6463 48.8522 29.4758 48.8522Z" fill="white"/>
<path d="M62.8002 56.8646L60.9172 56.5991C56.7856 56.0194 55.3707 54.6511 55.3707 52.6461C55.3707 50.3811 57.0437 48.7986 60.1853 48.7986C62.3803 48.7986 64.5804 49.4327 66.3073 50.2751C67.0389 50.6438 67.8244 50.8549 68.5559 50.8549C70.4389 50.8549 71.9074 49.4323 71.9074 47.4816C71.9074 46.2161 71.3319 45.1622 70.073 44.371C67.9804 43.0539 64.0588 42 60.1317 42C52.4387 42 47.522 46.3729 47.522 52.9624C47.522 59.2891 51.4976 62.714 58.7707 63.7163L60.6587 63.979C64.8924 64.5588 66.1513 65.8758 66.1513 67.9837C66.1513 70.4629 64.1073 72.2026 60.3413 72.2026C57.7267 72.2026 55.6342 71.5169 52.7022 69.8832C52.0727 69.5122 51.2876 69.2491 50.4536 69.2491C48.4635 69.2491 47 70.7773 47 72.6764C47 73.9391 47.6295 75.1529 48.8291 75.9437C51.1851 77.4179 55.0047 79 60.0292 79C69.2871 79 74 74.2045 74 67.7206C74.0004 61.2379 70.1805 57.9185 62.8002 56.8646Z" fill="white"/>
<path d="M94.8048 56.8646L92.9218 56.5991C88.7852 56.0194 87.3753 54.6511 87.3753 52.6461C87.3753 50.3811 89.0487 48.7986 92.1845 48.7986C94.3849 48.7986 96.585 49.4327 98.3066 50.2751C99.0435 50.6438 99.829 50.8549 100.561 50.8549C102.443 50.8549 103.907 49.4323 103.907 47.4816C103.907 46.2161 103.331 45.1622 102.078 44.371C99.985 43.0539 96.058 42 92.1363 42C84.4437 42 79.5266 46.3729 79.5266 52.9624C79.5266 59.2891 83.5022 62.714 90.7753 63.7163L92.6583 63.979C96.8974 64.5588 98.1509 65.8758 98.1509 67.9837C98.1509 70.4629 96.1123 72.2026 92.3463 72.2026C89.7267 72.2026 87.6342 71.5169 84.7076 69.8832C84.0781 69.5122 83.2926 69.2491 82.4536 69.2491C80.4685 69.2491 79 70.7773 79 72.6764C79 73.9391 79.6295 75.1529 80.8345 75.9437C83.1909 77.4179 87.0105 79 92.0292 79C101.293 79 106 74.2045 106 67.7206C106 61.2379 102.18 57.9185 94.8048 56.8646Z" fill="white"/>
</g>
<defs>
<clipPath id="clip0_2201_8">
<rect width="121" height="121" fill="white"/>
</clipPath>
</defs>
</svg>
