<svg width="121" height="121" viewBox="0 0 121 121" fill="none" xmlns="http://www.w3.org/2000/svg">
<g clip-path="url(#clip0_2201_5)">
<path d="M18.15 0.5H102.85C112.598 0.5 120.5 8.40217 120.5 18.15V102.85C120.5 112.598 112.598 120.5 102.85 120.5H18.15C8.40217 120.5 0.5 112.598 0.5 102.85V18.15C0.5 8.40217 8.40217 0.5 18.15 0.5Z" stroke="white"/>
<path d="M99.4949 77.845C99.4949 77.845 89.4908 104.823 55.0492 98.5427C54.5072 98.4418 53.9874 98.2534 53.461 98.0942C53.3379 98.0582 53.2136 98.0188 53.0905 97.9836C52.5734 97.8227 52.0615 97.6577 51.5527 97.4803C51.4945 97.46 51.4389 97.441 51.3799 97.42C50.9165 97.2571 50.4556 97.0841 50.0007 96.9094C49.8815 96.863 49.763 96.8178 49.6444 96.7693C49.1543 96.5757 48.6666 96.3733 48.1841 96.1619C48.0952 96.1227 48.0094 96.0833 47.919 96.0435C47.4967 95.8557 47.0797 95.6611 46.6662 95.4634C46.5589 95.409 46.4509 95.3586 46.3427 95.3076C46.2839 95.2782 46.2204 95.2487 46.1601 95.2187C45.8932 95.0852 45.6325 94.9465 45.3695 94.8088C45.1666 94.7041 44.9603 94.6021 44.7587 94.4939C44.3863 94.291 44.019 94.0848 43.6537 93.874C43.5181 93.7968 43.3813 93.7221 43.2471 93.6442C42.7509 93.3524 42.26 93.0492 41.7762 92.7427C41.6394 92.655 41.5041 92.5622 41.3692 92.4717C41.0537 92.2675 40.7381 92.0632 40.4291 91.8499C40.3964 91.8275 40.365 91.8041 40.3329 91.7811C40.2131 91.6999 40.0993 91.6168 39.9802 91.5303C39.6542 91.3038 39.3315 91.0721 39.0121 90.8365C38.8577 90.72 38.7037 90.6029 38.5506 90.4856C38.2612 90.2649 37.9733 90.039 37.6878 89.8113C37.5458 89.6974 37.4018 89.5849 37.2598 89.4697C36.9116 89.1829 36.5645 88.8909 36.2248 88.5964C36.1606 88.5402 36.0926 88.4851 36.0271 88.4262C36.0205 88.4235 36.0159 88.4183 36.0087 88.4123C35.6232 88.0745 35.2448 87.7282 34.8696 87.3748C34.7565 87.2714 34.6438 87.1608 34.5299 87.0521C34.2498 86.783 33.9722 86.5119 33.6993 86.2371C33.586 86.1258 33.474 86.0132 33.3654 85.9005C33.0127 85.5378 32.6643 85.1747 32.324 84.8034C32.3116 84.7865 32.2991 84.7766 32.2842 84.7602C32.2782 84.7538 32.2697 84.7451 32.2639 84.7379C31.9157 84.3543 31.5739 83.9622 31.2394 83.5688C31.1458 83.4581 31.0516 83.345 30.9592 83.233C30.7099 82.9325 30.4643 82.6328 30.2235 82.329C30.1234 82.2026 30.0233 82.0751 29.9244 81.9481C29.6541 81.5991 29.387 81.2476 29.1284 80.8901C29.0799 80.8234 29.0283 80.7579 28.9817 80.6924C28.9718 80.6814 28.9634 80.6694 28.9568 80.6584C28.6571 80.2439 28.3678 79.8218 28.0836 79.399C27.9953 79.2693 27.9122 79.1358 27.8271 79.0021C27.6215 78.6893 27.4198 78.3763 27.2248 78.0596C27.1228 77.8973 27.0258 77.7343 26.9276 77.5711C26.7502 77.2753 26.5767 76.9794 26.4085 76.6809C26.3123 76.512 26.2174 76.3471 26.1243 76.1736C26.0725 76.082 26.0164 75.9875 25.966 75.8915C25.8775 75.7316 25.7977 75.5649 25.7113 75.4018C25.5778 75.1459 25.4423 74.8887 25.3134 74.6281C19.8737 63.752 18.986 50.435 26.108 40.1986L31.6668 33.1483C25.3951 45.2701 28.2138 60.0307 36.0598 70.7319C36.3432 71.1215 36.6333 71.5057 36.9297 71.8898C37.0215 72.0057 37.1135 72.1223 37.2053 72.2336C37.452 72.5478 37.704 72.858 37.9587 73.1652C38.0505 73.2731 38.14 73.3791 38.2337 73.4904C38.5742 73.8924 38.9224 74.2916 39.2798 74.681C39.2968 74.6999 39.3132 74.7171 39.3296 74.7353C39.6674 75.104 40.0116 75.4678 40.3619 75.8267C40.4705 75.9365 40.5812 76.0453 40.6918 76.1553C40.9668 76.436 41.2476 76.7085 41.533 76.9794C41.641 77.0867 41.7496 77.1902 41.8617 77.2969C42.2472 77.6556 42.636 78.0123 43.0321 78.3607C43.0733 78.3967 43.1158 78.4299 43.1537 78.4633C43.5203 78.7821 43.8915 79.0925 44.2673 79.4015C44.3982 79.5082 44.5317 79.6148 44.6652 79.7209C44.9603 79.9584 45.259 80.1896 45.5595 80.4193C45.7029 80.5293 45.85 80.6413 45.9988 80.7511C46.3254 80.9934 46.6554 81.2317 46.9886 81.4673C47.1018 81.5438 47.2118 81.6271 47.3264 81.7043C47.6708 81.9426 48.0217 82.1743 48.3738 82.4008C48.506 82.4886 48.637 82.5802 48.7705 82.6654C49.2563 82.973 49.7472 83.2754 50.2434 83.5674C50.371 83.6407 50.4987 83.7094 50.6243 83.7802C50.9988 83.9968 51.3739 84.2101 51.7561 84.4144C51.9629 84.5295 52.1758 84.6337 52.3851 84.7443C52.6981 84.9054 53.011 85.0691 53.3277 85.2235C53.4475 85.2824 53.564 85.3375 53.6813 85.393C54.0852 85.5874 54.4903 85.7748 54.9001 85.9605C54.9971 86.0025 55.0912 86.0463 55.1888 86.0882C55.6661 86.297 56.1484 86.4974 56.6348 86.689C56.7597 86.7387 56.8849 86.7866 57.0105 86.8365C57.453 87.0079 57.8988 87.1743 58.3498 87.3333C58.4198 87.3582 58.4899 87.3837 58.5579 87.4085C59.0606 87.5815 59.5665 87.7463 60.0766 87.9022C60.2067 87.9428 60.3371 87.9821 60.4706 88.0213C60.9929 88.1758 61.512 88.3428 62.0475 88.464C76.1788 91.68 91.0926 88.7919 99.4949 77.845ZM49.6394 60.5499C50.4118 61.6556 51.2667 62.9718 52.2912 63.8604C52.6617 64.2694 53.0505 64.6679 53.4466 65.06C53.546 65.162 53.6488 65.2603 53.7516 65.3604C54.1352 65.7336 54.528 66.1008 54.9313 66.4575C54.9483 66.47 54.9634 66.4871 54.9797 66.4989C54.9843 66.5041 54.9882 66.5054 54.9915 66.5106C55.4394 66.9021 55.9015 67.2799 56.3702 67.6509C56.4744 67.7308 56.5776 67.814 56.6831 67.8952C57.1537 68.2558 57.6337 68.6106 58.1259 68.9483C58.141 68.9587 58.1527 68.9694 58.1678 68.9797C58.3844 69.1302 58.6057 69.2703 58.825 69.4144C58.9311 69.4825 59.0312 69.5557 59.1371 69.6199C59.4893 69.8458 59.8449 70.0651 60.2067 70.2759C60.2579 70.3074 60.3076 70.3335 60.358 70.3629C60.6689 70.5424 60.9864 70.7198 61.3033 70.8912C61.4131 70.9527 61.5258 71.0077 61.6384 71.0665C61.857 71.1805 62.0769 71.2976 62.2995 71.4083C62.3329 71.424 62.3677 71.4396 62.3998 71.4535C62.8535 71.6767 63.3109 71.8926 63.779 72.0955C63.8785 72.1401 63.9819 72.1793 64.0835 72.2213C64.4573 72.3797 64.8343 72.5349 65.2134 72.6802C65.3742 72.7411 65.5375 72.7993 65.6971 72.8576C66.042 72.9859 66.387 73.1025 66.7352 73.219C66.8931 73.2692 67.0475 73.321 67.2053 73.3695C67.7002 73.5226 68.1897 73.7177 68.7062 73.8028C95.2983 78.2089 101.437 57.7346 101.437 57.7346C95.9026 65.7048 85.1856 69.5075 73.749 66.5396C73.2417 66.4059 72.7411 66.26 72.2441 66.1035C72.0908 66.0576 71.9416 66.008 71.7903 65.9574C71.4369 65.8428 71.0853 65.7212 70.7366 65.5941C70.5775 65.5359 70.4179 65.4777 70.2612 65.4174C69.8795 65.2707 69.5019 65.1189 69.1282 64.9606C69.0254 64.916 68.9226 64.8767 68.8225 64.8309C68.3533 64.6264 67.8911 64.4117 67.4354 64.1864C67.2004 64.0717 66.9706 63.9504 66.7388 63.8316C66.6052 63.7628 66.4711 63.6939 66.3376 63.6251C66.0417 63.4644 65.7472 63.2977 65.457 63.1286C65.3883 63.0889 65.3163 63.0513 65.2463 63.0098C64.8869 62.799 64.5321 62.5819 64.1806 62.359C64.0724 62.2901 63.9678 62.215 63.8598 62.144C63.6273 61.9938 63.3964 61.8416 63.1684 61.6872C62.6789 61.3494 62.2022 60.9947 61.7316 60.636C61.623 60.5505 61.515 60.4671 61.4075 60.3816C56.4024 56.4289 52.435 51.0278 50.547 44.9034C48.5707 38.5515 48.997 31.4215 52.4224 25.6353L48.214 31.5757C43.0643 38.9874 43.3439 48.9087 47.361 56.7473C48.0357 58.0615 48.793 59.3359 49.6394 60.5499ZM77.6681 51.3804C77.8873 51.4622 78.106 51.5348 78.3278 51.6099C78.4248 51.6396 78.5216 51.673 78.6192 51.7018C78.9321 51.8003 79.243 51.9146 79.5665 51.9754C94.2504 54.8124 98.2323 44.4403 99.2928 42.9138C95.8038 47.9368 89.9418 49.1426 82.7471 47.3971C82.1796 47.2584 81.5552 47.0531 81.0065 46.8594C80.3041 46.6089 79.6135 46.3235 78.9406 46.0005C77.6623 45.3868 76.4459 44.6422 75.3162 43.7897C68.8795 38.9054 64.8812 29.5879 69.0811 22L66.8083 25.1326C63.7723 29.6009 63.4744 35.15 65.5803 40.0853C67.802 45.323 72.3547 49.4326 77.6681 51.3804Z" fill="#EBEBEB"/>
</g>
<defs>
<clipPath id="clip0_2201_5">
<rect width="121" height="121" fill="white"/>
</clipPath>
</defs>
</svg>
