<svg width="121" height="121" viewBox="0 0 121 121" fill="none" xmlns="http://www.w3.org/2000/svg">
<g clip-path="url(#clip0_2325_4)">
<path d="M18.15 0.5H102.85C112.598 0.5 120.5 8.40217 120.5 18.15V102.85C120.5 112.598 112.598 120.5 102.85 120.5H18.15C8.40217 120.5 0.5 112.598 0.5 102.85V18.15C0.5 8.40217 8.40217 0.5 18.15 0.5Z" stroke="white"/>
<path d="M91.073 93.4938L91.1641 93.3171C91.2473 93.1702 91.3175 93.0164 91.3739 92.8575L91.3818 92.8378C91.666 92.0761 91.7398 91.2529 91.5956 90.4534L91.5996 90.4809C91.446 89.6147 91.1305 88.7847 90.6692 88.0337L90.689 88.0651L69.64 51.3249L66.4254 45.7469L63.2307 51.3249L42.1935 88.0651C41.7879 88.8036 41.5147 89.6064 41.3859 90.4377L41.3819 90.4809C41.211 91.4252 41.3211 92.3985 41.6986 93.2817L41.6867 93.2503C41.7432 93.3883 41.8093 93.5222 41.8847 93.651L41.8768 93.6352C42.5102 94.7155 43.8562 96 46.8253 96H86.0097C86.6312 96 89.6716 95.8743 91.077 93.4978L91.073 93.4938ZM66.4215 56.899L85.6574 90.477H47.1935L66.4215 56.899ZM106.995 88.0651L79.2203 39.5129C78.9353 39.0022 77.332 36.4214 74.541 36.4214C73.2861 36.4214 71.4848 36.9517 70.02 39.5051L66.4294 45.7508L69.6241 51.3288L74.5727 42.6397L102.051 90.4849H91.5996C91.7343 91.2872 91.6551 92.1106 91.37 92.8732L91.3818 92.8418C91.3217 93.0131 91.2462 93.1788 91.1562 93.3367L91.1641 93.321L91.077 93.4978C89.6716 95.8743 86.6312 96 86.0374 96H102.383C102.985 96 106.014 95.8743 107.419 93.4978C108.041 92.4175 108.488 90.6027 106.995 88.069V88.0651ZM41.9045 93.6313C41.8388 93.514 41.7794 93.3934 41.7263 93.2699L41.7184 93.2464C41.3297 92.3676 41.2139 91.3938 41.3859 90.4495L41.3819 90.4809L18.9314 90.477L52.3003 32.2144L63.2544 51.321L66.4294 45.743L56.8807 29.0522C56.6155 28.573 55.0003 26 52.2212 26C50.9662 26 49.165 26.5382 47.7002 29.0915L13.8998 88.0612C13.6147 88.5718 12.2173 91.2508 13.6029 93.6274C14.2363 94.7076 15.5823 95.9921 18.5514 95.9921H46.8609C43.9116 95.9921 42.5458 94.7273 41.9124 93.6274L41.9045 93.6313Z" fill="#EBEBEB"/>
</g>
<defs>
<clipPath id="clip0_2325_4">
<rect width="121" height="121" fill="white"/>
</clipPath>
</defs>
</svg>
