<svg width="121" height="121" viewBox="0 0 121 121" fill="none" xmlns="http://www.w3.org/2000/svg">
<g clip-path="url(#clip0_2325_10)">
<path d="M18.15 0.5H102.85C112.598 0.5 120.5 8.40217 120.5 18.15V102.85C120.5 112.598 112.598 120.5 102.85 120.5H18.15C8.40217 120.5 0.5 112.598 0.5 102.85V18.15C0.5 8.40217 8.40217 0.5 18.15 0.5Z" stroke="white"/>
<path d="M80.7017 25.0002H73.6877C72.3479 25.0002 71.0998 25.6747 70.3753 26.7905L61 41.2295L51.6247 26.7905C50.9002 25.6747 49.6523 25.0002 48.3125 25.0002H22.9375C21.5257 25.0002 20.222 25.7485 19.5205 26.9615C18.819 28.1745 18.8271 29.6665 19.5417 30.8719L57.6043 95.0747C58.3112 96.2676 59.6033 97 61 97C62.3967 97 63.6888 96.2676 64.3958 95.0747L102.458 30.8719C103.173 29.6665 103.181 28.1745 102.48 26.9615C101.778 25.7485 100.474 25.0002 99.0625 25.0002H80.7757C80.751 24.9999 80.7264 24.9999 80.7017 25.0002ZM39.0023 32.7969L61.0001 70.1326L82.9975 32.7969H92.1855L61 85.4005L29.8143 32.7969H39.0023Z" fill="#EBEBEB"/>
</g>
<defs>
<clipPath id="clip0_2325_10">
<rect width="121" height="121" fill="white"/>
</clipPath>
</defs>
</svg>
